M48
; DRILL file {KiCad 9.0.7} date 2026-01-26T21:42:35-0500
; FORMAT={-:-/ absolute / metric / decimal}
; #@! TF.CreationDate,2026-01-26T21:42:35-05:00
; #@! TF.GenerationSoftware,Kicad,Pcbnew,9.0.7
; #@! TF.FileFunction,Plated,1,4,PTH
FMAT,2
METRIC
; #@! TA.AperFunction,Plated,PTH,ViaDrill
T1C0.300
; #@! TA.AperFunction,Plated,PTH,ViaDrill
T2C0.400
; #@! TA.AperFunction,Plated,PTH,ComponentDrill
T3C0.400
; #@! TA.AperFunction,Plated,PTH,ComponentDrill
T4C0.500
; #@! TA.AperFunction,Plated,PTH,ComponentDrill
T5C0.600
; #@! TA.AperFunction,Plated,PTH,ComponentDrill
T6C2.200
%
G90
G05
T1
X127.45Y-96.37
X128.57Y-109.55
X129.85Y-108.45
X130.7Y-108.45
X131.8Y-99.35
X135.85Y-104.95
X135.85Y-108.4
X136.6Y-104.975
X136.7Y-108.4
X139.65Y-105.55
X141.0Y-99.55
X142.88Y-107.7
X147.15Y-103.8
X147.5Y-104.9
X147.5Y-105.7
X148.2Y-107.7
X149.0Y-107.7
X149.27Y-101.15
X149.95Y-107.05
X150.6Y-94.6
X150.6Y-95.4
X150.768Y-102.012
X151.1Y-107.13
X151.69Y-96.35
X151.69Y-97.5
X152.2Y-106.59
X152.85Y-93.9
X153.6Y-93.9
X153.65Y-102.35
X153.65Y-104.55
X153.7Y-100.2
X154.85Y-101.25
X154.9Y-103.3
X155.3Y-108.1
X155.337Y-108.978
X155.8Y-109.75
X155.9Y-100.2
X155.9Y-104.55
X157.05Y-101.25
X157.05Y-103.35
X157.35Y-107.2
X158.05Y-100.1
X158.05Y-102.4
X158.05Y-104.55
X158.1Y-108.96
X158.25Y-95.8
X159.0Y-95.8
X160.7Y-103.76
X161.5Y-110.1
X161.7Y-103.95
X161.81Y-100.18
X161.85Y-99.18
X161.9Y-112.85
X161.9Y-113.75
X162.0Y-103.05
X162.15Y-111.0
X162.35Y-106.85
X162.35Y-107.9
X164.85Y-102.96
X166.85Y-100.05
X166.86Y-102.23
X169.85Y-104.05
X170.0Y-98.45
X170.7Y-104.05
X170.75Y-98.45
X171.5Y-98.45
X171.6Y-104.05
X175.15Y-109.17
X176.3Y-109.17
T2
X122.0Y-101.0
X122.0Y-103.0
X122.0Y-105.0
X123.0Y-110.0
X123.0Y-112.0
X124.0Y-101.0
X124.0Y-105.0
X125.0Y-110.0
X125.0Y-112.0
X127.0Y-94.0
X127.0Y-112.0
X129.0Y-94.0
X129.0Y-112.0
X131.0Y-94.0
X131.0Y-96.0
X131.0Y-111.0
X131.0Y-113.0
X131.0Y-115.0
X133.0Y-94.0
X133.0Y-96.0
X133.0Y-111.0
X133.0Y-113.0
X133.0Y-115.0
X135.0Y-94.0
X135.0Y-96.0
X135.0Y-111.0
X135.0Y-113.0
X135.0Y-115.0
X137.0Y-94.0
X137.0Y-96.0
X137.0Y-111.0
X137.0Y-114.0
X137.0Y-116.0
X139.0Y-94.0
X139.0Y-96.0
X139.0Y-109.0
X139.0Y-111.0
X139.0Y-114.0
X139.0Y-116.0
X141.0Y-94.0
X141.0Y-96.0
X141.0Y-114.0
X141.0Y-116.0
X143.0Y-94.0
X143.0Y-96.0
X143.0Y-114.0
X143.0Y-116.0
X145.0Y-94.0
X145.0Y-96.0
X145.0Y-108.0
X145.0Y-110.0
X145.0Y-116.0
X145.023Y-113.97
X147.0Y-94.0
X147.0Y-96.0
X147.0Y-109.0
X147.0Y-114.0
X147.0Y-116.0
X149.0Y-94.0
X149.0Y-96.0
X149.0Y-109.0
X149.0Y-116.0
X149.016Y-113.97
X151.0Y-110.0
X151.0Y-114.0
X151.0Y-116.0
X153.0Y-114.0
X153.0Y-116.0
X155.0Y-114.0
X155.0Y-116.0
X157.0Y-116.0
X159.0Y-94.0
X159.0Y-116.0
X161.0Y-116.0
X162.0Y-94.0
X163.0Y-116.0
X164.0Y-94.0
X164.0Y-96.0
X164.0Y-98.0
X165.0Y-112.0
X165.0Y-114.0
X165.0Y-116.0
X166.0Y-94.0
X166.0Y-96.0
X166.0Y-98.0
X166.0Y-105.0
X166.0Y-107.0
X167.0Y-112.0
X167.0Y-114.0
X167.0Y-116.0
X168.0Y-94.0
X168.0Y-96.0
X168.0Y-98.0
X168.0Y-105.0
X169.0Y-107.0
X169.0Y-115.0
X171.0Y-113.0
X174.0Y-100.0
X174.0Y-102.0
X174.0Y-104.0
X174.0Y-112.0
X176.0Y-100.0
X176.0Y-102.0
X176.0Y-104.0
X178.0Y-100.0
X178.0Y-102.0
X178.0Y-104.0
T3
X121.9Y-114.9
X122.25Y-95.5
X122.383Y-113.733
X122.383Y-116.067
X122.733Y-94.333
X122.733Y-96.667
X123.55Y-113.25
X123.55Y-116.55
X123.9Y-93.85
X123.9Y-97.15
X124.717Y-113.733
X124.717Y-116.067
X125.067Y-94.333
X125.067Y-96.667
X125.2Y-114.9
X125.55Y-95.5
X174.167Y-114.783
X174.233Y-95.683
X174.65Y-113.617
X174.65Y-115.95
X174.717Y-94.517
X174.717Y-96.85
X175.817Y-113.133
X175.817Y-116.433
X175.883Y-94.033
X175.883Y-97.333
X176.983Y-113.617
X176.983Y-115.95
X177.05Y-94.517
X177.05Y-96.85
X177.467Y-114.783
X177.533Y-95.683
T4
X157.225Y-113.25
X158.475Y-113.25
X159.725Y-113.25
X160.975Y-113.25
T6
X123.55Y-114.9
X123.9Y-95.5
X175.817Y-114.783
X175.883Y-95.683
T5
G00X123.685Y-99.18
M15
G01X122.885Y-99.18
M16
G05
G00X123.685Y-107.82
M15
G01X122.885Y-107.82
M16
G05
G00X128.015Y-99.18
M15
G01X126.915Y-99.18
M16
G05
G00X128.015Y-107.82
M15
G01X126.915Y-107.82
M16
G05
M30
