%TF.GenerationSoftware,KiCad,Pcbnew,9.0.7*%
%TF.CreationDate,2026-01-26T21:42:46-05:00*%
%TF.ProjectId,STM32BLEHardware,53544d33-3242-44c4-9548-617264776172,rev?*%
%TF.SameCoordinates,Original*%
%TF.FileFunction,Copper,L1,Top*%
%TF.FilePolarity,Positive*%
%FSLAX46Y46*%
G04 Gerber Fmt 4.6, Leading zero omitted, Abs format (unit mm)*
G04 Created by KiCad (PCBNEW 9.0.7) date 2026-01-26 21:42:46*
%MOMM*%
%LPD*%
G01*
G04 APERTURE LIST*
G04 Aperture macros list*
%AMRoundRect*
0 Rectangle with rounded corners*
0 $1 Rounding radius*
0 $2 $3 $4 $5 $6 $7 $8 $9 X,Y pos of 4 corners*
0 Add a 4 corners polygon primitive as box body*
4,1,4,$2,$3,$4,$5,$6,$7,$8,$9,$2,$3,0*
0 Add four circle primitives for the rounded corners*
1,1,$1+$1,$2,$3*
1,1,$1+$1,$4,$5*
1,1,$1+$1,$6,$7*
1,1,$1+$1,$8,$9*
0 Add four rect primitives between the rounded corners*
20,1,$1+$1,$2,$3,$4,$5,0*
20,1,$1+$1,$4,$5,$6,$7,0*
20,1,$1+$1,$6,$7,$8,$9,0*
20,1,$1+$1,$8,$9,$2,$3,0*%
G04 Aperture macros list end*
%TA.AperFunction,SMDPad,CuDef*%
%ADD10RoundRect,0.135000X-0.185000X0.135000X-0.185000X-0.135000X0.185000X-0.135000X0.185000X0.135000X0*%
%TD*%
%TA.AperFunction,SMDPad,CuDef*%
%ADD11RoundRect,0.062500X0.062500X-0.375000X0.062500X0.375000X-0.062500X0.375000X-0.062500X-0.375000X0*%
%TD*%
%TA.AperFunction,SMDPad,CuDef*%
%ADD12RoundRect,0.062500X0.375000X-0.062500X0.375000X0.062500X-0.375000X0.062500X-0.375000X-0.062500X0*%
%TD*%
%TA.AperFunction,HeatsinkPad*%
%ADD13R,5.600000X5.600000*%
%TD*%
%TA.AperFunction,SMDPad,CuDef*%
%ADD14RoundRect,0.135000X-0.135000X-0.185000X0.135000X-0.185000X0.135000X0.185000X-0.135000X0.185000X0*%
%TD*%
%TA.AperFunction,SMDPad,CuDef*%
%ADD15RoundRect,0.218750X0.218750X0.381250X-0.218750X0.381250X-0.218750X-0.381250X0.218750X-0.381250X0*%
%TD*%
%TA.AperFunction,SMDPad,CuDef*%
%ADD16RoundRect,0.150000X-0.512500X-0.150000X0.512500X-0.150000X0.512500X0.150000X-0.512500X0.150000X0*%
%TD*%
%TA.AperFunction,SMDPad,CuDef*%
%ADD17RoundRect,0.147500X0.147500X0.172500X-0.147500X0.172500X-0.147500X-0.172500X0.147500X-0.172500X0*%
%TD*%
%TA.AperFunction,SMDPad,CuDef*%
%ADD18RoundRect,0.225000X-0.250000X0.225000X-0.250000X-0.225000X0.250000X-0.225000X0.250000X0.225000X0*%
%TD*%
%TA.AperFunction,SMDPad,CuDef*%
%ADD19RoundRect,0.140000X0.140000X0.170000X-0.140000X0.170000X-0.140000X-0.170000X0.140000X-0.170000X0*%
%TD*%
%TA.AperFunction,SMDPad,CuDef*%
%ADD20RoundRect,0.147500X-0.147500X-0.172500X0.147500X-0.172500X0.147500X0.172500X-0.147500X0.172500X0*%
%TD*%
%TA.AperFunction,SMDPad,CuDef*%
%ADD21R,1.500000X1.500000*%
%TD*%
%TA.AperFunction,SMDPad,CuDef*%
%ADD22RoundRect,0.200000X0.200000X-0.250000X0.200000X0.250000X-0.200000X0.250000X-0.200000X-0.250000X0*%
%TD*%
%TA.AperFunction,SMDPad,CuDef*%
%ADD23RoundRect,0.140000X-0.170000X0.140000X-0.170000X-0.140000X0.170000X-0.140000X0.170000X0.140000X0*%
%TD*%
%TA.AperFunction,SMDPad,CuDef*%
%ADD24C,1.000000*%
%TD*%
%TA.AperFunction,ComponentPad*%
%ADD25C,0.700000*%
%TD*%
%TA.AperFunction,ComponentPad*%
%ADD26C,4.400000*%
%TD*%
%TA.AperFunction,SMDPad,CuDef*%
%ADD27RoundRect,0.147500X0.172500X-0.147500X0.172500X0.147500X-0.172500X0.147500X-0.172500X-0.147500X0*%
%TD*%
%TA.AperFunction,SMDPad,CuDef*%
%ADD28RoundRect,0.068750X-0.068750X-0.281250X0.068750X-0.281250X0.068750X0.281250X-0.068750X0.281250X0*%
%TD*%
%TA.AperFunction,SMDPad,CuDef*%
%ADD29RoundRect,0.068750X0.281250X-0.068750X0.281250X0.068750X-0.281250X0.068750X-0.281250X-0.068750X0*%
%TD*%
%TA.AperFunction,SMDPad,CuDef*%
%ADD30RoundRect,0.135000X0.135000X0.185000X-0.135000X0.185000X-0.135000X-0.185000X0.135000X-0.185000X0*%
%TD*%
%TA.AperFunction,ComponentPad*%
%ADD31RoundRect,0.200000X-0.200000X-0.450000X0.200000X-0.450000X0.200000X0.450000X-0.200000X0.450000X0*%
%TD*%
%TA.AperFunction,ComponentPad*%
%ADD32O,0.800000X1.300000*%
%TD*%
%TA.AperFunction,SMDPad,CuDef*%
%ADD33RoundRect,0.140000X-0.140000X-0.170000X0.140000X-0.170000X0.140000X0.170000X-0.140000X0.170000X0*%
%TD*%
%TA.AperFunction,ConnectorPad*%
%ADD34C,0.787400*%
%TD*%
%TA.AperFunction,SMDPad,CuDef*%
%ADD35RoundRect,0.250000X-0.275000X-0.250000X0.275000X-0.250000X0.275000X0.250000X-0.275000X0.250000X0*%
%TD*%
%TA.AperFunction,SMDPad,CuDef*%
%ADD36RoundRect,0.250000X-0.850000X-0.275000X0.850000X-0.275000X0.850000X0.275000X-0.850000X0.275000X0*%
%TD*%
%TA.AperFunction,SMDPad,CuDef*%
%ADD37RoundRect,0.150000X-0.150000X-0.400000X0.150000X-0.400000X0.150000X0.400000X-0.150000X0.400000X0*%
%TD*%
%TA.AperFunction,SMDPad,CuDef*%
%ADD38RoundRect,0.225000X0.225000X0.250000X-0.225000X0.250000X-0.225000X-0.250000X0.225000X-0.250000X0*%
%TD*%
%TA.AperFunction,SMDPad,CuDef*%
%ADD39RoundRect,0.150000X-0.425000X0.150000X-0.425000X-0.150000X0.425000X-0.150000X0.425000X0.150000X0*%
%TD*%
%TA.AperFunction,SMDPad,CuDef*%
%ADD40RoundRect,0.075000X-0.500000X0.075000X-0.500000X-0.075000X0.500000X-0.075000X0.500000X0.075000X0*%
%TD*%
%TA.AperFunction,HeatsinkPad*%
%ADD41O,2.100000X1.000000*%
%TD*%
%TA.AperFunction,HeatsinkPad*%
%ADD42O,1.800000X1.000000*%
%TD*%
%TA.AperFunction,SMDPad,CuDef*%
%ADD43RoundRect,0.225000X-0.225000X-0.250000X0.225000X-0.250000X0.225000X0.250000X-0.225000X0.250000X0*%
%TD*%
%TA.AperFunction,ViaPad*%
%ADD44C,0.900000*%
%TD*%
%TA.AperFunction,ViaPad*%
%ADD45C,0.700000*%
%TD*%
%TA.AperFunction,Conductor*%
%ADD46C,0.500000*%
%TD*%
%TA.AperFunction,Conductor*%
%ADD47C,0.200000*%
%TD*%
%TA.AperFunction,Conductor*%
%ADD48C,0.289700*%
%TD*%
G04 APERTURE END LIST*
D10*
%TO.P,R5,1*%
%TO.N,/UART_TX*%
X159300000Y-107200000D03*
%TO.P,R5,2*%
%TO.N,/UART_TX_C*%
X159300000Y-108220000D03*
%TD*%
D11*
%TO.P,U1,1,VBAT*%
%TO.N,+3V3*%
X153150000Y-105837500D03*
%TO.P,U1,2,PC14*%
%TO.N,Net-(U1-PC14)*%
X153650000Y-105837500D03*
%TO.P,U1,3,PC15*%
%TO.N,Net-(U1-PC15)*%
X154150000Y-105837500D03*
%TO.P,U1,4,PH3*%
%TO.N,/BOOT0*%
X154650000Y-105837500D03*
%TO.P,U1,5,PB8*%
%TO.N,unconnected-(U1-PB8-Pad5)*%
X155150000Y-105837500D03*
%TO.P,U1,6,PB9*%
%TO.N,unconnected-(U1-PB9-Pad6)*%
X155650000Y-105837500D03*
%TO.P,U1,7,NRST*%
%TO.N,/SWD_NRST*%
X156150000Y-105837500D03*
%TO.P,U1,8,VDDA*%
%TO.N,+3V3*%
X156650000Y-105837500D03*
%TO.P,U1,9,PA0*%
%TO.N,unconnected-(U1-PA0-Pad9)*%
X157150000Y-105837500D03*
%TO.P,U1,10,PA1*%
%TO.N,unconnected-(U1-PA1-Pad10)*%
X157650000Y-105837500D03*
%TO.P,U1,11,PA2*%
%TO.N,/UART_TX*%
X158150000Y-105837500D03*
%TO.P,U1,12,PA3*%
%TO.N,/UART_RX*%
X158650000Y-105837500D03*
D12*
%TO.P,U1,13,PA4*%
%TO.N,unconnected-(U1-PA4-Pad13)*%
X159337500Y-105150000D03*
%TO.P,U1,14,PA5*%
%TO.N,unconnected-(U1-PA5-Pad14)*%
X159337500Y-104650000D03*
%TO.P,U1,15,PA6*%
%TO.N,unconnected-(U1-PA6-Pad15)*%
X159337500Y-104150000D03*
%TO.P,U1,16,PA7*%
%TO.N,unconnected-(U1-PA7-Pad16)*%
X159337500Y-103650000D03*
%TO.P,U1,17,PA8*%
%TO.N,unconnected-(U1-PA8-Pad17)*%
X159337500Y-103150000D03*
%TO.P,U1,18,PA9*%
%TO.N,unconnected-(U1-PA9-Pad18)*%
X159337500Y-102650000D03*
%TO.P,U1,19,PB2*%
%TO.N,unconnected-(U1-PB2-Pad19)*%
X159337500Y-102150000D03*
%TO.P,U1,20,VDD*%
%TO.N,+3V3*%
X159337500Y-101650000D03*
%TO.P,U1,21,RF1*%
%TO.N,/RF_Match*%
X159337500Y-101150000D03*
%TO.P,U1,22,VSSRF*%
%TO.N,GND*%
X159337500Y-100650000D03*
%TO.P,U1,23,VDDRF*%
%TO.N,+3V3*%
X159337500Y-100150000D03*
%TO.P,U1,24,OSC_OUT*%
%TO.N,/HSE_OUT*%
X159337500Y-99650000D03*
D11*
%TO.P,U1,25,OSC_IN*%
%TO.N,/HSE_IN*%
X158650000Y-98962500D03*
%TO.P,U1,26,AT0*%
%TO.N,unconnected-(U1-AT0-Pad26)*%
X158150000Y-98962500D03*
%TO.P,U1,27,AT1*%
%TO.N,unconnected-(U1-AT1-Pad27)*%
X157650000Y-98962500D03*
%TO.P,U1,28,PB0*%
%TO.N,unconnected-(U1-PB0-Pad28)*%
X157150000Y-98962500D03*
%TO.P,U1,29,PB1*%
%TO.N,unconnected-(U1-PB1-Pad29)*%
X156650000Y-98962500D03*
%TO.P,U1,30,PE4*%
%TO.N,unconnected-(U1-PE4-Pad30)*%
X156150000Y-98962500D03*
%TO.P,U1,31,VFBSMPS*%
%TO.N,/SMPVFB*%
X155650000Y-98962500D03*
%TO.P,U1,32,VSSSMPS*%
%TO.N,GND*%
X155150000Y-98962500D03*
%TO.P,U1,33,VLXSMPS*%
%TO.N,/SMPSLX*%
X154650000Y-98962500D03*
%TO.P,U1,34,VDDSMPS*%
%TO.N,+3V3*%
X154150000Y-98962500D03*
%TO.P,U1,35,VDD*%
X153650000Y-98962500D03*
%TO.P,U1,36,PA10*%
%TO.N,unconnected-(U1-PA10-Pad36)*%
X153150000Y-98962500D03*
D12*
%TO.P,U1,37,PA11*%
%TO.N,/USB_D-*%
X152462500Y-99650000D03*
%TO.P,U1,38,PA12*%
%TO.N,/USB_D+*%
X152462500Y-100150000D03*
%TO.P,U1,39,PA13*%
%TO.N,/SWD_IO*%
X152462500Y-100650000D03*
%TO.P,U1,40,VDDUSB*%
%TO.N,+3V3*%
X152462500Y-101150000D03*
%TO.P,U1,41,PA14*%
%TO.N,/SWD_CLK*%
X152462500Y-101650000D03*
%TO.P,U1,42,PA15*%
%TO.N,unconnected-(U1-PA15-Pad42)*%
X152462500Y-102150000D03*
%TO.P,U1,43,PB3*%
%TO.N,Net-(J2-SWO)*%
X152462500Y-102650000D03*
%TO.P,U1,44,PB4*%
%TO.N,unconnected-(U1-PB4-Pad44)*%
X152462500Y-103150000D03*
%TO.P,U1,45,PB5*%
%TO.N,unconnected-(U1-PB5-Pad45)*%
X152462500Y-103650000D03*
%TO.P,U1,46,PB6*%
%TO.N,unconnected-(U1-PB6-Pad46)*%
X152462500Y-104150000D03*
%TO.P,U1,47,PB7*%
%TO.N,/LED*%
X152462500Y-104650000D03*
%TO.P,U1,48,VDD*%
%TO.N,+3V3*%
X152462500Y-105150000D03*
D13*
%TO.P,U1,49,VSS*%
%TO.N,GND*%
X155900000Y-102400000D03*
%TD*%
D14*
%TO.P,R2,1*%
%TO.N,Net-(R2-Pad1)*%
X173030000Y-107400000D03*
%TO.P,R2,2*%
%TO.N,/BOOT0*%
X174050000Y-107400000D03*
%TD*%
D15*
%TO.P,L1,1,1*%
%TO.N,/SMPVFB*%
X156775000Y-95050000D03*
%TO.P,L1,2,2*%
%TO.N,/SMPSLX*%
X154650000Y-95050000D03*
%TD*%
D16*
%TO.P,U3,1,VIN*%
%TO.N,Net-(U2-VBUS)*%
X132175000Y-105850000D03*
%TO.P,U3,2,GND*%
%TO.N,GND*%
X132175000Y-106800000D03*
%TO.P,U3,3,EN*%
%TO.N,Net-(U2-VBUS)*%
X132175000Y-107750000D03*
%TO.P,U3,4,NC*%
%TO.N,unconnected-(U3-NC-Pad4)*%
X134450000Y-107750000D03*
%TO.P,U3,5,VOUT*%
%TO.N,+3V3*%
X134450000Y-105850000D03*
%TD*%
D17*
%TO.P,L3,1,1*%
%TO.N,/RF_Filter*%
X164010000Y-101200000D03*
%TO.P,L3,2,2*%
%TO.N,/RF_Match*%
X163040000Y-101200000D03*
%TD*%
D18*
%TO.P,C1,1*%
%TO.N,+3V3*%
X148550000Y-105250000D03*
%TO.P,C1,2*%
%TO.N,GND*%
X148550000Y-106800000D03*
%TD*%
D19*
%TO.P,C4,1*%
%TO.N,+3V3*%
X153450000Y-97500000D03*
%TO.P,C4,2*%
%TO.N,GND*%
X152490000Y-97500000D03*
%TD*%
D20*
%TO.P,D1,1,K*%
%TO.N,Net-(D1-K)*%
X150130000Y-104050000D03*
%TO.P,D1,2,A*%
%TO.N,/LED*%
X151100000Y-104050000D03*
%TD*%
D21*
%TO.P,SW1,1,1*%
%TO.N,+3V3*%
X163600000Y-107350000D03*
%TO.P,SW1,2,2*%
%TO.N,Net-(R2-Pad1)*%
X171400000Y-107350000D03*
%TD*%
D22*
%TO.P,Y1,1,1*%
%TO.N,/HSE_OUT*%
X161650000Y-97350000D03*
%TO.P,Y1,2,G*%
%TO.N,GND*%
X161650000Y-95950000D03*
%TO.P,Y1,3,3*%
%TO.N,/HSE_IN*%
X160550000Y-95950000D03*
%TO.P,Y1,4,G*%
%TO.N,GND*%
X160550000Y-97350000D03*
%TD*%
D19*
%TO.P,C15,1*%
%TO.N,GND*%
X142100000Y-107700000D03*
%TO.P,C15,2*%
%TO.N,/SWD_NRST*%
X141140000Y-107700000D03*
%TD*%
D23*
%TO.P,C5,1*%
%TO.N,+3V3*%
X149950000Y-105330000D03*
%TO.P,C5,2*%
%TO.N,GND*%
X149950000Y-106290000D03*
%TD*%
%TO.P,C14,1*%
%TO.N,/RF_Filter*%
X165060000Y-101150000D03*
%TO.P,C14,2*%
%TO.N,GND*%
X165060000Y-102110000D03*
%TD*%
D18*
%TO.P,C18,1*%
%TO.N,+3V3*%
X136250000Y-105875000D03*
%TO.P,C18,2*%
%TO.N,GND*%
X136250000Y-107425000D03*
%TD*%
D24*
%TO.P,FID3,*%
%TO.N,*%
X171500000Y-115950000D03*
%TD*%
D23*
%TO.P,C13,1*%
%TO.N,/RF_Match*%
X161950000Y-101200000D03*
%TO.P,C13,2*%
%TO.N,GND*%
X161950000Y-102160000D03*
%TD*%
D24*
%TO.P,FID2,*%
%TO.N,*%
X171500000Y-94450000D03*
%TD*%
D25*
%TO.P,H3,1,1*%
%TO.N,GND*%
X121900000Y-114900000D03*
X122383274Y-113733274D03*
X122383274Y-116066726D03*
X123550000Y-113250000D03*
D26*
X123550000Y-114900000D03*
D25*
X123550000Y-116550000D03*
X124716726Y-113733274D03*
X124716726Y-116066726D03*
X125200000Y-114900000D03*
%TD*%
D14*
%TO.P,R3,1*%
%TO.N,Net-(J3-CC2)*%
X126750000Y-109550000D03*
%TO.P,R3,2*%
%TO.N,GND*%
X127770000Y-109550000D03*
%TD*%
D23*
%TO.P,C9,1*%
%TO.N,+3V3*%
X161000000Y-99200000D03*
%TO.P,C9,2*%
%TO.N,GND*%
X161000000Y-100160000D03*
%TD*%
D27*
%TO.P,L2,1,1*%
%TO.N,/SMPSLX*%
X154650000Y-97550000D03*
%TO.P,L2,2,2*%
X154650000Y-96580000D03*
%TD*%
D19*
%TO.P,C19,1*%
%TO.N,+3V3*%
X151000000Y-101150000D03*
%TO.P,C19,2*%
%TO.N,GND*%
X150040000Y-101150000D03*
%TD*%
D28*
%TO.P,FLT1,1,IN*%
%TO.N,/RF_Filter*%
X166240000Y-101120000D03*
D29*
%TO.P,FLT1,2,GND*%
%TO.N,GND*%
X166850000Y-100890000D03*
D28*
%TO.P,FLT1,3,OUT*%
%TO.N,/RF_Connector*%
X167460000Y-101120000D03*
D29*
%TO.P,FLT1,4,GND*%
%TO.N,GND*%
X166850000Y-101350000D03*
%TD*%
D19*
%TO.P,C8,1*%
%TO.N,+3V3*%
X153450000Y-96350000D03*
%TO.P,C8,2*%
%TO.N,GND*%
X152490000Y-96350000D03*
%TD*%
D30*
%TO.P,R4,1*%
%TO.N,Net-(J3-CC1)*%
X128460000Y-97150000D03*
%TO.P,R4,2*%
%TO.N,GND*%
X127440000Y-97150000D03*
%TD*%
D31*
%TO.P,J4,1,Pin_1*%
%TO.N,+3V3*%
X157225000Y-113250000D03*
D32*
%TO.P,J4,2,Pin_2*%
%TO.N,/UART_TX_C*%
X158475000Y-113250000D03*
%TO.P,J4,3,Pin_3*%
%TO.N,/UART_RX_C*%
X159725000Y-113250000D03*
%TO.P,J4,4,Pin_4*%
%TO.N,GND*%
X160975000Y-113250000D03*
%TD*%
D33*
%TO.P,C12,1*%
%TO.N,Net-(U1-PC15)*%
X154320000Y-107350000D03*
%TO.P,C12,2*%
%TO.N,GND*%
X155280000Y-107350000D03*
%TD*%
D19*
%TO.P,C11,1*%
%TO.N,Net-(U1-PC14)*%
X153180000Y-107350000D03*
%TO.P,C11,2*%
%TO.N,GND*%
X152220000Y-107350000D03*
%TD*%
D10*
%TO.P,R1,1*%
%TO.N,/BOOT0*%
X176300000Y-107400000D03*
%TO.P,R1,2*%
%TO.N,GND*%
X176300000Y-108420000D03*
%TD*%
D16*
%TO.P,U2,1,I/O1*%
%TO.N,/USB_C_D-*%
X132975000Y-98400000D03*
%TO.P,U2,2,GND*%
%TO.N,GND*%
X132975000Y-99350000D03*
%TO.P,U2,3,I/O2*%
%TO.N,/USB_C_D+*%
X132975000Y-100300000D03*
%TO.P,U2,4,I/O2*%
%TO.N,/USB_D+*%
X135250000Y-100300000D03*
%TO.P,U2,5,VBUS*%
%TO.N,Net-(U2-VBUS)*%
X135250000Y-99350000D03*
%TO.P,U2,6,I/O1*%
%TO.N,/USB_D-*%
X135250000Y-98400000D03*
%TD*%
D24*
%TO.P,FID1,*%
%TO.N,*%
X128150000Y-115650000D03*
%TD*%
D34*
%TO.P,J2,1,VCC*%
%TO.N,+3V3*%
X141200000Y-101760000D03*
%TO.P,J2,2,SWDIO*%
%TO.N,/SWD_IO*%
X142470000Y-101760000D03*
%TO.P,J2,3,~{RESET}*%
%TO.N,/SWD_NRST*%
X141200000Y-103030000D03*
%TO.P,J2,4,SWCLK*%
%TO.N,/SWD_CLK*%
X142470000Y-103030000D03*
%TO.P,J2,5,GND*%
%TO.N,GND*%
X141200000Y-104300000D03*
%TO.P,J2,6,SWO*%
%TO.N,Net-(J2-SWO)*%
X142470000Y-104300000D03*
%TD*%
D35*
%TO.P,J1,1,In*%
%TO.N,/RF_Connector*%
X169120000Y-101250000D03*
D36*
%TO.P,J1,2,Ext*%
%TO.N,GND*%
X170645000Y-99775000D03*
X170645000Y-102725000D03*
%TD*%
D25*
%TO.P,H4,1,1*%
%TO.N,GND*%
X174166726Y-114783274D03*
X174650000Y-113616548D03*
X174650000Y-115950000D03*
X175816726Y-113133274D03*
D26*
X175816726Y-114783274D03*
D25*
X175816726Y-116433274D03*
X176983452Y-113616548D03*
X176983452Y-115950000D03*
X177466726Y-114783274D03*
%TD*%
D37*
%TO.P,Y2,1,1*%
%TO.N,Net-(U1-PC14)*%
X152700000Y-109700000D03*
%TO.P,Y2,2,2*%
%TO.N,Net-(U1-PC15)*%
X154100000Y-109700000D03*
%TD*%
D18*
%TO.P,C17,1*%
%TO.N,Net-(U2-VBUS)*%
X130200000Y-105900000D03*
%TO.P,C17,2*%
%TO.N,GND*%
X130200000Y-107450000D03*
%TD*%
D23*
%TO.P,C16,1*%
%TO.N,/BOOT0*%
X175150000Y-107400000D03*
%TO.P,C16,2*%
%TO.N,GND*%
X175150000Y-108360000D03*
%TD*%
%TO.P,C2,1*%
%TO.N,+3V3*%
X151100000Y-105300000D03*
%TO.P,C2,2*%
%TO.N,GND*%
X151100000Y-106260000D03*
%TD*%
D25*
%TO.P,H2,1,1*%
%TO.N,GND*%
X174233274Y-95683274D03*
X174716548Y-94516548D03*
X174716548Y-96850000D03*
X175883274Y-94033274D03*
D26*
X175883274Y-95683274D03*
D25*
X175883274Y-97333274D03*
X177050000Y-94516548D03*
X177050000Y-96850000D03*
X177533274Y-95683274D03*
%TD*%
D23*
%TO.P,C3,1*%
%TO.N,+3V3*%
X160700000Y-101950000D03*
%TO.P,C3,2*%
%TO.N,GND*%
X160700000Y-102910000D03*
%TD*%
D30*
%TO.P,R7,1*%
%TO.N,Net-(D1-K)*%
X148850000Y-103850000D03*
%TO.P,R7,2*%
%TO.N,GND*%
X147830000Y-103850000D03*
%TD*%
D25*
%TO.P,H1,1,1*%
%TO.N,GND*%
X122250000Y-95500000D03*
X122733274Y-94333274D03*
X122733274Y-96666726D03*
X123900000Y-93850000D03*
D26*
X123900000Y-95500000D03*
D25*
X123900000Y-97150000D03*
X125066726Y-94333274D03*
X125066726Y-96666726D03*
X125550000Y-95500000D03*
%TD*%
D38*
%TO.P,C7,1*%
%TO.N,+3V3*%
X153100000Y-94950000D03*
%TO.P,C7,2*%
%TO.N,GND*%
X151550000Y-94950000D03*
%TD*%
D39*
%TO.P,J3,A1,GND*%
%TO.N,GND*%
X128040000Y-100300000D03*
%TO.P,J3,A4,VBUS*%
%TO.N,Net-(U2-VBUS)*%
X128040000Y-101100000D03*
D40*
%TO.P,J3,A5,CC1*%
%TO.N,Net-(J3-CC1)*%
X128040000Y-102250000D03*
%TO.P,J3,A6,D+*%
%TO.N,/USB_C_D+*%
X128040000Y-103250000D03*
%TO.P,J3,A7,D-*%
%TO.N,/USB_C_D-*%
X128040000Y-103750000D03*
%TO.P,J3,A8,SBU1*%
%TO.N,unconnected-(J3-SBU1-PadA8)*%
X128040000Y-104750000D03*
D39*
%TO.P,J3,A9,VBUS*%
%TO.N,Net-(U2-VBUS)*%
X128040000Y-105900000D03*
%TO.P,J3,A12,GND*%
%TO.N,GND*%
X128040000Y-106700000D03*
%TO.P,J3,B1,GND*%
X128040000Y-106700000D03*
%TO.P,J3,B4,VBUS*%
%TO.N,Net-(U2-VBUS)*%
X128040000Y-105900000D03*
D40*
%TO.P,J3,B5,CC2*%
%TO.N,Net-(J3-CC2)*%
X128040000Y-105250000D03*
%TO.P,J3,B6,D+*%
%TO.N,/USB_C_D+*%
X128040000Y-104250000D03*
%TO.P,J3,B7,D-*%
%TO.N,/USB_C_D-*%
X128040000Y-102750000D03*
%TO.P,J3,B8,SBU2*%
%TO.N,unconnected-(J3-SBU2-PadB8)*%
X128040000Y-101750000D03*
D39*
%TO.P,J3,B9,VBUS*%
%TO.N,Net-(U2-VBUS)*%
X128040000Y-101100000D03*
%TO.P,J3,B12,GND*%
%TO.N,GND*%
X128040000Y-100300000D03*
D41*
%TO.P,J3,S1,SHIELD*%
X127465000Y-99180000D03*
D42*
X123285000Y-99180000D03*
D41*
X127465000Y-107820000D03*
D42*
X123285000Y-107820000D03*
%TD*%
D10*
%TO.P,R6,1*%
%TO.N,/UART_RX*%
X160400000Y-107200000D03*
%TO.P,R6,2*%
%TO.N,/UART_RX_C*%
X160400000Y-108220000D03*
%TD*%
D23*
%TO.P,C6,1*%
%TO.N,+3V3*%
X158100000Y-107200000D03*
%TO.P,C6,2*%
%TO.N,GND*%
X158100000Y-108160000D03*
%TD*%
D43*
%TO.P,C10,1*%
%TO.N,/SMPVFB*%
X156900000Y-96800000D03*
%TO.P,C10,2*%
%TO.N,GND*%
X158450000Y-96800000D03*
%TD*%
D44*
%TO.N,GND*%
X141000000Y-116000000D03*
X127000000Y-94000000D03*
D45*
X127450000Y-96370000D03*
D44*
X122000000Y-103000000D03*
X166000000Y-98000000D03*
X137000000Y-114000000D03*
D45*
X150600000Y-95400000D03*
D44*
X135000000Y-111000000D03*
X131000000Y-115000000D03*
X153000000Y-114000000D03*
X149000000Y-109000000D03*
X174000000Y-102000000D03*
X155000000Y-114000000D03*
D45*
X170700000Y-104050000D03*
D44*
X145000000Y-94000000D03*
X159000000Y-94000000D03*
D45*
X159000000Y-95800000D03*
D44*
X149000000Y-96000000D03*
X139000000Y-96000000D03*
X164000000Y-98000000D03*
X151000000Y-110000000D03*
X174000000Y-100000000D03*
X166000000Y-96000000D03*
X166000000Y-94000000D03*
D45*
X155900000Y-100200000D03*
D44*
X122000000Y-105000000D03*
X168000000Y-96000000D03*
X147000000Y-116000000D03*
D45*
X152200000Y-106590000D03*
X155900000Y-104550000D03*
D44*
X133000000Y-94000000D03*
X145022922Y-113969933D03*
X168000000Y-105000000D03*
X174000000Y-104000000D03*
D45*
X157050000Y-101250000D03*
X158050000Y-104550000D03*
D44*
X167000000Y-114000000D03*
X133000000Y-113000000D03*
D45*
X153700000Y-100200000D03*
X149000000Y-107700000D03*
X149950000Y-107050000D03*
D44*
X168000000Y-98000000D03*
X155000000Y-116000000D03*
D45*
X157050000Y-103350000D03*
D44*
X151000000Y-114000000D03*
X141000000Y-96000000D03*
X123000000Y-110000000D03*
D45*
X171600000Y-104050000D03*
D44*
X122000000Y-101000000D03*
X163000000Y-116000000D03*
X143000000Y-116000000D03*
D45*
X154900000Y-103300000D03*
D44*
X139000000Y-116000000D03*
X131000000Y-113000000D03*
X135000000Y-113000000D03*
X139000000Y-114000000D03*
D45*
X170000000Y-98450000D03*
X166850000Y-100050000D03*
D44*
X145000000Y-96000000D03*
D45*
X170750000Y-98450000D03*
D44*
X139000000Y-94000000D03*
X161000000Y-116000000D03*
X143000000Y-94000000D03*
X125000000Y-112000000D03*
X133000000Y-115000000D03*
X145000000Y-110000000D03*
X162000000Y-94000000D03*
X124000000Y-105000000D03*
X135000000Y-94000000D03*
X147000000Y-109000000D03*
X167000000Y-116000000D03*
D45*
X176300000Y-109170000D03*
D44*
X145000000Y-108000000D03*
X165000000Y-112000000D03*
X176000000Y-104000000D03*
X143000000Y-114000000D03*
D45*
X171500000Y-98450000D03*
X166860000Y-102230000D03*
D44*
X145000000Y-116000000D03*
X164000000Y-96000000D03*
X169000000Y-107000000D03*
X129000000Y-112000000D03*
D45*
X162000000Y-103050000D03*
X160700000Y-103760000D03*
D44*
X149000000Y-94000000D03*
X174000000Y-112000000D03*
D45*
X148200000Y-107700000D03*
D44*
X178000000Y-104000000D03*
D45*
X161900000Y-112850000D03*
D44*
X137000000Y-116000000D03*
D45*
X142880000Y-107700000D03*
X130700000Y-108450000D03*
D44*
X137000000Y-96000000D03*
X166000000Y-105000000D03*
X143000000Y-96000000D03*
D45*
X131800000Y-99350000D03*
D44*
X168000000Y-94000000D03*
X147000000Y-94000000D03*
X137000000Y-94000000D03*
X135000000Y-115000000D03*
X176000000Y-102000000D03*
D45*
X153650000Y-102350000D03*
X154850000Y-101250000D03*
D44*
X167000000Y-112000000D03*
X157000000Y-116000000D03*
D45*
X151690000Y-97500000D03*
D44*
X127000000Y-112000000D03*
X176000000Y-100000000D03*
D45*
X153650000Y-104550000D03*
X128570000Y-109550000D03*
X175150000Y-109170000D03*
X151690000Y-96350000D03*
D44*
X151000000Y-116000000D03*
D45*
X158050000Y-100100000D03*
X158100000Y-108960000D03*
D44*
X171000000Y-113000000D03*
X137000000Y-111000000D03*
X153000000Y-116000000D03*
X135000000Y-96000000D03*
X141000000Y-94000000D03*
X178000000Y-102000000D03*
X147000000Y-114000000D03*
X159000000Y-116000000D03*
X131000000Y-94000000D03*
D45*
X155300000Y-108100000D03*
D44*
X131000000Y-96000000D03*
X129000000Y-94000000D03*
X149016241Y-113969933D03*
X149000000Y-116000000D03*
X124000000Y-101000000D03*
D45*
X149270000Y-101150000D03*
D44*
X169000000Y-115000000D03*
D45*
X169850000Y-104050000D03*
D44*
X123000000Y-112000000D03*
X165000000Y-116000000D03*
D45*
X147150000Y-103800000D03*
D44*
X141000000Y-114000000D03*
D45*
X164850000Y-102960000D03*
X158250000Y-95800000D03*
X158050000Y-102400000D03*
D44*
X133000000Y-111000000D03*
X165000000Y-114000000D03*
X166000000Y-107000000D03*
D45*
X161810000Y-100180000D03*
D44*
X178000000Y-100000000D03*
X164000000Y-94000000D03*
X139000000Y-109000000D03*
X125000000Y-110000000D03*
D45*
X129850000Y-108450000D03*
D44*
X147000000Y-96000000D03*
D45*
X150600000Y-94600000D03*
X136700000Y-108400000D03*
X139650000Y-105550000D03*
X161900000Y-113750000D03*
X155336952Y-108978254D03*
D44*
X131000000Y-111000000D03*
D45*
X162150000Y-111000000D03*
D44*
X139000000Y-111000000D03*
X133000000Y-96000000D03*
D45*
X151100000Y-107130000D03*
X135850000Y-108400000D03*
%TO.N,/BOOT0*%
X155800000Y-109750000D03*
X161500000Y-110100000D03*
%TO.N,+3V3*%
X136600000Y-104975000D03*
X161700000Y-103950000D03*
X162350000Y-107900000D03*
X150767891Y-102011797D03*
X135850000Y-104950000D03*
X141000000Y-99550000D03*
X162350000Y-106850000D03*
X147500000Y-104900000D03*
X152850000Y-93900000D03*
X147500000Y-105700000D03*
X161850000Y-99180000D03*
X153600000Y-93900000D03*
X157350000Y-107200000D03*
%TD*%
D46*
%TO.N,GND*%
X176300000Y-108470000D02*
X176300000Y-109230000D01*
X152200000Y-107350000D02*
X152200000Y-106590000D01*
X175150000Y-108410000D02*
X175150000Y-109170000D01*
D47*
X155150000Y-98962500D02*
X155150000Y-101650000D01*
X166850000Y-102220000D02*
X166860000Y-102230000D01*
X161000000Y-100650000D02*
X161000000Y-100160000D01*
D46*
X161050000Y-100180000D02*
X161810000Y-100180000D01*
X152450000Y-97500000D02*
X151690000Y-97500000D01*
X162000000Y-103050000D02*
X162000000Y-102200000D01*
X151100000Y-106370000D02*
X151100000Y-107130000D01*
X164850000Y-102200000D02*
X164850000Y-102960000D01*
X127450000Y-97130000D02*
X127450000Y-96370000D01*
X147900000Y-103830000D02*
X147180000Y-103830000D01*
X160700000Y-103000000D02*
X160700000Y-103760000D01*
X161990000Y-102200000D02*
X161950000Y-102160000D01*
X149950000Y-106290000D02*
X149950000Y-107050000D01*
X127810000Y-109550000D02*
X128570000Y-109550000D01*
X150030000Y-101150000D02*
X149270000Y-101150000D01*
D47*
X155150000Y-101650000D02*
X155900000Y-102400000D01*
X166850000Y-101350000D02*
X166850000Y-102220000D01*
D46*
X147180000Y-103830000D02*
X147150000Y-103800000D01*
D47*
X159337500Y-100650000D02*
X161000000Y-100650000D01*
D46*
X155300000Y-107350000D02*
X155300000Y-108100000D01*
D47*
X166850000Y-100890000D02*
X166850000Y-100050000D01*
D46*
X142120000Y-107700000D02*
X142880000Y-107700000D01*
X152450000Y-96350000D02*
X151690000Y-96350000D01*
X158100000Y-108200000D02*
X158100000Y-108960000D01*
%TO.N,/SMPSLX*%
X154650000Y-96580000D02*
X154650000Y-97550000D01*
X154650000Y-97550000D02*
X154650000Y-98300000D01*
D47*
X154650000Y-98962500D02*
X154650000Y-98500000D01*
D46*
X154650000Y-96580000D02*
X154650000Y-95050000D01*
D47*
%TO.N,Net-(U1-PC14)*%
X152700000Y-109700000D02*
X152700000Y-108300000D01*
X153120000Y-107880000D02*
X153120000Y-107410000D01*
X153650000Y-106400000D02*
X153180000Y-106870000D01*
X153180000Y-106870000D02*
X153180000Y-107350000D01*
X152700000Y-108300000D02*
X153120000Y-107880000D01*
X153120000Y-107410000D02*
X153180000Y-107350000D01*
X153650000Y-105837500D02*
X153650000Y-106400000D01*
%TO.N,Net-(U1-PC15)*%
X154100000Y-108710000D02*
X154100000Y-109700000D01*
X154320000Y-108490000D02*
X154100000Y-108710000D01*
X154320000Y-106720000D02*
X154320000Y-107350000D01*
X154320000Y-107350000D02*
X154320000Y-107970000D01*
X154320000Y-107970000D02*
X154320000Y-108490000D01*
X154150000Y-106550000D02*
X154320000Y-106720000D01*
X154150000Y-105837500D02*
X154150000Y-106550000D01*
D48*
%TO.N,/RF_Match*%
X160450000Y-101200000D02*
X161950000Y-101200000D01*
X160100000Y-101150000D02*
X160400000Y-101150000D01*
X163040000Y-101200000D02*
X161950000Y-101200000D01*
X161874150Y-101124150D02*
X161950000Y-101200000D01*
X160400000Y-101150000D02*
X160450000Y-101200000D01*
D47*
X159337500Y-101150000D02*
X160100000Y-101150000D01*
D48*
%TO.N,/RF_Filter*%
X164010000Y-101200000D02*
X165010000Y-101200000D01*
X166124150Y-101150000D02*
X166154150Y-101120000D01*
X165010000Y-101200000D02*
X165060000Y-101150000D01*
X165060000Y-101150000D02*
X166124150Y-101150000D01*
D47*
%TO.N,/SWD_NRST*%
X140296550Y-102126550D02*
X138657753Y-102126550D01*
X156150000Y-105837500D02*
X156150000Y-106381346D01*
X140860001Y-107700000D02*
X141140000Y-107700000D01*
X137756550Y-103027753D02*
X137756550Y-104596549D01*
X156450000Y-106681346D02*
X156450000Y-110250000D01*
X156450000Y-110250000D02*
X155400000Y-111300000D01*
X138657753Y-102126550D02*
X137756550Y-103027753D01*
X141200000Y-103030000D02*
X140296550Y-102126550D01*
X137756550Y-104596549D02*
X140860001Y-107700000D01*
X156150000Y-106381346D02*
X156450000Y-106681346D01*
X143400000Y-111300000D02*
X141140000Y-109040000D01*
X155400000Y-111300000D02*
X143400000Y-111300000D01*
X141140000Y-109040000D02*
X141140000Y-107700000D01*
%TO.N,/BOOT0*%
X161500000Y-110100000D02*
X176450000Y-110100000D01*
X176450000Y-110100000D02*
X177400000Y-109150000D01*
X156050000Y-107182450D02*
X156050000Y-109700000D01*
X177400000Y-109150000D02*
X177400000Y-107400000D01*
X155443550Y-106576000D02*
X156050000Y-107182450D01*
X154826000Y-106576000D02*
X155443550Y-106576000D01*
X174050000Y-107400000D02*
X175150000Y-107400000D01*
X176300000Y-107400000D02*
X175150000Y-107400000D01*
X154650000Y-105837500D02*
X154650000Y-106400000D01*
X156050000Y-109700000D02*
X156000000Y-109750000D01*
X177400000Y-107400000D02*
X176300000Y-107400000D01*
X156000000Y-109750000D02*
X155800000Y-109750000D01*
X154650000Y-106400000D02*
X154826000Y-106576000D01*
D46*
%TO.N,Net-(U2-VBUS)*%
X128040000Y-105900000D02*
X130200000Y-105900000D01*
X133300000Y-107750000D02*
X132175000Y-107750000D01*
X129293339Y-98406661D02*
X130051000Y-97649000D01*
X133740600Y-97649000D02*
X134136500Y-98044900D01*
X130051000Y-97649000D02*
X133740600Y-97649000D01*
X130200000Y-105900000D02*
X132125000Y-105900000D01*
X132125000Y-105900000D02*
X132175000Y-105850000D01*
X132175000Y-105075000D02*
X132175000Y-105850000D01*
X134300000Y-99350000D02*
X135250000Y-99350000D01*
X134088500Y-103161500D02*
X132175000Y-105075000D01*
X128850000Y-101100000D02*
X129293339Y-100656661D01*
X132175000Y-105850000D02*
X133250000Y-105850000D01*
X133250000Y-105850000D02*
X133300000Y-105900000D01*
X128040000Y-101100000D02*
X128850000Y-101100000D01*
X133300000Y-105900000D02*
X133300000Y-107750000D01*
X134300000Y-99350000D02*
X134088500Y-99561500D01*
X129293339Y-100656661D02*
X129293339Y-98406661D01*
X134136500Y-98044900D02*
X134136500Y-99186500D01*
X134088500Y-99561500D02*
X134088500Y-103161500D01*
X134136500Y-99186500D02*
X134300000Y-99350000D01*
D47*
%TO.N,/LED*%
X152462500Y-104650000D02*
X151700000Y-104650000D01*
X151700000Y-104650000D02*
X151100000Y-104050000D01*
%TO.N,Net-(D1-K)*%
X149550000Y-103850000D02*
X148850000Y-103850000D01*
X150130000Y-104050000D02*
X149750000Y-104050000D01*
X149750000Y-104050000D02*
X149550000Y-103850000D01*
D48*
%TO.N,/RF_Connector*%
X167545850Y-101150000D02*
X167545850Y-101120000D01*
X168450000Y-101250000D02*
X168350000Y-101150000D01*
X169120000Y-101250000D02*
X168450000Y-101250000D01*
X168350000Y-101150000D02*
X167545850Y-101150000D01*
D47*
%TO.N,/SWD_CLK*%
X149900000Y-102500000D02*
X148250654Y-102500000D01*
X151650000Y-102000000D02*
X151650000Y-102270654D01*
X143373450Y-102126550D02*
X142470000Y-103030000D01*
X151220654Y-102700000D02*
X150100000Y-102700000D01*
X148250654Y-102500000D02*
X147877204Y-102126550D01*
X147877204Y-102126550D02*
X143373450Y-102126550D01*
X152000000Y-101650000D02*
X151650000Y-102000000D01*
X151650000Y-102270654D02*
X151220654Y-102700000D01*
X152462500Y-101650000D02*
X152000000Y-101650000D01*
X150100000Y-102700000D02*
X149900000Y-102500000D01*
%TO.N,+3V3*%
X152462500Y-101150000D02*
X151000000Y-101150000D01*
X163600000Y-107350000D02*
X162850000Y-107350000D01*
D46*
X153100000Y-94400000D02*
X153600000Y-93900000D01*
D47*
X153850000Y-98100000D02*
X153450000Y-98100000D01*
D46*
X153100000Y-95700000D02*
X153100000Y-94950000D01*
X153450000Y-97500000D02*
X153450000Y-96350000D01*
D47*
X160500000Y-99200000D02*
X161000000Y-99200000D01*
X140988700Y-99561300D02*
X141000000Y-99550000D01*
X158100000Y-107200000D02*
X157350000Y-107200000D01*
X140988700Y-101548700D02*
X140988700Y-99561300D01*
D46*
X153100000Y-94950000D02*
X153100000Y-94400000D01*
D47*
X149380000Y-105330000D02*
X149300000Y-105250000D01*
X157535754Y-107200000D02*
X158100000Y-107200000D01*
X162900000Y-107350000D02*
X162350000Y-107900000D01*
X160700000Y-101950000D02*
X161349000Y-102599000D01*
X156650000Y-106314246D02*
X157535754Y-107200000D01*
D46*
X153450000Y-98100000D02*
X153450000Y-97500000D01*
X161090000Y-99180000D02*
X161850000Y-99180000D01*
D47*
X152462500Y-105150000D02*
X151850000Y-105150000D01*
X147950000Y-105250000D02*
X147500000Y-105700000D01*
X154150000Y-98962500D02*
X154150000Y-98579232D01*
X162850000Y-107350000D02*
X162350000Y-106850000D01*
X160300000Y-99800000D02*
X160300000Y-99400000D01*
X154099000Y-98528232D02*
X154099000Y-98349000D01*
X141200000Y-101760000D02*
X140988700Y-101548700D01*
X161349000Y-103599000D02*
X161700000Y-103950000D01*
X154099000Y-98349000D02*
X153850000Y-98100000D01*
X156650000Y-105837500D02*
X156650000Y-106314246D01*
D46*
X153100000Y-94950000D02*
X153100000Y-94150000D01*
D47*
X148550000Y-105250000D02*
X147850000Y-105250000D01*
D46*
X153450000Y-96050000D02*
X153100000Y-95700000D01*
D47*
X147850000Y-105250000D02*
X147500000Y-104900000D01*
X163600000Y-107350000D02*
X162900000Y-107350000D01*
X149950000Y-105330000D02*
X149380000Y-105330000D01*
X149980000Y-105300000D02*
X149950000Y-105330000D01*
X159337500Y-100150000D02*
X159950000Y-100150000D01*
X161349000Y-102599000D02*
X161349000Y-103599000D01*
X151100000Y-105300000D02*
X149980000Y-105300000D01*
X151700000Y-105300000D02*
X151100000Y-105300000D01*
X151850000Y-105150000D02*
X151700000Y-105300000D01*
D46*
X153450000Y-96350000D02*
X153450000Y-96050000D01*
D47*
X153650000Y-98962500D02*
X153650000Y-98300000D01*
X154150000Y-98579232D02*
X154099000Y-98528232D01*
X159950000Y-100150000D02*
X160300000Y-99800000D01*
X153650000Y-98300000D02*
X153450000Y-98100000D01*
X149300000Y-105250000D02*
X148550000Y-105250000D01*
D46*
X151000000Y-101779688D02*
X150767891Y-102011797D01*
X151000000Y-101150000D02*
X151000000Y-101779688D01*
X153100000Y-94150000D02*
X152850000Y-93900000D01*
D47*
X148550000Y-105250000D02*
X147950000Y-105250000D01*
X160300000Y-99400000D02*
X160500000Y-99200000D01*
%TO.N,Net-(J2-SWO)*%
X143697300Y-105219451D02*
X142777849Y-104300000D01*
X144996246Y-105219451D02*
X143697300Y-105219451D01*
X145913450Y-104115896D02*
X145913450Y-104302247D01*
X151837754Y-102650000D02*
X151338754Y-103149000D01*
X151338754Y-103149000D02*
X146880346Y-103149000D01*
X145913450Y-104302247D02*
X144996246Y-105219451D01*
X146880346Y-103149000D02*
X145913450Y-104115896D01*
X152462500Y-102650000D02*
X151837754Y-102650000D01*
X142777849Y-104300000D02*
X142470000Y-104300000D01*
%TO.N,/SWD_IO*%
X152462500Y-100650000D02*
X151437550Y-100650000D01*
X142681300Y-100008003D02*
X142681300Y-101548700D01*
X142681300Y-101548700D02*
X142470000Y-101760000D01*
X146000000Y-99650000D02*
X145150000Y-98800000D01*
X145150000Y-98800000D02*
X143889303Y-98800000D01*
X143889303Y-98800000D02*
X142681300Y-100008003D01*
X151437550Y-100650000D02*
X151287550Y-100500000D01*
X151287550Y-100500000D02*
X146250000Y-100500000D01*
X146250000Y-100500000D02*
X146000000Y-100250000D01*
X146000000Y-100250000D02*
X146000000Y-99650000D01*
%TO.N,Net-(J3-CC1)*%
X125750000Y-99212215D02*
X125750000Y-102300000D01*
X125750000Y-102300000D02*
X125800000Y-102250000D01*
X125800000Y-102250000D02*
X128040000Y-102250000D01*
X127231000Y-98379000D02*
X126583215Y-98379000D01*
X128460000Y-97150000D02*
X127231000Y-98379000D01*
X126583215Y-98379000D02*
X125750000Y-99212215D01*
%TO.N,Net-(J3-CC2)*%
X125500000Y-106898992D02*
X125500000Y-108887925D01*
X126162075Y-109550000D02*
X126750000Y-109550000D01*
X127148992Y-105250000D02*
X125500000Y-106898992D01*
X125500000Y-108887925D02*
X126162075Y-109550000D01*
X128040000Y-105250000D02*
X127148992Y-105250000D01*
%TO.N,/UART_RX_C*%
X160400000Y-110450000D02*
X159725000Y-111125000D01*
X159725000Y-111125000D02*
X159725000Y-113250000D01*
X160400000Y-108220000D02*
X160400000Y-110450000D01*
%TO.N,/UART_TX_C*%
X158475000Y-110975000D02*
X158475000Y-113250000D01*
X159300000Y-108220000D02*
X159300000Y-110150000D01*
X159300000Y-110150000D02*
X158475000Y-110975000D01*
%TO.N,Net-(R2-Pad1)*%
X172350000Y-107350000D02*
X171400000Y-107350000D01*
X173030000Y-107400000D02*
X172400000Y-107400000D01*
X172400000Y-107400000D02*
X172350000Y-107350000D01*
%TO.N,/UART_TX*%
X158150000Y-105837500D02*
X158150000Y-106290798D01*
X159059202Y-107200000D02*
X159300000Y-107200000D01*
X158150000Y-106290798D02*
X159059202Y-107200000D01*
%TO.N,/UART_RX*%
X160400000Y-106650000D02*
X160400000Y-107200000D01*
X160261849Y-106511849D02*
X160400000Y-106650000D01*
X158938151Y-106511849D02*
X160261849Y-106511849D01*
X158650000Y-105837500D02*
X158938151Y-106125651D01*
X158938151Y-106125651D02*
X158938151Y-106511849D01*
%TO.N,/HSE_OUT*%
X161650000Y-98200000D02*
X161650000Y-97350000D01*
X159750000Y-98450000D02*
X161400000Y-98450000D01*
X159337500Y-99650000D02*
X159350000Y-99650000D01*
X161400000Y-98450000D02*
X161650000Y-98200000D01*
X159350000Y-99650000D02*
X159350000Y-98850000D01*
X159350000Y-98850000D02*
X159750000Y-98450000D01*
%TO.N,/HSE_IN*%
X159900000Y-95950000D02*
X160550000Y-95950000D01*
X159600000Y-97300000D02*
X159600000Y-96250000D01*
X158650000Y-98250000D02*
X159600000Y-97300000D01*
X158650000Y-98962500D02*
X158650000Y-98250000D01*
X159600000Y-96250000D02*
X159900000Y-95950000D01*
D48*
%TO.N,/USB_D+*%
X151679150Y-99883376D02*
X151679150Y-99881486D01*
X152433350Y-100179150D02*
X151974924Y-100179150D01*
X152462500Y-100150000D02*
X152433350Y-100179150D01*
X151974924Y-100179150D02*
X151679150Y-99883376D01*
X137680150Y-97869850D02*
X136550000Y-99000000D01*
X136550000Y-99000000D02*
X136550000Y-99950000D01*
X136550000Y-99950000D02*
X136200000Y-100300000D01*
X151679150Y-99881486D02*
X149667514Y-97869850D01*
X136200000Y-100300000D02*
X135250000Y-100300000D01*
X149667514Y-97869850D02*
X137680150Y-97869850D01*
%TO.N,/USB_D-*%
X152462500Y-99508320D02*
X152213456Y-99508320D01*
X137415177Y-97230150D02*
X136245327Y-98400000D01*
X152213456Y-99508320D02*
X149935286Y-97230150D01*
X136245327Y-98400000D02*
X135250000Y-98400000D01*
X149935286Y-97230150D02*
X137415177Y-97230150D01*
D46*
%TO.N,/SMPVFB*%
X156900000Y-96800000D02*
X156900000Y-96350000D01*
X155950000Y-96800000D02*
X156900000Y-96800000D01*
X156900000Y-96350000D02*
X156750000Y-96200000D01*
D47*
X155650000Y-98962500D02*
X155650000Y-97900000D01*
D46*
X156750000Y-96200000D02*
X156775000Y-96175000D01*
X155650000Y-97900000D02*
X155650000Y-97100000D01*
X156775000Y-96175000D02*
X156775000Y-95050000D01*
X155650000Y-97100000D02*
X155950000Y-96800000D01*
D48*
%TO.N,/USB_C_D+*%
X128712250Y-104250000D02*
X129624104Y-103338146D01*
X130219850Y-102059823D02*
X130219850Y-102654254D01*
X129624104Y-103250000D02*
X128040000Y-103250000D01*
X131979673Y-100300000D02*
X130219850Y-102059823D01*
X130219850Y-102654254D02*
X129624104Y-103250000D01*
X129624104Y-103338146D02*
X129624104Y-103250000D01*
X132975000Y-100300000D02*
X131979673Y-100300000D01*
X128040000Y-104250000D02*
X128712250Y-104250000D01*
%TO.N,/USB_C_D-*%
X132138231Y-98704150D02*
X132088231Y-98654150D01*
X127367750Y-103750000D02*
X128040000Y-103750000D01*
X127367750Y-102750000D02*
X127119150Y-102998600D01*
X129580150Y-101794850D02*
X129580150Y-102600000D01*
X129580150Y-102600000D02*
X129430150Y-102750000D01*
X131420459Y-99954541D02*
X129580150Y-101794850D01*
X132975000Y-98400000D02*
X132670850Y-98704150D01*
X131511769Y-98654150D02*
X131104150Y-99061769D01*
X129430150Y-102750000D02*
X128040000Y-102750000D01*
X132670850Y-98704150D02*
X132138231Y-98704150D01*
X131104150Y-99061769D02*
X131104150Y-99638231D01*
X128040000Y-102750000D02*
X127367750Y-102750000D01*
X132088231Y-98654150D02*
X131511769Y-98654150D01*
X127119150Y-103501400D02*
X127367750Y-103750000D01*
X131104150Y-99638231D02*
X131420459Y-99954541D01*
X127119150Y-102998600D02*
X127119150Y-103501400D01*
%TD*%
%TA.AperFunction,Conductor*%
%TO.N,+3V3*%
G36*
X137026692Y-104172401D02*
G01*
X137049965Y-104224035D01*
X137050000Y-104226311D01*
X137050000Y-106323758D01*
X137028326Y-106376084D01*
X136976000Y-106397758D01*
X136973792Y-106397725D01*
X133922292Y-106306635D01*
X133870636Y-106283409D01*
X133850500Y-106232668D01*
X133850500Y-105827523D01*
X133850499Y-105827522D01*
X133812985Y-105687518D01*
X133812983Y-105687513D01*
X133793564Y-105653878D01*
X133740510Y-105561986D01*
X133723204Y-105544680D01*
X133701531Y-105492355D01*
X133702101Y-105483191D01*
X133750000Y-105100000D01*
X133796027Y-104317538D01*
X133820736Y-104266576D01*
X133867622Y-104247919D01*
X136973726Y-104152346D01*
X137026692Y-104172401D01*
G37*
%TD.AperFunction*%
%TD*%
%TA.AperFunction,Conductor*%
%TO.N,GND*%
G36*
X147138326Y-103632775D02*
G01*
X147160000Y-103685101D01*
X147160000Y-103725000D01*
X147756000Y-103725000D01*
X147808326Y-103746674D01*
X147830000Y-103799000D01*
X147830000Y-103901000D01*
X147808326Y-103953326D01*
X147756000Y-103975000D01*
X147160000Y-103975000D01*
X147160000Y-104076885D01*
X147170325Y-104162861D01*
X147184304Y-104198310D01*
X147183336Y-104254938D01*
X147156575Y-104286985D01*
X147053461Y-104355883D01*
X146955883Y-104453461D01*
X146879223Y-104568191D01*
X146826421Y-104695667D01*
X146826418Y-104695677D01*
X146810760Y-104774400D01*
X146799500Y-104831007D01*
X146799500Y-104968993D01*
X146803817Y-104990696D01*
X146826418Y-105104322D01*
X146826421Y-105104332D01*
X146879224Y-105231810D01*
X146897317Y-105258888D01*
X146908366Y-105314437D01*
X146897317Y-105341112D01*
X146879224Y-105368189D01*
X146826421Y-105495667D01*
X146826418Y-105495677D01*
X146803945Y-105608656D01*
X146799500Y-105631007D01*
X146799500Y-105768993D01*
X146808379Y-105813628D01*
X146826418Y-105904322D01*
X146826421Y-105904332D01*
X146879223Y-106031808D01*
X146919475Y-106092050D01*
X146955886Y-106146542D01*
X147053458Y-106244114D01*
X147168189Y-106320775D01*
X147168190Y-106320775D01*
X147168191Y-106320776D01*
X147295211Y-106373389D01*
X147295672Y-106373580D01*
X147431007Y-106400500D01*
X147431009Y-106400500D01*
X147568991Y-106400500D01*
X147568993Y-106400500D01*
X147589714Y-106396378D01*
X147645262Y-106407427D01*
X147676728Y-106454519D01*
X147677922Y-106474762D01*
X147675000Y-106511888D01*
X147675000Y-106675000D01*
X148476000Y-106675000D01*
X148528326Y-106696674D01*
X148550000Y-106749000D01*
X148550000Y-106800000D01*
X148601000Y-106800000D01*
X148653326Y-106821674D01*
X148675000Y-106874000D01*
X148675000Y-107650000D01*
X148863110Y-107650000D01*
X148898551Y-107647210D01*
X149050191Y-107603154D01*
X149119307Y-107562279D01*
X151540001Y-107562279D01*
X151550419Y-107649048D01*
X151550420Y-107649052D01*
X151604877Y-107787147D01*
X151694571Y-107905427D01*
X151694572Y-107905428D01*
X151812852Y-107995122D01*
X151950944Y-108049578D01*
X152037721Y-108059999D01*
X152094999Y-108059998D01*
X152095000Y-108059998D01*
X152095000Y-107475000D01*
X151540001Y-107475000D01*
X151540001Y-107562279D01*
X149119307Y-107562279D01*
X149186111Y-107522771D01*
X149297772Y-107411110D01*
X149300394Y-107406678D01*
X149378154Y-107275191D01*
X149422210Y-107123551D01*
X149425000Y-107088110D01*
X149425000Y-106979205D01*
X149446674Y-106926879D01*
X149499000Y-106905205D01*
X149526148Y-106910365D01*
X149650942Y-106959578D01*
X149737721Y-106969999D01*
X149825000Y-106969999D01*
X149825000Y-106415000D01*
X150075000Y-106415000D01*
X150075000Y-106969999D01*
X150162278Y-106969999D01*
X150162279Y-106969998D01*
X150249048Y-106959580D01*
X150249052Y-106959579D01*
X150387147Y-106905122D01*
X150500066Y-106819493D01*
X150554856Y-106805145D01*
X150589493Y-106819492D01*
X150662852Y-106875122D01*
X150800944Y-106929578D01*
X150887721Y-106939999D01*
X150975000Y-106939999D01*
X151225000Y-106939999D01*
X151312278Y-106939999D01*
X151312279Y-106939998D01*
X151399048Y-106929580D01*
X151399056Y-106929578D01*
X151476480Y-106899046D01*
X151533109Y-106900012D01*
X151572468Y-106940738D01*
X151572469Y-106995032D01*
X151550421Y-107050942D01*
X151540000Y-107137721D01*
X151540000Y-107225000D01*
X152095000Y-107225000D01*
X152095000Y-106640000D01*
X152094999Y-106639999D01*
X152037722Y-106640000D01*
X152037719Y-106640001D01*
X151950951Y-106650419D01*
X151950947Y-106650420D01*
X151873518Y-106680954D01*
X151816889Y-106679986D01*
X151777530Y-106639260D01*
X151777531Y-106584965D01*
X151799578Y-106529057D01*
X151810000Y-106442278D01*
X151810000Y-106385000D01*
X151225000Y-106385000D01*
X151225000Y-106939999D01*
X150975000Y-106939999D01*
X150975000Y-106385000D01*
X150740000Y-106385000D01*
X150731674Y-106393326D01*
X150679348Y-106415000D01*
X150075000Y-106415000D01*
X149825000Y-106415000D01*
X149825000Y-106364000D01*
X149846674Y-106311674D01*
X149899000Y-106290000D01*
X149950000Y-106290000D01*
X149950000Y-106239000D01*
X149971674Y-106186674D01*
X150024000Y-106165000D01*
X150310000Y-106165000D01*
X150318326Y-106156674D01*
X150370652Y-106135000D01*
X151809999Y-106135000D01*
X151809999Y-106077722D01*
X151809998Y-106077720D01*
X151799580Y-105990951D01*
X151799579Y-105990947D01*
X151745123Y-105852855D01*
X151743680Y-105850289D01*
X151743490Y-105848715D01*
X151743265Y-105848143D01*
X151743414Y-105848083D01*
X151742536Y-105840772D01*
X151736702Y-105833170D01*
X151739274Y-105813628D01*
X151736922Y-105794056D01*
X151742842Y-105786518D01*
X151744093Y-105777017D01*
X151759729Y-105765017D01*
X151771906Y-105749515D01*
X151789022Y-105742537D01*
X151849673Y-105726286D01*
X151849674Y-105726286D01*
X151860350Y-105723425D01*
X151873887Y-105719799D01*
X151976614Y-105660489D01*
X151990873Y-105646230D01*
X152043198Y-105624554D01*
X152054786Y-105625467D01*
X152054878Y-105625481D01*
X152054997Y-105625500D01*
X152600500Y-105625499D01*
X152652826Y-105647173D01*
X152674500Y-105699499D01*
X152674500Y-106245002D01*
X152689818Y-106341715D01*
X152749211Y-106458281D01*
X152803080Y-106512150D01*
X152810472Y-106529997D01*
X152822233Y-106545324D01*
X152820927Y-106555238D01*
X152824754Y-106564476D01*
X152814840Y-106601476D01*
X152758115Y-106699725D01*
X152713181Y-106734204D01*
X152657029Y-106726811D01*
X152649315Y-106721688D01*
X152627147Y-106704877D01*
X152489055Y-106650421D01*
X152402278Y-106640000D01*
X152345000Y-106640000D01*
X152345000Y-107994051D01*
X152336391Y-108028692D01*
X152335761Y-108029879D01*
X152280201Y-108126113D01*
X152280201Y-108126114D01*
X152275512Y-108143610D01*
X152275511Y-108143614D01*
X152249500Y-108240688D01*
X152249500Y-108862707D01*
X152227826Y-108915033D01*
X152219848Y-108921946D01*
X152192454Y-108942453D01*
X152106203Y-109057669D01*
X152106202Y-109057670D01*
X152055910Y-109192512D01*
X152055909Y-109192517D01*
X152049500Y-109252126D01*
X152049500Y-110147873D01*
X152055909Y-110207485D01*
X152106202Y-110342329D01*
X152106203Y-110342330D01*
X152106204Y-110342331D01*
X152192454Y-110457546D01*
X152284717Y-110526614D01*
X152307669Y-110543796D01*
X152307670Y-110543797D01*
X152418605Y-110585172D01*
X152442517Y-110594091D01*
X152502127Y-110600500D01*
X152897872Y-110600499D01*
X152957483Y-110594091D01*
X153074357Y-110550500D01*
X153092329Y-110543797D01*
X153092329Y-110543796D01*
X153092331Y-110543796D01*
X153207546Y-110457546D01*
X153293796Y-110342331D01*
X153306113Y-110309309D01*
X153330666Y-110243478D01*
X153369259Y-110202025D01*
X153425860Y-110200004D01*
X153467313Y-110238597D01*
X153469334Y-110243478D01*
X153506202Y-110342329D01*
X153506203Y-110342330D01*
X153506204Y-110342331D01*
X153592454Y-110457546D01*
X153684717Y-110526614D01*
X153707669Y-110543796D01*
X153707670Y-110543797D01*
X153818605Y-110585172D01*
X153842517Y-110594091D01*
X153902127Y-110600500D01*
X154297872Y-110600499D01*
X154357483Y-110594091D01*
X154474357Y-110550500D01*
X154492329Y-110543797D01*
X154492329Y-110543796D01*
X154492331Y-110543796D01*
X154607546Y-110457546D01*
X154693796Y-110342331D01*
X154706816Y-110307424D01*
X154719323Y-110273889D01*
X154744091Y-110207483D01*
X154750500Y-110147873D01*
X154750499Y-109252128D01*
X154744091Y-109192517D01*
X154733656Y-109164539D01*
X154693797Y-109057670D01*
X154693796Y-109057669D01*
X154638004Y-108983141D01*
X154607546Y-108942454D01*
X154607545Y-108942453D01*
X154604374Y-108938217D01*
X154605847Y-108937113D01*
X154586749Y-108891005D01*
X154608422Y-108838680D01*
X154680489Y-108766614D01*
X154739799Y-108663887D01*
X154751504Y-108620201D01*
X154770500Y-108549309D01*
X154770500Y-108063487D01*
X154792174Y-108011161D01*
X154844500Y-107989487D01*
X154871648Y-107994647D01*
X155010942Y-108049578D01*
X155097721Y-108059999D01*
X155154999Y-108059998D01*
X155155000Y-108059998D01*
X155155000Y-107424000D01*
X155176674Y-107371674D01*
X155229000Y-107350000D01*
X155331000Y-107350000D01*
X155383326Y-107371674D01*
X155405000Y-107424000D01*
X155405000Y-108059999D01*
X155462278Y-108059999D01*
X155462279Y-108059998D01*
X155516678Y-108053467D01*
X155571214Y-108068748D01*
X155598972Y-108118117D01*
X155599500Y-108126939D01*
X155599500Y-109025389D01*
X155577826Y-109077715D01*
X155553819Y-109093756D01*
X155468189Y-109129224D01*
X155353461Y-109205883D01*
X155255883Y-109303461D01*
X155179223Y-109418191D01*
X155126421Y-109545667D01*
X155126418Y-109545677D01*
X155099500Y-109681008D01*
X155099500Y-109818991D01*
X155126418Y-109954322D01*
X155126421Y-109954332D01*
X155179223Y-110081808D01*
X155235141Y-110165496D01*
X155255886Y-110196542D01*
X155353458Y-110294114D01*
X155468189Y-110370775D01*
X155468190Y-110370775D01*
X155468191Y-110370776D01*
X155524213Y-110393981D01*
X155564262Y-110434029D01*
X155564262Y-110490666D01*
X155548221Y-110514674D01*
X155235071Y-110827826D01*
X155182745Y-110849500D01*
X143617256Y-110849500D01*
X143564930Y-110827826D01*
X141612174Y-108875070D01*
X141590500Y-108822744D01*
X141590500Y-108413487D01*
X141612174Y-108361161D01*
X141664500Y-108339487D01*
X141691648Y-108344647D01*
X141830942Y-108399578D01*
X141917721Y-108409999D01*
X142225000Y-108409999D01*
X142282278Y-108409999D01*
X142282279Y-108409998D01*
X142369048Y-108399580D01*
X142369052Y-108399579D01*
X142507147Y-108345122D01*
X142625427Y-108255428D01*
X142625428Y-108255427D01*
X142715122Y-108137147D01*
X142769578Y-107999055D01*
X142780000Y-107912278D01*
X142780000Y-107825000D01*
X142225000Y-107825000D01*
X142225000Y-108409999D01*
X141917721Y-108409999D01*
X141974999Y-108409998D01*
X141975000Y-108409998D01*
X141975000Y-107575000D01*
X142225000Y-107575000D01*
X142779999Y-107575000D01*
X142779999Y-107487722D01*
X142779998Y-107487720D01*
X142769580Y-107400951D01*
X142769579Y-107400947D01*
X142715122Y-107262852D01*
X142625428Y-107144572D01*
X142625427Y-107144571D01*
X142550972Y-107088110D01*
X147675000Y-107088110D01*
X147677789Y-107123551D01*
X147721845Y-107275191D01*
X147802228Y-107411111D01*
X147913888Y-107522771D01*
X148049808Y-107603154D01*
X148201448Y-107647210D01*
X148236890Y-107650000D01*
X148425000Y-107650000D01*
X148425000Y-106925000D01*
X147675000Y-106925000D01*
X147675000Y-107088110D01*
X142550972Y-107088110D01*
X142507147Y-107054877D01*
X142369055Y-107000421D01*
X142282278Y-106990000D01*
X142225000Y-106990000D01*
X142225000Y-107575000D01*
X141975000Y-107575000D01*
X141975000Y-106990000D01*
X141974999Y-106989999D01*
X141917722Y-106990000D01*
X141917719Y-106990001D01*
X141830951Y-107000419D01*
X141830947Y-107000420D01*
X141692852Y-107054877D01*
X141623489Y-107107476D01*
X141568698Y-107121823D01*
X141534431Y-107107753D01*
X141517487Y-107095069D01*
X141385339Y-107045782D01*
X141385336Y-107045781D01*
X141385335Y-107045781D01*
X141326915Y-107039500D01*
X140953084Y-107039500D01*
X140894662Y-107045781D01*
X140892942Y-107046188D01*
X140892120Y-107046054D01*
X140890063Y-107046276D01*
X140890002Y-107045711D01*
X140837035Y-107037127D01*
X140823601Y-107026497D01*
X139008068Y-105210964D01*
X138986394Y-105158638D01*
X139008068Y-105106312D01*
X139060394Y-105084638D01*
X139071965Y-105085548D01*
X139154218Y-105098576D01*
X139181830Y-105102950D01*
X139181831Y-105102950D01*
X139408170Y-105102950D01*
X139435059Y-105098690D01*
X139631721Y-105067542D01*
X139631729Y-105067539D01*
X139631731Y-105067539D01*
X139846975Y-104997602D01*
X139846975Y-104997601D01*
X139846981Y-104997600D01*
X140048650Y-104894845D01*
X140231761Y-104761807D01*
X140365888Y-104627679D01*
X140418213Y-104606006D01*
X140470539Y-104627680D01*
X140486580Y-104651688D01*
X140496632Y-104675957D01*
X140561839Y-104773547D01*
X140572888Y-104829096D01*
X140541422Y-104876188D01*
X140528629Y-104883026D01*
X140465731Y-104909079D01*
X140343583Y-104990696D01*
X140239696Y-105094583D01*
X140158078Y-105216733D01*
X140101861Y-105352453D01*
X140101858Y-105352464D01*
X140073200Y-105496545D01*
X140073200Y-105643454D01*
X140101858Y-105787535D01*
X140101861Y-105787546D01*
X140158078Y-105923266D01*
X140233195Y-106035687D01*
X140239699Y-106045420D01*
X140343580Y-106149301D01*
X140465731Y-106230920D01*
X140465732Y-106230920D01*
X140465733Y-106230921D01*
X140534553Y-106259427D01*
X140601458Y-106287140D01*
X140745545Y-106315800D01*
X140892455Y-106315800D01*
X141036542Y-106287140D01*
X141172269Y-106230920D01*
X141294420Y-106149301D01*
X141398301Y-106045420D01*
X141479920Y-105923269D01*
X141536140Y-105787542D01*
X141564800Y-105643455D01*
X141564800Y-105496545D01*
X141536140Y-105352458D01*
X141508090Y-105284740D01*
X141479921Y-105216733D01*
X141476066Y-105210964D01*
X141439171Y-105155747D01*
X141428123Y-105100199D01*
X141459589Y-105053107D01*
X141472383Y-105046269D01*
X141575955Y-105003368D01*
X141666254Y-104943032D01*
X141666254Y-104943031D01*
X141163937Y-104440714D01*
X141163936Y-104440712D01*
X141163935Y-104440712D01*
X141146893Y-104399565D01*
X141142263Y-104388388D01*
X141142263Y-104388385D01*
X141155369Y-104356747D01*
X141163937Y-104336062D01*
X141163939Y-104336060D01*
X141178328Y-104321672D01*
X141182604Y-104319901D01*
X141230652Y-104300000D01*
X141346124Y-104300000D01*
X141398450Y-104321674D01*
X141843031Y-104766254D01*
X141845311Y-104766030D01*
X141899509Y-104782471D01*
X141904890Y-104787348D01*
X141995600Y-104878058D01*
X142117489Y-104959502D01*
X142225655Y-105004305D01*
X142265704Y-105044353D01*
X142265704Y-105100990D01*
X142258866Y-105113784D01*
X142190078Y-105216733D01*
X142133861Y-105352453D01*
X142133858Y-105352464D01*
X142105200Y-105496545D01*
X142105200Y-105643454D01*
X142133858Y-105787535D01*
X142133861Y-105787546D01*
X142190078Y-105923266D01*
X142265195Y-106035687D01*
X142271699Y-106045420D01*
X142375580Y-106149301D01*
X142497731Y-106230920D01*
X142497732Y-106230920D01*
X142497733Y-106230921D01*
X142566553Y-106259427D01*
X142633458Y-106287140D01*
X142777545Y-106315800D01*
X142924455Y-106315800D01*
X143068542Y-106287140D01*
X143204269Y-106230920D01*
X143326420Y-106149301D01*
X143430301Y-106045420D01*
X143511920Y-105923269D01*
X143568140Y-105787542D01*
X143579682Y-105729515D01*
X143611147Y-105682423D01*
X143652260Y-105669951D01*
X145055557Y-105669951D01*
X145055557Y-105669950D01*
X145154439Y-105643455D01*
X145170133Y-105639250D01*
X145272860Y-105579940D01*
X146273939Y-104578861D01*
X146317473Y-104503458D01*
X146333249Y-104476133D01*
X146363949Y-104361558D01*
X146363950Y-104361558D01*
X146363950Y-104333151D01*
X146385624Y-104280825D01*
X147033674Y-103632775D01*
X147086000Y-103611101D01*
X147138326Y-103632775D01*
G37*
%TD.AperFunction*%
%TA.AperFunction,Conductor*%
G36*
X127590000Y-108732877D02*
G01*
X127602568Y-108763220D01*
X127580894Y-108815546D01*
X127537392Y-108836692D01*
X127507141Y-108840325D01*
X127370326Y-108894276D01*
X127263735Y-108975107D01*
X127208945Y-108989454D01*
X127174676Y-108975383D01*
X127120068Y-108934504D01*
X126989263Y-108885716D01*
X126989260Y-108885715D01*
X126931444Y-108879500D01*
X126568556Y-108879500D01*
X126568555Y-108879501D01*
X126510737Y-108885716D01*
X126379931Y-108934504D01*
X126379928Y-108934506D01*
X126319030Y-108980094D01*
X126264152Y-108994101D01*
X126222358Y-108973180D01*
X125972174Y-108722996D01*
X125950500Y-108670670D01*
X125950500Y-108215328D01*
X125972174Y-108163002D01*
X126024500Y-108141328D01*
X126076826Y-108163002D01*
X126092867Y-108187010D01*
X126117427Y-108246305D01*
X126215923Y-108393716D01*
X126341283Y-108519076D01*
X126488695Y-108617572D01*
X126488694Y-108617572D01*
X126652475Y-108685412D01*
X126652486Y-108685415D01*
X126826359Y-108720000D01*
X127340000Y-108720000D01*
X127340000Y-108120000D01*
X127590000Y-108120000D01*
X127590000Y-108732877D01*
G37*
%TD.AperFunction*%
%TA.AperFunction,Conductor*%
G36*
X131094190Y-106522174D02*
G01*
X131115864Y-106574500D01*
X131115336Y-106583324D01*
X131112500Y-106606938D01*
X131112500Y-106675000D01*
X132101000Y-106675000D01*
X132153326Y-106696674D01*
X132175000Y-106749000D01*
X132175000Y-106851000D01*
X132153326Y-106903326D01*
X132101000Y-106925000D01*
X131112499Y-106925000D01*
X131108446Y-106929053D01*
X131056120Y-106950726D01*
X131003794Y-106929051D01*
X130992426Y-106914395D01*
X130947771Y-106838888D01*
X130836111Y-106727228D01*
X130802965Y-106707626D01*
X130795238Y-106697335D01*
X130783839Y-106691368D01*
X130778897Y-106675570D01*
X130768959Y-106662334D01*
X130770771Y-106649595D01*
X130766930Y-106637314D01*
X130774470Y-106623606D01*
X130776939Y-106606262D01*
X130793197Y-106587136D01*
X130794359Y-106586165D01*
X130860451Y-106535451D01*
X130870040Y-106522954D01*
X130876325Y-106517705D01*
X130896130Y-106511509D01*
X130914104Y-106501133D01*
X130923762Y-106500500D01*
X131041864Y-106500500D01*
X131094190Y-106522174D01*
G37*
%TD.AperFunction*%
%TA.AperFunction,Conductor*%
G36*
X155175519Y-99484996D02*
G01*
X155183595Y-99485632D01*
X155207306Y-99509343D01*
X155214053Y-99514511D01*
X155215043Y-99516223D01*
X155249211Y-99583281D01*
X155260189Y-99594259D01*
X155265053Y-99602666D01*
X155275000Y-99639722D01*
X155275000Y-99799361D01*
X155275001Y-99799362D01*
X155299455Y-99797070D01*
X155299459Y-99797069D01*
X155431050Y-99751024D01*
X155435954Y-99748432D01*
X155437159Y-99750712D01*
X155483550Y-99739186D01*
X155484022Y-99739258D01*
X155554997Y-99750500D01*
X155745002Y-99750499D01*
X155841715Y-99735182D01*
X155866406Y-99722600D01*
X155922866Y-99718156D01*
X155933579Y-99722593D01*
X155958285Y-99735182D01*
X156054997Y-99750500D01*
X156245002Y-99750499D01*
X156341715Y-99735182D01*
X156366406Y-99722600D01*
X156422866Y-99718156D01*
X156433579Y-99722593D01*
X156458285Y-99735182D01*
X156554997Y-99750500D01*
X156745002Y-99750499D01*
X156841715Y-99735182D01*
X156866406Y-99722600D01*
X156922866Y-99718156D01*
X156933579Y-99722593D01*
X156958285Y-99735182D01*
X157054997Y-99750500D01*
X157245002Y-99750499D01*
X157341715Y-99735182D01*
X157366406Y-99722600D01*
X157422866Y-99718156D01*
X157433579Y-99722593D01*
X157458285Y-99735182D01*
X157554997Y-99750500D01*
X157745002Y-99750499D01*
X157841715Y-99735182D01*
X157866406Y-99722600D01*
X157922866Y-99718156D01*
X157933579Y-99722593D01*
X157958285Y-99735182D01*
X158054997Y-99750500D01*
X158245002Y-99750499D01*
X158341715Y-99735182D01*
X158366407Y-99722600D01*
X158421430Y-99717706D01*
X158427724Y-99719610D01*
X158458285Y-99735182D01*
X158502155Y-99742130D01*
X158507003Y-99743597D01*
X158525284Y-99758578D01*
X158545440Y-99770929D01*
X158548052Y-99777236D01*
X158550810Y-99779496D01*
X158551383Y-99785277D01*
X158558662Y-99802849D01*
X158564818Y-99841716D01*
X158564819Y-99841721D01*
X158577397Y-99866407D01*
X158581840Y-99922869D01*
X158577397Y-99933593D01*
X158564819Y-99958278D01*
X158564818Y-99958283D01*
X158549500Y-100054996D01*
X158549500Y-100245003D01*
X158549501Y-100245004D01*
X158560724Y-100315871D01*
X158549428Y-100362919D01*
X158551567Y-100364050D01*
X158548975Y-100368951D01*
X158502931Y-100500537D01*
X158502930Y-100500543D01*
X158500638Y-100525000D01*
X158660278Y-100525000D01*
X158697335Y-100534947D01*
X158705738Y-100539808D01*
X158716719Y-100550789D01*
X158783777Y-100584956D01*
X158785489Y-100585947D01*
X158801603Y-100606987D01*
X158818810Y-100627133D01*
X158818644Y-100629236D01*
X158819927Y-100630911D01*
X158816444Y-100657180D01*
X158814366Y-100683595D01*
X158812726Y-100685234D01*
X158812485Y-100687057D01*
X158805731Y-100692229D01*
X158782027Y-100715934D01*
X158716720Y-100749209D01*
X158712604Y-100753326D01*
X158660278Y-100775000D01*
X158500639Y-100775000D01*
X158500637Y-100775001D01*
X158502929Y-100799455D01*
X158502929Y-100799456D01*
X158548977Y-100931052D01*
X158551568Y-100935954D01*
X158549295Y-100937155D01*
X158560808Y-100983584D01*
X158560724Y-100984129D01*
X158549500Y-101054995D01*
X158549500Y-101245002D01*
X158564818Y-101341715D01*
X158564819Y-101341721D01*
X158577397Y-101366407D01*
X158581840Y-101422869D01*
X158577397Y-101433593D01*
X158564819Y-101458278D01*
X158564818Y-101458283D01*
X158549500Y-101554996D01*
X158549500Y-101745002D01*
X158564818Y-101841715D01*
X158564819Y-101841721D01*
X158577397Y-101866407D01*
X158581840Y-101922869D01*
X158577397Y-101933593D01*
X158564819Y-101958278D01*
X158564818Y-101958283D01*
X158549500Y-102054996D01*
X158549500Y-102245002D01*
X158564818Y-102341715D01*
X158564819Y-102341721D01*
X158577397Y-102366407D01*
X158581840Y-102422869D01*
X158577397Y-102433593D01*
X158564819Y-102458278D01*
X158564818Y-102458283D01*
X158549500Y-102554996D01*
X158549500Y-102745002D01*
X158564818Y-102841715D01*
X158564819Y-102841721D01*
X158577397Y-102866407D01*
X158581840Y-102922869D01*
X158577397Y-102933593D01*
X158564819Y-102958278D01*
X158564818Y-102958283D01*
X158549500Y-103054996D01*
X158549500Y-103245002D01*
X158564818Y-103341715D01*
X158564819Y-103341721D01*
X158577397Y-103366407D01*
X158581840Y-103422869D01*
X158577397Y-103433593D01*
X158564819Y-103458278D01*
X158564818Y-103458283D01*
X158554232Y-103525122D01*
X158549500Y-103554997D01*
X158549501Y-103745002D01*
X158561360Y-103819878D01*
X158564818Y-103841715D01*
X158564819Y-103841721D01*
X158577397Y-103866407D01*
X158581840Y-103922869D01*
X158577397Y-103933593D01*
X158564819Y-103958278D01*
X158564818Y-103958283D01*
X158549500Y-104054996D01*
X158549500Y-104245002D01*
X158564818Y-104341715D01*
X158564819Y-104341721D01*
X158577397Y-104366407D01*
X158581840Y-104422869D01*
X158577397Y-104433593D01*
X158564819Y-104458278D01*
X158564818Y-104458283D01*
X158549500Y-104554996D01*
X158549500Y-104745002D01*
X158564818Y-104841715D01*
X158564819Y-104841721D01*
X158577397Y-104866407D01*
X158582291Y-104921429D01*
X158580382Y-104927737D01*
X158564818Y-104958285D01*
X158557871Y-105002142D01*
X158556401Y-105007002D01*
X158541419Y-105025285D01*
X158529066Y-105045442D01*
X158522762Y-105048053D01*
X158520503Y-105050810D01*
X158514721Y-105051383D01*
X158497149Y-105058662D01*
X158458283Y-105064818D01*
X158458278Y-105064819D01*
X158433593Y-105077397D01*
X158377131Y-105081840D01*
X158366407Y-105077397D01*
X158341721Y-105064819D01*
X158341716Y-105064818D01*
X158245003Y-105049500D01*
X158054997Y-105049500D01*
X157958284Y-105064818D01*
X157958278Y-105064819D01*
X157933593Y-105077397D01*
X157877131Y-105081840D01*
X157866407Y-105077397D01*
X157841721Y-105064819D01*
X157841716Y-105064818D01*
X157745003Y-105049500D01*
X157554997Y-105049500D01*
X157458284Y-105064818D01*
X157458278Y-105064819D01*
X157433593Y-105077397D01*
X157377131Y-105081840D01*
X157366407Y-105077397D01*
X157341721Y-105064819D01*
X157341716Y-105064818D01*
X157245003Y-105049500D01*
X157054997Y-105049500D01*
X156958284Y-105064818D01*
X156958278Y-105064819D01*
X156933593Y-105077397D01*
X156877131Y-105081840D01*
X156866407Y-105077397D01*
X156841721Y-105064819D01*
X156841716Y-105064818D01*
X156745003Y-105049500D01*
X156554997Y-105049500D01*
X156458284Y-105064818D01*
X156458278Y-105064819D01*
X156433593Y-105077397D01*
X156377131Y-105081840D01*
X156366407Y-105077397D01*
X156341721Y-105064819D01*
X156341716Y-105064818D01*
X156245003Y-105049500D01*
X156054997Y-105049500D01*
X155958284Y-105064818D01*
X155958278Y-105064819D01*
X155933593Y-105077397D01*
X155877131Y-105081840D01*
X155866407Y-105077397D01*
X155841721Y-105064819D01*
X155841716Y-105064818D01*
X155745003Y-105049500D01*
X155554997Y-105049500D01*
X155458284Y-105064818D01*
X155458278Y-105064819D01*
X155433593Y-105077397D01*
X155377131Y-105081840D01*
X155366407Y-105077397D01*
X155341721Y-105064819D01*
X155341716Y-105064818D01*
X155245003Y-105049500D01*
X155054997Y-105049500D01*
X154958284Y-105064818D01*
X154958278Y-105064819D01*
X154933593Y-105077397D01*
X154877131Y-105081840D01*
X154866407Y-105077397D01*
X154841721Y-105064819D01*
X154841716Y-105064818D01*
X154745003Y-105049500D01*
X154554997Y-105049500D01*
X154458284Y-105064818D01*
X154458278Y-105064819D01*
X154433593Y-105077397D01*
X154377131Y-105081840D01*
X154366407Y-105077397D01*
X154341721Y-105064819D01*
X154341716Y-105064818D01*
X154245003Y-105049500D01*
X154054997Y-105049500D01*
X153958284Y-105064818D01*
X153958278Y-105064819D01*
X153933593Y-105077397D01*
X153877131Y-105081840D01*
X153866407Y-105077397D01*
X153841721Y-105064819D01*
X153841716Y-105064818D01*
X153745003Y-105049500D01*
X153554997Y-105049500D01*
X153458284Y-105064818D01*
X153458278Y-105064819D01*
X153433593Y-105077397D01*
X153378571Y-105082291D01*
X153372262Y-105080382D01*
X153341715Y-105064818D01*
X153297854Y-105057870D01*
X153292996Y-105056401D01*
X153274715Y-105041420D01*
X153254557Y-105029067D01*
X153251945Y-105022761D01*
X153249189Y-105020503D01*
X153248615Y-105014721D01*
X153241336Y-104997148D01*
X153235182Y-104958285D01*
X153222600Y-104933593D01*
X153218156Y-104877134D01*
X153222593Y-104866420D01*
X153235182Y-104841715D01*
X153250500Y-104745003D01*
X153250499Y-104554998D01*
X153248420Y-104541874D01*
X153242336Y-104503458D01*
X153235182Y-104458285D01*
X153222600Y-104433593D01*
X153218156Y-104377134D01*
X153222593Y-104366420D01*
X153235182Y-104341715D01*
X153250500Y-104245003D01*
X153250499Y-104054998D01*
X153235182Y-103958285D01*
X153222600Y-103933593D01*
X153218156Y-103877134D01*
X153222593Y-103866420D01*
X153235182Y-103841715D01*
X153250500Y-103745003D01*
X153250500Y-103650000D01*
X153250499Y-103554997D01*
X153237694Y-103474149D01*
X153235182Y-103458285D01*
X153222600Y-103433593D01*
X153218156Y-103377134D01*
X153222593Y-103366420D01*
X153235182Y-103341715D01*
X153250500Y-103245003D01*
X153250499Y-103054998D01*
X153235182Y-102958285D01*
X153222600Y-102933593D01*
X153218156Y-102877134D01*
X153222593Y-102866420D01*
X153235182Y-102841715D01*
X153250500Y-102745003D01*
X153250499Y-102554998D01*
X153235182Y-102458285D01*
X153222600Y-102433593D01*
X153218156Y-102377134D01*
X153222593Y-102366420D01*
X153235182Y-102341715D01*
X153250500Y-102245003D01*
X153250499Y-102054998D01*
X153248420Y-102041874D01*
X153245674Y-102024535D01*
X153235182Y-101958285D01*
X153222600Y-101933593D01*
X153218156Y-101877134D01*
X153222593Y-101866420D01*
X153235182Y-101841715D01*
X153250500Y-101745003D01*
X153250499Y-101554998D01*
X153248420Y-101541874D01*
X153242349Y-101503541D01*
X153235182Y-101458285D01*
X153222600Y-101433593D01*
X153218156Y-101377134D01*
X153222593Y-101366420D01*
X153235182Y-101341715D01*
X153250500Y-101245003D01*
X153250499Y-101054998D01*
X153248436Y-101041975D01*
X153239275Y-100984129D01*
X153235182Y-100958285D01*
X153222600Y-100933593D01*
X153218156Y-100877134D01*
X153222593Y-100866420D01*
X153235182Y-100841715D01*
X153250500Y-100745003D01*
X153250499Y-100554998D01*
X153249832Y-100550789D01*
X153243450Y-100510489D01*
X153235182Y-100458285D01*
X153222600Y-100433593D01*
X153218156Y-100377134D01*
X153222593Y-100366420D01*
X153235182Y-100341715D01*
X153250500Y-100245003D01*
X153250499Y-100054998D01*
X153235182Y-99958285D01*
X153222600Y-99933592D01*
X153217706Y-99878570D01*
X153219610Y-99872275D01*
X153235182Y-99841715D01*
X153242130Y-99797841D01*
X153243597Y-99792995D01*
X153258580Y-99774710D01*
X153270929Y-99754559D01*
X153277233Y-99751947D01*
X153279495Y-99749188D01*
X153285281Y-99748613D01*
X153302848Y-99741337D01*
X153341715Y-99735182D01*
X153366404Y-99722601D01*
X153422866Y-99718157D01*
X153433587Y-99722598D01*
X153458285Y-99735182D01*
X153554997Y-99750500D01*
X153745002Y-99750499D01*
X153841715Y-99735182D01*
X153866406Y-99722600D01*
X153922866Y-99718156D01*
X153933579Y-99722593D01*
X153958285Y-99735182D01*
X154054997Y-99750500D01*
X154245002Y-99750499D01*
X154341715Y-99735182D01*
X154366406Y-99722600D01*
X154422866Y-99718156D01*
X154433579Y-99722593D01*
X154458285Y-99735182D01*
X154554997Y-99750500D01*
X154745002Y-99750499D01*
X154815869Y-99739275D01*
X154862911Y-99750569D01*
X154864042Y-99748430D01*
X154868947Y-99751022D01*
X155000537Y-99797068D01*
X155000543Y-99797069D01*
X155025000Y-99799362D01*
X155025000Y-99639722D01*
X155046674Y-99587396D01*
X155050789Y-99583281D01*
X155084065Y-99517971D01*
X155100113Y-99504264D01*
X155112944Y-99487514D01*
X155120972Y-99486449D01*
X155127132Y-99481189D01*
X155148172Y-99482844D01*
X155169090Y-99480072D01*
X155175519Y-99484996D01*
G37*
%TD.AperFunction*%
%TA.AperFunction,Conductor*%
G36*
X145902354Y-100789457D02*
G01*
X145973386Y-100860489D01*
X146007669Y-100880282D01*
X146031076Y-100893796D01*
X146041821Y-100900000D01*
X146076114Y-100919799D01*
X146076115Y-100919799D01*
X146076117Y-100919800D01*
X146133402Y-100935149D01*
X146190688Y-100950499D01*
X146190689Y-100950500D01*
X146190691Y-100950500D01*
X149286000Y-100950500D01*
X149338326Y-100972174D01*
X149360000Y-101024500D01*
X149360000Y-101025000D01*
X149966000Y-101025000D01*
X150018326Y-101046674D01*
X150040000Y-101099000D01*
X150040000Y-101150000D01*
X150091000Y-101150000D01*
X150143326Y-101171674D01*
X150165000Y-101224000D01*
X150165000Y-101630772D01*
X150152530Y-101671882D01*
X150147116Y-101679985D01*
X150094312Y-101807464D01*
X150094309Y-101807474D01*
X150075905Y-101900000D01*
X150068485Y-101937307D01*
X150067391Y-101942805D01*
X150067391Y-101982021D01*
X150045717Y-102034347D01*
X149993391Y-102056021D01*
X149974240Y-102053500D01*
X149959310Y-102049500D01*
X149959309Y-102049500D01*
X148467909Y-102049500D01*
X148415583Y-102027826D01*
X148287757Y-101900000D01*
X148153818Y-101766061D01*
X148153815Y-101766059D01*
X148153814Y-101766058D01*
X148051095Y-101706753D01*
X148051093Y-101706752D01*
X148051091Y-101706751D01*
X148049789Y-101706402D01*
X148026878Y-101700262D01*
X148026878Y-101700263D01*
X147936513Y-101676050D01*
X145401170Y-101676050D01*
X145348844Y-101654376D01*
X145327170Y-101602050D01*
X145348844Y-101549724D01*
X145471802Y-101426766D01*
X145471807Y-101426761D01*
X145518656Y-101362279D01*
X149360001Y-101362279D01*
X149370419Y-101449048D01*
X149370420Y-101449052D01*
X149424877Y-101587147D01*
X149514571Y-101705427D01*
X149514572Y-101705428D01*
X149632852Y-101795122D01*
X149770944Y-101849578D01*
X149857721Y-101859999D01*
X149914999Y-101859998D01*
X149915000Y-101859998D01*
X149915000Y-101275000D01*
X149360001Y-101275000D01*
X149360001Y-101362279D01*
X145518656Y-101362279D01*
X145604845Y-101243650D01*
X145623431Y-101207174D01*
X145654456Y-101146282D01*
X145707600Y-101041981D01*
X145777542Y-100826721D01*
X145777544Y-100826707D01*
X145778069Y-100824522D01*
X145778409Y-100824053D01*
X145778441Y-100823956D01*
X145778472Y-100823966D01*
X145811351Y-100778695D01*
X145867289Y-100769824D01*
X145902354Y-100789457D01*
G37*
%TD.AperFunction*%
%TA.AperFunction,Conductor*%
G36*
X128018326Y-100196674D02*
G01*
X128040000Y-100249000D01*
X128040000Y-100300000D01*
X128091000Y-100300000D01*
X128143326Y-100321674D01*
X128165000Y-100374000D01*
X128165000Y-100375500D01*
X128143326Y-100427826D01*
X128091000Y-100449500D01*
X127970152Y-100449500D01*
X127917826Y-100427826D01*
X127915000Y-100425000D01*
X127565445Y-100425000D01*
X127556207Y-100421173D01*
X127546293Y-100422479D01*
X127530966Y-100410718D01*
X127513119Y-100403326D01*
X127501359Y-100388000D01*
X127442469Y-100286000D01*
X127435076Y-100229848D01*
X127469555Y-100184914D01*
X127506555Y-100175000D01*
X127966000Y-100175000D01*
X128018326Y-100196674D01*
G37*
%TD.AperFunction*%
%TA.AperFunction,Conductor*%
G36*
X131890826Y-99171174D02*
G01*
X131912500Y-99223500D01*
X131912500Y-99225000D01*
X132901000Y-99225000D01*
X132953326Y-99246674D01*
X132975000Y-99299000D01*
X132975000Y-99401000D01*
X132953326Y-99453326D01*
X132901000Y-99475000D01*
X131912500Y-99475000D01*
X131912500Y-99543064D01*
X131914689Y-99561294D01*
X131913427Y-99565795D01*
X131915217Y-99570116D01*
X131905945Y-99592500D01*
X131899408Y-99615831D01*
X131895332Y-99618122D01*
X131893543Y-99622442D01*
X131871158Y-99631714D01*
X131850039Y-99643588D01*
X131845537Y-99642326D01*
X131841217Y-99644116D01*
X131818832Y-99634844D01*
X131795502Y-99628307D01*
X131788891Y-99622442D01*
X131724611Y-99558162D01*
X131621174Y-99454724D01*
X131599500Y-99402398D01*
X131599500Y-99297601D01*
X131621174Y-99245275D01*
X131695275Y-99171174D01*
X131747601Y-99149500D01*
X131838500Y-99149500D01*
X131890826Y-99171174D01*
G37*
%TD.AperFunction*%
%TA.AperFunction,Conductor*%
G36*
X177102642Y-92650688D02*
G01*
X177336581Y-92667420D01*
X177347030Y-92668921D01*
X177573645Y-92718219D01*
X177583757Y-92721189D01*
X177801039Y-92802230D01*
X177810637Y-92806613D01*
X178014173Y-92917753D01*
X178023054Y-92923461D01*
X178208698Y-93062432D01*
X178216678Y-93069346D01*
X178380653Y-93233321D01*
X178387567Y-93241301D01*
X178526538Y-93426945D01*
X178532246Y-93435826D01*
X178643384Y-93639358D01*
X178647770Y-93648963D01*
X178728807Y-93866233D01*
X178731782Y-93876363D01*
X178781077Y-94102968D01*
X178782579Y-94113419D01*
X178799311Y-94347357D01*
X178799500Y-94352636D01*
X178799500Y-116097363D01*
X178799311Y-116102642D01*
X178782579Y-116336580D01*
X178781077Y-116347031D01*
X178731782Y-116573636D01*
X178728807Y-116583766D01*
X178647770Y-116801036D01*
X178643384Y-116810641D01*
X178532246Y-117014173D01*
X178526538Y-117023054D01*
X178387567Y-117208698D01*
X178380653Y-117216678D01*
X178216678Y-117380653D01*
X178208698Y-117387567D01*
X178023054Y-117526538D01*
X178014173Y-117532246D01*
X177810641Y-117643384D01*
X177801036Y-117647770D01*
X177583766Y-117728807D01*
X177573636Y-117731782D01*
X177347031Y-117781077D01*
X177336580Y-117782579D01*
X177102643Y-117799311D01*
X177097364Y-117799500D01*
X122252636Y-117799500D01*
X122247357Y-117799311D01*
X122013419Y-117782579D01*
X122002968Y-117781077D01*
X121776363Y-117731782D01*
X121766233Y-117728807D01*
X121548963Y-117647770D01*
X121539358Y-117643384D01*
X121335826Y-117532246D01*
X121326945Y-117526538D01*
X121141301Y-117387567D01*
X121133321Y-117380653D01*
X120969346Y-117216678D01*
X120962432Y-117208698D01*
X120823461Y-117023054D01*
X120817753Y-117014173D01*
X120793563Y-116969872D01*
X120706613Y-116810637D01*
X120702229Y-116801036D01*
X120621189Y-116583757D01*
X120618219Y-116573645D01*
X120568921Y-116347030D01*
X120567420Y-116336580D01*
X120558202Y-116207698D01*
X120550689Y-116102642D01*
X120550500Y-116097363D01*
X120550500Y-115563388D01*
X127049500Y-115563388D01*
X127049500Y-115736611D01*
X127076597Y-115907698D01*
X127076600Y-115907711D01*
X127130125Y-116072442D01*
X127130127Y-116072446D01*
X127208767Y-116226787D01*
X127288536Y-116336580D01*
X127310586Y-116366928D01*
X127433072Y-116489414D01*
X127433075Y-116489416D01*
X127433076Y-116489417D01*
X127573212Y-116591232D01*
X127727553Y-116669872D01*
X127727557Y-116669874D01*
X127892288Y-116723399D01*
X127892294Y-116723400D01*
X127892299Y-116723402D01*
X128006359Y-116741467D01*
X128063388Y-116750500D01*
X128063389Y-116750500D01*
X128236612Y-116750500D01*
X128279383Y-116743725D01*
X128407701Y-116723402D01*
X128407708Y-116723399D01*
X128407711Y-116723399D01*
X128572442Y-116669874D01*
X128572442Y-116669873D01*
X128572445Y-116669873D01*
X128726788Y-116591232D01*
X128866928Y-116489414D01*
X128989414Y-116366928D01*
X129091232Y-116226788D01*
X129169873Y-116072445D01*
X129223402Y-115907701D01*
X129230420Y-115863388D01*
X170399500Y-115863388D01*
X170399500Y-116036611D01*
X170426597Y-116207698D01*
X170426600Y-116207711D01*
X170480125Y-116372442D01*
X170480127Y-116372446D01*
X170552983Y-116515435D01*
X170558768Y-116526788D01*
X170660586Y-116666928D01*
X170783072Y-116789414D01*
X170783075Y-116789416D01*
X170783076Y-116789417D01*
X170923212Y-116891232D01*
X171077553Y-116969872D01*
X171077557Y-116969874D01*
X171242288Y-117023399D01*
X171242294Y-117023400D01*
X171242299Y-117023402D01*
X171356359Y-117041467D01*
X171413388Y-117050500D01*
X171413389Y-117050500D01*
X171586612Y-117050500D01*
X171629383Y-117043725D01*
X171757701Y-117023402D01*
X171757708Y-117023399D01*
X171757711Y-117023399D01*
X171922442Y-116969874D01*
X171922442Y-116969873D01*
X171922445Y-116969873D01*
X172076788Y-116891232D01*
X172216928Y-116789414D01*
X172339414Y-116666928D01*
X172441232Y-116526788D01*
X172519873Y-116372445D01*
X172528131Y-116347031D01*
X172573399Y-116207711D01*
X172573399Y-116207708D01*
X172573402Y-116207701D01*
X172600500Y-116036611D01*
X172600500Y-115863389D01*
X172573402Y-115692299D01*
X172573400Y-115692294D01*
X172573399Y-115692288D01*
X172519874Y-115527557D01*
X172519872Y-115527553D01*
X172441232Y-115373212D01*
X172339417Y-115233076D01*
X172339416Y-115233075D01*
X172339414Y-115233072D01*
X172216928Y-115110586D01*
X172216925Y-115110583D01*
X172216923Y-115110582D01*
X172076787Y-115008767D01*
X171922446Y-114930127D01*
X171922442Y-114930125D01*
X171757711Y-114876600D01*
X171757698Y-114876597D01*
X171586612Y-114849500D01*
X171586611Y-114849500D01*
X171413389Y-114849500D01*
X171413388Y-114849500D01*
X171242301Y-114876597D01*
X171242288Y-114876600D01*
X171077557Y-114930125D01*
X171077553Y-114930127D01*
X170923212Y-115008767D01*
X170783076Y-115110582D01*
X170660582Y-115233076D01*
X170558767Y-115373212D01*
X170480127Y-115527553D01*
X170480125Y-115527557D01*
X170426600Y-115692288D01*
X170426597Y-115692301D01*
X170399500Y-115863388D01*
X129230420Y-115863388D01*
X129250500Y-115736611D01*
X129250500Y-115563389D01*
X129244824Y-115527555D01*
X129223402Y-115392301D01*
X129223399Y-115392288D01*
X129169874Y-115227557D01*
X129169872Y-115227553D01*
X129091232Y-115073212D01*
X128989417Y-114933076D01*
X128989416Y-114933075D01*
X128989414Y-114933072D01*
X128866928Y-114810586D01*
X128866925Y-114810583D01*
X128866923Y-114810582D01*
X128726787Y-114708767D01*
X128572446Y-114630127D01*
X128572442Y-114630125D01*
X128407711Y-114576600D01*
X128407698Y-114576597D01*
X128236612Y-114549500D01*
X128236611Y-114549500D01*
X128063389Y-114549500D01*
X128063388Y-114549500D01*
X127892301Y-114576597D01*
X127892288Y-114576600D01*
X127727557Y-114630125D01*
X127727553Y-114630127D01*
X127573212Y-114708767D01*
X127433076Y-114810582D01*
X127310582Y-114933076D01*
X127208767Y-115073212D01*
X127130127Y-115227553D01*
X127130125Y-115227557D01*
X127076600Y-115392288D01*
X127076597Y-115392301D01*
X127049500Y-115563388D01*
X120550500Y-115563388D01*
X120550500Y-107694999D01*
X121992231Y-107694999D01*
X121992232Y-107695000D01*
X122610758Y-107695000D01*
X122605444Y-107704204D01*
X122585000Y-107780504D01*
X122585000Y-107859496D01*
X122605444Y-107935796D01*
X122610758Y-107945000D01*
X121992231Y-107945000D01*
X122019584Y-108082513D01*
X122019587Y-108082524D01*
X122087427Y-108246305D01*
X122185923Y-108393716D01*
X122311283Y-108519076D01*
X122458695Y-108617572D01*
X122458694Y-108617572D01*
X122622475Y-108685412D01*
X122622486Y-108685415D01*
X122796359Y-108720000D01*
X123160000Y-108720000D01*
X123160000Y-108120000D01*
X123410000Y-108120000D01*
X123410000Y-108720000D01*
X123773641Y-108720000D01*
X123947513Y-108685415D01*
X123947524Y-108685412D01*
X124111305Y-108617572D01*
X124258716Y-108519076D01*
X124258718Y-108519075D01*
X124384075Y-108393718D01*
X124384076Y-108393716D01*
X124482572Y-108246305D01*
X124550412Y-108082524D01*
X124550415Y-108082513D01*
X124577768Y-107945000D01*
X123959242Y-107945000D01*
X123964556Y-107935796D01*
X123985000Y-107859496D01*
X123985000Y-107780504D01*
X123964556Y-107704204D01*
X123959242Y-107695000D01*
X124577768Y-107695000D01*
X124577768Y-107694999D01*
X124550415Y-107557486D01*
X124550412Y-107557475D01*
X124482572Y-107393694D01*
X124384076Y-107246283D01*
X124258716Y-107120923D01*
X124111304Y-107022427D01*
X124111305Y-107022427D01*
X123947524Y-106954587D01*
X123947513Y-106954584D01*
X123773641Y-106920000D01*
X123410000Y-106920000D01*
X123410000Y-107520000D01*
X123160000Y-107520000D01*
X123160000Y-106920000D01*
X122796359Y-106920000D01*
X122622486Y-106954584D01*
X122622475Y-106954587D01*
X122458694Y-107022427D01*
X122311283Y-107120923D01*
X122311282Y-107120925D01*
X122185925Y-107246282D01*
X122185923Y-107246283D01*
X122087427Y-107393694D01*
X122019587Y-107557475D01*
X122019584Y-107557486D01*
X121992231Y-107694999D01*
X120550500Y-107694999D01*
X120550500Y-106839683D01*
X125049500Y-106839683D01*
X125049500Y-106844206D01*
X125049500Y-108947236D01*
X125058464Y-108980689D01*
X125058464Y-108980690D01*
X125080199Y-109061807D01*
X125080203Y-109061816D01*
X125139508Y-109164535D01*
X125139509Y-109164536D01*
X125139511Y-109164539D01*
X125885461Y-109910489D01*
X125912523Y-109926113D01*
X125961399Y-109954332D01*
X125988189Y-109969799D01*
X125988190Y-109969799D01*
X125988192Y-109969800D01*
X126045185Y-109985071D01*
X126102763Y-110000499D01*
X126102764Y-110000500D01*
X126102766Y-110000500D01*
X126170245Y-110000500D01*
X126222571Y-110022174D01*
X126229481Y-110030149D01*
X126268169Y-110081831D01*
X126379932Y-110165495D01*
X126379931Y-110165495D01*
X126457742Y-110194517D01*
X126510738Y-110214284D01*
X126568557Y-110220500D01*
X126931442Y-110220499D01*
X126931443Y-110220499D01*
X126931443Y-110220498D01*
X126989262Y-110214284D01*
X127054665Y-110189889D01*
X127120066Y-110165496D01*
X127120066Y-110165495D01*
X127120068Y-110165495D01*
X127174676Y-110124616D01*
X127229551Y-110110609D01*
X127263734Y-110124892D01*
X127370326Y-110205723D01*
X127507141Y-110259674D01*
X127593115Y-110270000D01*
X127645000Y-110270000D01*
X127895000Y-110270000D01*
X127946885Y-110270000D01*
X128032858Y-110259674D01*
X128169673Y-110205723D01*
X128286858Y-110116859D01*
X128286859Y-110116858D01*
X128375723Y-109999673D01*
X128429674Y-109862858D01*
X128440000Y-109776885D01*
X128440000Y-109675000D01*
X127895000Y-109675000D01*
X127895000Y-110270000D01*
X127645000Y-110270000D01*
X127645000Y-109624000D01*
X127666674Y-109571674D01*
X127719000Y-109550000D01*
X127770000Y-109550000D01*
X127770000Y-109499000D01*
X127791674Y-109446674D01*
X127844000Y-109425000D01*
X128440000Y-109425000D01*
X128440000Y-109323114D01*
X128429674Y-109237141D01*
X128375723Y-109100326D01*
X128286859Y-108983141D01*
X128286858Y-108983140D01*
X128169673Y-108894276D01*
X128087885Y-108862024D01*
X128047158Y-108822665D01*
X128046191Y-108766036D01*
X128085550Y-108725309D01*
X128100596Y-108720605D01*
X128277513Y-108685415D01*
X128277524Y-108685412D01*
X128441305Y-108617572D01*
X128588716Y-108519076D01*
X128588718Y-108519075D01*
X128714075Y-108393718D01*
X128714076Y-108393716D01*
X128812572Y-108246305D01*
X128880412Y-108082524D01*
X128880415Y-108082513D01*
X128907768Y-107945000D01*
X128289242Y-107945000D01*
X128294556Y-107935796D01*
X128315000Y-107859496D01*
X128315000Y-107780504D01*
X128303641Y-107738110D01*
X129325000Y-107738110D01*
X129327789Y-107773551D01*
X129371845Y-107925191D01*
X129452228Y-108061111D01*
X129563888Y-108172771D01*
X129699808Y-108253154D01*
X129851448Y-108297210D01*
X129886890Y-108300000D01*
X130075000Y-108300000D01*
X130075000Y-107575000D01*
X129325000Y-107575000D01*
X129325000Y-107738110D01*
X128303641Y-107738110D01*
X128294556Y-107704204D01*
X128289242Y-107695000D01*
X128907768Y-107695000D01*
X128907768Y-107694999D01*
X128880674Y-107558784D01*
X128880674Y-107558783D01*
X128880416Y-107557489D01*
X128880412Y-107557475D01*
X128812572Y-107393694D01*
X128799407Y-107373991D01*
X128788358Y-107318442D01*
X128816223Y-107273915D01*
X128857563Y-107242566D01*
X128948922Y-107122092D01*
X129004385Y-106981443D01*
X129015000Y-106893061D01*
X129015000Y-106825000D01*
X128165000Y-106825000D01*
X128165000Y-107406000D01*
X128143326Y-107458326D01*
X128091000Y-107480000D01*
X127989000Y-107480000D01*
X127936674Y-107458326D01*
X127915000Y-107406000D01*
X127915000Y-106825000D01*
X127506555Y-106825000D01*
X127488708Y-106817607D01*
X127469555Y-106815086D01*
X127463467Y-106807152D01*
X127454229Y-106803326D01*
X127446836Y-106785478D01*
X127435076Y-106770152D01*
X127436381Y-106760237D01*
X127432555Y-106751000D01*
X127442469Y-106714000D01*
X127501359Y-106612000D01*
X127546293Y-106577521D01*
X127565445Y-106575000D01*
X129015000Y-106575000D01*
X129015000Y-106574500D01*
X129036674Y-106522174D01*
X129089000Y-106500500D01*
X129476238Y-106500500D01*
X129523676Y-106517705D01*
X129529958Y-106522952D01*
X129539549Y-106535451D01*
X129605640Y-106586165D01*
X129606803Y-106587136D01*
X129619281Y-106610974D01*
X129632732Y-106634272D01*
X129632306Y-106635858D01*
X129633069Y-106637314D01*
X129625035Y-106662995D01*
X129618073Y-106688980D01*
X129616460Y-106690409D01*
X129616160Y-106691369D01*
X129614248Y-106692369D01*
X129597035Y-106707626D01*
X129563886Y-106727230D01*
X129452228Y-106838888D01*
X129371845Y-106974808D01*
X129327789Y-107126448D01*
X129325000Y-107161889D01*
X129325000Y-107325000D01*
X130126000Y-107325000D01*
X130178326Y-107346674D01*
X130200000Y-107399000D01*
X130200000Y-107450000D01*
X130251000Y-107450000D01*
X130303326Y-107471674D01*
X130325000Y-107524000D01*
X130325000Y-108300000D01*
X130513110Y-108300000D01*
X130548551Y-108297210D01*
X130700191Y-108253154D01*
X130836111Y-108172771D01*
X130947771Y-108061111D01*
X131025900Y-107929002D01*
X131071192Y-107894996D01*
X131127264Y-107902976D01*
X131161270Y-107948268D01*
X131163171Y-107958761D01*
X131168409Y-108007485D01*
X131218702Y-108142329D01*
X131218703Y-108142330D01*
X131218704Y-108142331D01*
X131304954Y-108257546D01*
X131374460Y-108309578D01*
X131420169Y-108343796D01*
X131420170Y-108343797D01*
X131487744Y-108369000D01*
X131555017Y-108394091D01*
X131614627Y-108400500D01*
X132735372Y-108400499D01*
X132794983Y-108394091D01*
X132899347Y-108355166D01*
X132925207Y-108350500D01*
X133379059Y-108350500D01*
X133379059Y-108350499D01*
X133531784Y-108309577D01*
X133555948Y-108295625D01*
X133612099Y-108288232D01*
X133637295Y-108300472D01*
X133695164Y-108343794D01*
X133695170Y-108343797D01*
X133762744Y-108369000D01*
X133830017Y-108394091D01*
X133889627Y-108400500D01*
X135010372Y-108400499D01*
X135069983Y-108394091D01*
X135158273Y-108361161D01*
X135204829Y-108343797D01*
X135204829Y-108343796D01*
X135204831Y-108343796D01*
X135320046Y-108257546D01*
X135406296Y-108142331D01*
X135420972Y-108102981D01*
X135459563Y-108061529D01*
X135516164Y-108059506D01*
X135542632Y-108076515D01*
X135613888Y-108147771D01*
X135749808Y-108228154D01*
X135901448Y-108272210D01*
X135936890Y-108275000D01*
X136125000Y-108275000D01*
X136375000Y-108275000D01*
X136563110Y-108275000D01*
X136598551Y-108272210D01*
X136750191Y-108228154D01*
X136886111Y-108147771D01*
X136997771Y-108036111D01*
X137078154Y-107900191D01*
X137122210Y-107748551D01*
X137125000Y-107713110D01*
X137125000Y-107550000D01*
X136375000Y-107550000D01*
X136375000Y-108275000D01*
X136125000Y-108275000D01*
X136125000Y-107499000D01*
X136146674Y-107446674D01*
X136199000Y-107425000D01*
X136250000Y-107425000D01*
X136250000Y-107374000D01*
X136271674Y-107321674D01*
X136324000Y-107300000D01*
X137125000Y-107300000D01*
X137125000Y-107136889D01*
X137122210Y-107101448D01*
X137078154Y-106949808D01*
X137017349Y-106846992D01*
X137009369Y-106790920D01*
X137043375Y-106745628D01*
X137064361Y-106737228D01*
X137112043Y-106726197D01*
X137164369Y-106704523D01*
X137180425Y-106696674D01*
X137203946Y-106685176D01*
X137203947Y-106685174D01*
X137203951Y-106685173D01*
X137294797Y-106611400D01*
X137356765Y-106512127D01*
X137378439Y-106459801D01*
X137386238Y-106439189D01*
X137405500Y-106323758D01*
X137405500Y-105061254D01*
X137427174Y-105008928D01*
X137479500Y-104987254D01*
X137531826Y-105008928D01*
X140514836Y-107991938D01*
X140531844Y-108018404D01*
X140565070Y-108107488D01*
X140649594Y-108220400D01*
X140649596Y-108220402D01*
X140649597Y-108220403D01*
X140659844Y-108228073D01*
X140688746Y-108276780D01*
X140689500Y-108287315D01*
X140689500Y-109099311D01*
X140713669Y-109189508D01*
X140713670Y-109189512D01*
X140720199Y-109213882D01*
X140720199Y-109213884D01*
X140779508Y-109316610D01*
X140779509Y-109316611D01*
X140779511Y-109316614D01*
X143123386Y-111660490D01*
X143226113Y-111719799D01*
X143226115Y-111719799D01*
X143226116Y-111719800D01*
X143234184Y-111721961D01*
X143250326Y-111726286D01*
X143322618Y-111745657D01*
X143340690Y-111750500D01*
X143340691Y-111750500D01*
X155459309Y-111750500D01*
X155549673Y-111726286D01*
X155549674Y-111726286D01*
X155560350Y-111723425D01*
X155573887Y-111719799D01*
X155676614Y-111660489D01*
X156810489Y-110526614D01*
X156869799Y-110423887D01*
X156878694Y-110390691D01*
X156900499Y-110309311D01*
X156900500Y-110309311D01*
X156900500Y-108342279D01*
X157390001Y-108342279D01*
X157400419Y-108429048D01*
X157400420Y-108429052D01*
X157454877Y-108567147D01*
X157544571Y-108685427D01*
X157544572Y-108685428D01*
X157662852Y-108775122D01*
X157800944Y-108829578D01*
X157887721Y-108839999D01*
X157975000Y-108839999D01*
X157975000Y-108285000D01*
X157390001Y-108285000D01*
X157390001Y-108342279D01*
X156900500Y-108342279D01*
X156900500Y-107880581D01*
X156922174Y-107828255D01*
X156974500Y-107806581D01*
X157015616Y-107819056D01*
X157018189Y-107820775D01*
X157018190Y-107820775D01*
X157018191Y-107820776D01*
X157137997Y-107870401D01*
X157145672Y-107873580D01*
X157281007Y-107900500D01*
X157281009Y-107900500D01*
X157316060Y-107900500D01*
X157368386Y-107922174D01*
X157390060Y-107974500D01*
X157390000Y-107976523D01*
X157390000Y-108035000D01*
X158026000Y-108035000D01*
X158078326Y-108056674D01*
X158100000Y-108109000D01*
X158100000Y-108160000D01*
X158151000Y-108160000D01*
X158203326Y-108181674D01*
X158225000Y-108234000D01*
X158225000Y-108839999D01*
X158312278Y-108839999D01*
X158312279Y-108839998D01*
X158399048Y-108829580D01*
X158399052Y-108829579D01*
X158537147Y-108775122D01*
X158659462Y-108682369D01*
X158661263Y-108684744D01*
X158704763Y-108666687D01*
X158752273Y-108683905D01*
X158758888Y-108689433D01*
X158768169Y-108701831D01*
X158821442Y-108741710D01*
X158822953Y-108742973D01*
X158835226Y-108766437D01*
X158848747Y-108789223D01*
X158849000Y-108792767D01*
X158849205Y-108793159D01*
X158849061Y-108793618D01*
X158849500Y-108799755D01*
X158849500Y-109932745D01*
X158827826Y-109985071D01*
X158114508Y-110698389D01*
X158055201Y-110801112D01*
X158052680Y-110810523D01*
X158052679Y-110810522D01*
X158052679Y-110810525D01*
X158024500Y-110915688D01*
X158024500Y-112359139D01*
X158024383Y-112359420D01*
X158024498Y-112359704D01*
X158022750Y-112363363D01*
X158002826Y-112411465D01*
X158002425Y-112411863D01*
X157998372Y-112415853D01*
X157996584Y-112417049D01*
X157959187Y-112454445D01*
X157958883Y-112454745D01*
X157932855Y-112465294D01*
X157906956Y-112476021D01*
X157906675Y-112475904D01*
X157906393Y-112476019D01*
X157880555Y-112465084D01*
X157854631Y-112454346D01*
X157854310Y-112453978D01*
X157854234Y-112453946D01*
X157854192Y-112453842D01*
X157847994Y-112446734D01*
X157817922Y-112407078D01*
X157817921Y-112407077D01*
X157697341Y-112315638D01*
X157612079Y-112282015D01*
X157556564Y-112260123D01*
X157527076Y-112256582D01*
X157468104Y-112249500D01*
X157468102Y-112249500D01*
X156981898Y-112249500D01*
X156981896Y-112249500D01*
X156893436Y-112260123D01*
X156752658Y-112315638D01*
X156632078Y-112407077D01*
X156632077Y-112407078D01*
X156540638Y-112527658D01*
X156503805Y-112621061D01*
X156485123Y-112668436D01*
X156474500Y-112756898D01*
X156474500Y-113743102D01*
X156474500Y-113743104D01*
X156474499Y-113743104D01*
X156485123Y-113831563D01*
X156540638Y-113972341D01*
X156624517Y-114082951D01*
X156632078Y-114092922D01*
X156752658Y-114184361D01*
X156893436Y-114239877D01*
X156964764Y-114248442D01*
X156981896Y-114250500D01*
X156981898Y-114250500D01*
X157468104Y-114250500D01*
X157483722Y-114248624D01*
X157556564Y-114239877D01*
X157697342Y-114184361D01*
X157817922Y-114092922D01*
X157847996Y-114053263D01*
X157896880Y-114024666D01*
X157951670Y-114039012D01*
X157959284Y-114045651D01*
X157996584Y-114082951D01*
X158119505Y-114165084D01*
X158256087Y-114221658D01*
X158401082Y-114250500D01*
X158401084Y-114250500D01*
X158548916Y-114250500D01*
X158548918Y-114250500D01*
X158693913Y-114221658D01*
X158830495Y-114165084D01*
X158953416Y-114082951D01*
X159047674Y-113988693D01*
X159100000Y-113967019D01*
X159152326Y-113988693D01*
X159246584Y-114082951D01*
X159369505Y-114165084D01*
X159506087Y-114221658D01*
X159651082Y-114250500D01*
X159651084Y-114250500D01*
X159798916Y-114250500D01*
X159798918Y-114250500D01*
X159943913Y-114221658D01*
X160080495Y-114165084D01*
X160203416Y-114082951D01*
X160262672Y-114023695D01*
X160314998Y-114002021D01*
X160367324Y-114023695D01*
X160465030Y-114121401D01*
X160596061Y-114208952D01*
X160741648Y-114269256D01*
X160741655Y-114269258D01*
X160849999Y-114290809D01*
X160850000Y-114290808D01*
X160850000Y-113468821D01*
X160925272Y-113500000D01*
X161024728Y-113500000D01*
X161100000Y-113468821D01*
X161100000Y-114290809D01*
X161208344Y-114269258D01*
X161208351Y-114269256D01*
X161353938Y-114208952D01*
X161484969Y-114121401D01*
X161484971Y-114121400D01*
X161596400Y-114009971D01*
X161596401Y-114009969D01*
X161683952Y-113878938D01*
X161744256Y-113733351D01*
X161744258Y-113733344D01*
X161775000Y-113578792D01*
X161775000Y-113375000D01*
X161193822Y-113375000D01*
X161225000Y-113299728D01*
X161225000Y-113200272D01*
X161193822Y-113125000D01*
X161775000Y-113125000D01*
X161775000Y-112921207D01*
X161744258Y-112766655D01*
X161744256Y-112766648D01*
X161683952Y-112621061D01*
X161596401Y-112490030D01*
X161484969Y-112378598D01*
X161353938Y-112291047D01*
X161208349Y-112230742D01*
X161208346Y-112230741D01*
X161100000Y-112209190D01*
X161100000Y-113031178D01*
X161024728Y-113000000D01*
X160925272Y-113000000D01*
X160850000Y-113031178D01*
X160850000Y-112209190D01*
X160741653Y-112230741D01*
X160741650Y-112230742D01*
X160596061Y-112291047D01*
X160465030Y-112378598D01*
X160367323Y-112476305D01*
X160341261Y-112487099D01*
X160315370Y-112497978D01*
X160315184Y-112497901D01*
X160314997Y-112497979D01*
X160262936Y-112476568D01*
X160262836Y-112476469D01*
X160203416Y-112417049D01*
X160201563Y-112415811D01*
X160197439Y-112411728D01*
X160187702Y-112388552D01*
X160175855Y-112366377D01*
X160175520Y-112359558D01*
X160175501Y-112359512D01*
X160175516Y-112359474D01*
X160175500Y-112359139D01*
X160175500Y-111342254D01*
X160197173Y-111289929D01*
X160760489Y-110726614D01*
X160819799Y-110623887D01*
X160827783Y-110594091D01*
X160831729Y-110579361D01*
X160866203Y-110534430D01*
X160922356Y-110527034D01*
X160955533Y-110546188D01*
X160955883Y-110546538D01*
X160955886Y-110546542D01*
X161053458Y-110644114D01*
X161168189Y-110720775D01*
X161168190Y-110720775D01*
X161168191Y-110720776D01*
X161295667Y-110773578D01*
X161295672Y-110773580D01*
X161431007Y-110800500D01*
X161431009Y-110800500D01*
X161568991Y-110800500D01*
X161568993Y-110800500D01*
X161704328Y-110773580D01*
X161831811Y-110720775D01*
X161946542Y-110644114D01*
X162018482Y-110572174D01*
X162070808Y-110550500D01*
X176509311Y-110550500D01*
X176509311Y-110550499D01*
X176606342Y-110524500D01*
X176623887Y-110519799D01*
X176726614Y-110460489D01*
X177760489Y-109426614D01*
X177819799Y-109323887D01*
X177826333Y-109299500D01*
X177845666Y-109227347D01*
X177850500Y-109209310D01*
X177850500Y-107340689D01*
X177850499Y-107340688D01*
X177846295Y-107325000D01*
X177819799Y-107226114D01*
X177810355Y-107209757D01*
X177760491Y-107123390D01*
X177760490Y-107123389D01*
X177760489Y-107123387D01*
X177676613Y-107039511D01*
X177676610Y-107039509D01*
X177676609Y-107039508D01*
X177573887Y-106980201D01*
X177573882Y-106980199D01*
X177459311Y-106949500D01*
X177459309Y-106949500D01*
X176892326Y-106949500D01*
X176840000Y-106927826D01*
X176833089Y-106919850D01*
X176831831Y-106918169D01*
X176725923Y-106838888D01*
X176720067Y-106834504D01*
X176720068Y-106834504D01*
X176589263Y-106785716D01*
X176589260Y-106785715D01*
X176531444Y-106779500D01*
X176068556Y-106779500D01*
X176068555Y-106779501D01*
X176010737Y-106785716D01*
X175879931Y-106834504D01*
X175879928Y-106834506D01*
X175768491Y-106917927D01*
X175713613Y-106931934D01*
X175674825Y-106912520D01*
X175674639Y-106912769D01*
X175673260Y-106911736D01*
X175671824Y-106911018D01*
X175670405Y-106909600D01*
X175670403Y-106909597D01*
X175557489Y-106825071D01*
X175557488Y-106825070D01*
X175557486Y-106825069D01*
X175425339Y-106775782D01*
X175425336Y-106775781D01*
X175425335Y-106775781D01*
X175366915Y-106769500D01*
X174933084Y-106769500D01*
X174883449Y-106774836D01*
X174874665Y-106775781D01*
X174742511Y-106825071D01*
X174742510Y-106825071D01*
X174742509Y-106825072D01*
X174646056Y-106897275D01*
X174591178Y-106911282D01*
X174542471Y-106882382D01*
X174531831Y-106868169D01*
X174421686Y-106785716D01*
X174420067Y-106784504D01*
X174420068Y-106784504D01*
X174289263Y-106735716D01*
X174289260Y-106735715D01*
X174231444Y-106729500D01*
X173868556Y-106729500D01*
X173868555Y-106729501D01*
X173810737Y-106735716D01*
X173679931Y-106784504D01*
X173679928Y-106784506D01*
X173584346Y-106856058D01*
X173529468Y-106870065D01*
X173495654Y-106856058D01*
X173400071Y-106784506D01*
X173400068Y-106784504D01*
X173269263Y-106735716D01*
X173269260Y-106735715D01*
X173211444Y-106729500D01*
X172848556Y-106729500D01*
X172848555Y-106729501D01*
X172790737Y-106735716D01*
X172659931Y-106784504D01*
X172659928Y-106784506D01*
X172618846Y-106815260D01*
X172563968Y-106829267D01*
X172515260Y-106800366D01*
X172500500Y-106756020D01*
X172500500Y-106566746D01*
X172500500Y-106566740D01*
X172490573Y-106498607D01*
X172439198Y-106393517D01*
X172356483Y-106310802D01*
X172356482Y-106310801D01*
X172251394Y-106259427D01*
X172183264Y-106249500D01*
X172183260Y-106249500D01*
X170616740Y-106249500D01*
X170616735Y-106249500D01*
X170548606Y-106259427D01*
X170548605Y-106259427D01*
X170443517Y-106310801D01*
X170360801Y-106393517D01*
X170309427Y-106498605D01*
X170309427Y-106498606D01*
X170299500Y-106566735D01*
X170299500Y-108133264D01*
X170309427Y-108201393D01*
X170309427Y-108201394D01*
X170360801Y-108306482D01*
X170360802Y-108306483D01*
X170443517Y-108389198D01*
X170548607Y-108440573D01*
X170616740Y-108450500D01*
X170616746Y-108450500D01*
X172183254Y-108450500D01*
X172183260Y-108450500D01*
X172251393Y-108440573D01*
X172356483Y-108389198D01*
X172439198Y-108306483D01*
X172490573Y-108201393D01*
X172500500Y-108133260D01*
X172500500Y-108043979D01*
X172522174Y-107991653D01*
X172574500Y-107969979D01*
X172618845Y-107984738D01*
X172659932Y-108015495D01*
X172659931Y-108015495D01*
X172721757Y-108038555D01*
X172790738Y-108064284D01*
X172848557Y-108070500D01*
X173211442Y-108070499D01*
X173211443Y-108070499D01*
X173211443Y-108070498D01*
X173269262Y-108064284D01*
X173400068Y-108015495D01*
X173495656Y-107943939D01*
X173550531Y-107929933D01*
X173584342Y-107943938D01*
X173679932Y-108015495D01*
X173679931Y-108015495D01*
X173741757Y-108038555D01*
X173810738Y-108064284D01*
X173868557Y-108070500D01*
X174231442Y-108070499D01*
X174231443Y-108070499D01*
X174231443Y-108070498D01*
X174289262Y-108064284D01*
X174347513Y-108042557D01*
X174404114Y-108044578D01*
X174442708Y-108086030D01*
X174446846Y-108120714D01*
X174440000Y-108177720D01*
X174440000Y-108235000D01*
X175866000Y-108235000D01*
X175918326Y-108256674D01*
X175930100Y-108285100D01*
X175940000Y-108295000D01*
X176226000Y-108295000D01*
X176278326Y-108316674D01*
X176300000Y-108369000D01*
X176300000Y-108420000D01*
X176351000Y-108420000D01*
X176403326Y-108441674D01*
X176425000Y-108494000D01*
X176425000Y-109090000D01*
X176526885Y-109090000D01*
X176612858Y-109079674D01*
X176645423Y-109066833D01*
X176702051Y-109067800D01*
X176741411Y-109108527D01*
X176740444Y-109165155D01*
X176724896Y-109188000D01*
X176285071Y-109627826D01*
X176232745Y-109649500D01*
X162070808Y-109649500D01*
X162018482Y-109627826D01*
X162014656Y-109624000D01*
X161946542Y-109555886D01*
X161931263Y-109545677D01*
X161831808Y-109479223D01*
X161704332Y-109426421D01*
X161704322Y-109426418D01*
X161613694Y-109408391D01*
X161568993Y-109399500D01*
X161431007Y-109399500D01*
X161392642Y-109407131D01*
X161295677Y-109426418D01*
X161295667Y-109426421D01*
X161168191Y-109479223D01*
X161053461Y-109555883D01*
X161053460Y-109555884D01*
X161053458Y-109555885D01*
X161053458Y-109555886D01*
X160976824Y-109632519D01*
X160924500Y-109654193D01*
X160872174Y-109632519D01*
X160850500Y-109580193D01*
X160850500Y-108799755D01*
X160872174Y-108747429D01*
X160880149Y-108740518D01*
X160931831Y-108701831D01*
X161015495Y-108590068D01*
X161064284Y-108459262D01*
X161070500Y-108401443D01*
X161070499Y-108038558D01*
X161064284Y-107980738D01*
X161015495Y-107849932D01*
X160943939Y-107754343D01*
X160929933Y-107699469D01*
X160943938Y-107665657D01*
X161015495Y-107570068D01*
X161064284Y-107439262D01*
X161070500Y-107381443D01*
X161070499Y-107018558D01*
X161064284Y-106960738D01*
X161015495Y-106829932D01*
X161009347Y-106821719D01*
X161009346Y-106821717D01*
X160978871Y-106781007D01*
X161649500Y-106781007D01*
X161649500Y-106918993D01*
X161654178Y-106942511D01*
X161676418Y-107054322D01*
X161676421Y-107054332D01*
X161729223Y-107181808D01*
X161803192Y-107292511D01*
X161805886Y-107296542D01*
X161827786Y-107318442D01*
X161832019Y-107322675D01*
X161853692Y-107375001D01*
X161832019Y-107427325D01*
X161805883Y-107453461D01*
X161729223Y-107568191D01*
X161676421Y-107695667D01*
X161676418Y-107695677D01*
X161658224Y-107787147D01*
X161649500Y-107831007D01*
X161649500Y-107968993D01*
X161655480Y-107999055D01*
X161676418Y-108104322D01*
X161676421Y-108104332D01*
X161729223Y-108231808D01*
X161804619Y-108344647D01*
X161805886Y-108346542D01*
X161903458Y-108444114D01*
X162018189Y-108520775D01*
X162018190Y-108520775D01*
X162018191Y-108520776D01*
X162077936Y-108545523D01*
X162145672Y-108573580D01*
X162281007Y-108600500D01*
X162281009Y-108600500D01*
X162418991Y-108600500D01*
X162418993Y-108600500D01*
X162554328Y-108573580D01*
X162629896Y-108542279D01*
X174440001Y-108542279D01*
X174450419Y-108629048D01*
X174450420Y-108629052D01*
X174504877Y-108767147D01*
X174594571Y-108885427D01*
X174594572Y-108885428D01*
X174712852Y-108975122D01*
X174850944Y-109029578D01*
X174937721Y-109039999D01*
X175025000Y-109039999D01*
X175275000Y-109039999D01*
X175362278Y-109039999D01*
X175362279Y-109039998D01*
X175449048Y-109029580D01*
X175449052Y-109029579D01*
X175587147Y-108975122D01*
X175640658Y-108934543D01*
X175695448Y-108920195D01*
X175730085Y-108934542D01*
X175850326Y-109025723D01*
X175987141Y-109079674D01*
X176073115Y-109090000D01*
X176175000Y-109090000D01*
X176175000Y-108545000D01*
X175574000Y-108545000D01*
X175521674Y-108523326D01*
X175509899Y-108494899D01*
X175500000Y-108485000D01*
X175275000Y-108485000D01*
X175275000Y-109039999D01*
X175025000Y-109039999D01*
X175025000Y-108485000D01*
X174440001Y-108485000D01*
X174440001Y-108542279D01*
X162629896Y-108542279D01*
X162681811Y-108520775D01*
X162768772Y-108462668D01*
X162814062Y-108450700D01*
X162814062Y-108450500D01*
X162814822Y-108450500D01*
X162815234Y-108450391D01*
X162816737Y-108450500D01*
X162816740Y-108450500D01*
X164383254Y-108450500D01*
X164383260Y-108450500D01*
X164451393Y-108440573D01*
X164556483Y-108389198D01*
X164639198Y-108306483D01*
X164690573Y-108201393D01*
X164700500Y-108133260D01*
X164700500Y-106566740D01*
X164690573Y-106498607D01*
X164639198Y-106393517D01*
X164556483Y-106310802D01*
X164556482Y-106310801D01*
X164451394Y-106259427D01*
X164383264Y-106249500D01*
X164383260Y-106249500D01*
X162816740Y-106249500D01*
X162816734Y-106249500D01*
X162759016Y-106257910D01*
X162707236Y-106246212D01*
X162681812Y-106229225D01*
X162554332Y-106176421D01*
X162554322Y-106176418D01*
X162463694Y-106158391D01*
X162418993Y-106149500D01*
X162281007Y-106149500D01*
X162244941Y-106156674D01*
X162145677Y-106176418D01*
X162145667Y-106176421D01*
X162018191Y-106229223D01*
X161903461Y-106305883D01*
X161805883Y-106403461D01*
X161729223Y-106518191D01*
X161676421Y-106645667D01*
X161676418Y-106645677D01*
X161655058Y-106753067D01*
X161649500Y-106781007D01*
X160978871Y-106781007D01*
X160931834Y-106718172D01*
X160931831Y-106718169D01*
X160880153Y-106679483D01*
X160851253Y-106630774D01*
X160850500Y-106620243D01*
X160850500Y-106590689D01*
X160850499Y-106590688D01*
X160846295Y-106575000D01*
X160823019Y-106488132D01*
X160819799Y-106476113D01*
X160772112Y-106393517D01*
X160760491Y-106373389D01*
X160760490Y-106373388D01*
X160760489Y-106373386D01*
X160538463Y-106151360D01*
X160538460Y-106151358D01*
X160538459Y-106151357D01*
X160435740Y-106092052D01*
X160435738Y-106092051D01*
X160435736Y-106092050D01*
X160434434Y-106091701D01*
X160411523Y-106085561D01*
X160411523Y-106085562D01*
X160321158Y-106061349D01*
X159444096Y-106061349D01*
X159391770Y-106039675D01*
X159372618Y-106006502D01*
X159357951Y-105951766D01*
X159357951Y-105951767D01*
X159357950Y-105951764D01*
X159298642Y-105849040D01*
X159298641Y-105849039D01*
X159298640Y-105849037D01*
X159201428Y-105751825D01*
X159179754Y-105699499D01*
X159201428Y-105647173D01*
X159253754Y-105625499D01*
X159745003Y-105625499D01*
X159758225Y-105623404D01*
X159841715Y-105610182D01*
X159958281Y-105550789D01*
X160050789Y-105458281D01*
X160110182Y-105341715D01*
X160125500Y-105245003D01*
X160125499Y-105054998D01*
X160124926Y-105051383D01*
X160119120Y-105014721D01*
X160110182Y-104958285D01*
X160097600Y-104933593D01*
X160093156Y-104877134D01*
X160097593Y-104866420D01*
X160110182Y-104841715D01*
X160125500Y-104745003D01*
X160125499Y-104554998D01*
X160123420Y-104541874D01*
X160117336Y-104503458D01*
X160110182Y-104458285D01*
X160097600Y-104433593D01*
X160093156Y-104377134D01*
X160097593Y-104366420D01*
X160110182Y-104341715D01*
X160125500Y-104245003D01*
X160125499Y-104054998D01*
X160110182Y-103958285D01*
X160097600Y-103933593D01*
X160093156Y-103877134D01*
X160097593Y-103866420D01*
X160110182Y-103841715D01*
X160125500Y-103745003D01*
X160125499Y-103569949D01*
X160147173Y-103517624D01*
X160199499Y-103495950D01*
X160244213Y-103510987D01*
X160262852Y-103525122D01*
X160400944Y-103579578D01*
X160487721Y-103589999D01*
X160575000Y-103589999D01*
X160575000Y-102984000D01*
X160596674Y-102931674D01*
X160649000Y-102910000D01*
X160751000Y-102910000D01*
X160803326Y-102931674D01*
X160825000Y-102984000D01*
X160825000Y-103589999D01*
X160825275Y-103590274D01*
X160842818Y-103597540D01*
X160862325Y-103600331D01*
X160867130Y-103607611D01*
X160876937Y-103611673D01*
X160896299Y-103645646D01*
X160898500Y-103654243D01*
X160898500Y-103658309D01*
X160921730Y-103745003D01*
X160921828Y-103745371D01*
X160921835Y-103745396D01*
X160929201Y-103772887D01*
X160929203Y-103772891D01*
X160989586Y-103877476D01*
X160999500Y-103914476D01*
X160999500Y-104018993D01*
X161006662Y-104054997D01*
X161026418Y-104154322D01*
X161026421Y-104154332D01*
X161079223Y-104281808D01*
X161150437Y-104388388D01*
X161155886Y-104396542D01*
X161253458Y-104494114D01*
X161368189Y-104570775D01*
X161368190Y-104570775D01*
X161368191Y-104570776D01*
X161442996Y-104601761D01*
X161495672Y-104623580D01*
X161631007Y-104650500D01*
X161631009Y-104650500D01*
X161768991Y-104650500D01*
X161768993Y-104650500D01*
X161904328Y-104623580D01*
X162031811Y-104570775D01*
X162146542Y-104494114D01*
X162244114Y-104396542D01*
X162320775Y-104281811D01*
X162373580Y-104154328D01*
X162400500Y-104018993D01*
X162400500Y-103881007D01*
X162373580Y-103745672D01*
X162373303Y-103745003D01*
X162320776Y-103618191D01*
X162308842Y-103600331D01*
X162244114Y-103503458D01*
X162146542Y-103405886D01*
X162127677Y-103393281D01*
X162031808Y-103329223D01*
X161904332Y-103276421D01*
X161904324Y-103276419D01*
X161859062Y-103267415D01*
X161811970Y-103235948D01*
X161799500Y-103194837D01*
X161799500Y-103065641D01*
X169145000Y-103065641D01*
X169147900Y-103102493D01*
X169193718Y-103260199D01*
X169277317Y-103401556D01*
X169393443Y-103517682D01*
X169534800Y-103601281D01*
X169692508Y-103647099D01*
X169692505Y-103647099D01*
X169729359Y-103650000D01*
X170520000Y-103650000D01*
X170770000Y-103650000D01*
X171560641Y-103650000D01*
X171597493Y-103647099D01*
X171755199Y-103601281D01*
X171896556Y-103517682D01*
X172012682Y-103401556D01*
X172096281Y-103260199D01*
X172142099Y-103102493D01*
X172145000Y-103065641D01*
X172145000Y-102850000D01*
X170770000Y-102850000D01*
X170770000Y-103650000D01*
X170520000Y-103650000D01*
X170520000Y-102850000D01*
X169145000Y-102850000D01*
X169145000Y-103065641D01*
X161799500Y-103065641D01*
X161799500Y-102896151D01*
X161821174Y-102843825D01*
X161825000Y-102839999D01*
X162075000Y-102839999D01*
X162162278Y-102839999D01*
X162162279Y-102839998D01*
X162249048Y-102829580D01*
X162249052Y-102829579D01*
X162387147Y-102775122D01*
X162505427Y-102685428D01*
X162505428Y-102685427D01*
X162595122Y-102567147D01*
X162649578Y-102429055D01*
X162660000Y-102342278D01*
X162660000Y-102292279D01*
X164350001Y-102292279D01*
X164360419Y-102379048D01*
X164360420Y-102379052D01*
X164414877Y-102517147D01*
X164504571Y-102635427D01*
X164504572Y-102635428D01*
X164622852Y-102725122D01*
X164760944Y-102779578D01*
X164847721Y-102789999D01*
X164935000Y-102789999D01*
X165185000Y-102789999D01*
X165272278Y-102789999D01*
X165272279Y-102789998D01*
X165359048Y-102779580D01*
X165359052Y-102779579D01*
X165432775Y-102750507D01*
X165497147Y-102725122D01*
X165615427Y-102635428D01*
X165615428Y-102635427D01*
X165705122Y-102517147D01*
X165759578Y-102379055D01*
X165770000Y-102292278D01*
X165770000Y-102235000D01*
X165185000Y-102235000D01*
X165185000Y-102789999D01*
X164935000Y-102789999D01*
X164935000Y-102235000D01*
X164350001Y-102235000D01*
X164350001Y-102292279D01*
X162660000Y-102292279D01*
X162660000Y-102285000D01*
X162075000Y-102285000D01*
X162075000Y-102839999D01*
X161825000Y-102839999D01*
X161825000Y-102234000D01*
X161846674Y-102181674D01*
X161899000Y-102160000D01*
X161950000Y-102160000D01*
X161950000Y-102109000D01*
X161971674Y-102056674D01*
X162024000Y-102035000D01*
X162659999Y-102035000D01*
X162659999Y-101977722D01*
X162654314Y-101930379D01*
X162669595Y-101875842D01*
X162718963Y-101848084D01*
X162753645Y-101852221D01*
X162785554Y-101864123D01*
X162838490Y-101869814D01*
X162844867Y-101870500D01*
X162844868Y-101870500D01*
X163235133Y-101870500D01*
X163240381Y-101869935D01*
X163294446Y-101864123D01*
X163384596Y-101830499D01*
X163428618Y-101814080D01*
X163428618Y-101814079D01*
X163428620Y-101814079D01*
X163480653Y-101775126D01*
X163535531Y-101761120D01*
X163569346Y-101775126D01*
X163612550Y-101807469D01*
X163621380Y-101814079D01*
X163621381Y-101814080D01*
X163716557Y-101849578D01*
X163755554Y-101864123D01*
X163809109Y-101869880D01*
X163814867Y-101870500D01*
X163814868Y-101870500D01*
X164205133Y-101870500D01*
X164220542Y-101868843D01*
X164264446Y-101864123D01*
X164264447Y-101864122D01*
X164268089Y-101863731D01*
X164322432Y-101879687D01*
X164349576Y-101929396D01*
X164350000Y-101937307D01*
X164350000Y-101985000D01*
X165769999Y-101985000D01*
X165769999Y-101927722D01*
X165769998Y-101927720D01*
X165759580Y-101840951D01*
X165759579Y-101840947D01*
X165722333Y-101746497D01*
X165722573Y-101732386D01*
X165717174Y-101719350D01*
X165723038Y-101705192D01*
X165723300Y-101689868D01*
X165733447Y-101680060D01*
X165738848Y-101667024D01*
X165753006Y-101661159D01*
X165764027Y-101650509D01*
X165791174Y-101645350D01*
X165791789Y-101645350D01*
X165844115Y-101667024D01*
X165921750Y-101744659D01*
X165979765Y-101774219D01*
X166040079Y-101804950D01*
X166040079Y-101804951D01*
X166138253Y-101820500D01*
X166299372Y-101820500D01*
X166343315Y-101834960D01*
X166347245Y-101837861D01*
X166480614Y-101884529D01*
X166480613Y-101884529D01*
X166512287Y-101887499D01*
X166512289Y-101887500D01*
X166725000Y-101887500D01*
X166725000Y-101459011D01*
X166725270Y-101452693D01*
X166725495Y-101450056D01*
X166728000Y-101434246D01*
X166728000Y-101420832D01*
X166728270Y-101417682D01*
X166739956Y-101395133D01*
X166749674Y-101371674D01*
X166752783Y-101370386D01*
X166754332Y-101367398D01*
X166778537Y-101359718D01*
X166802000Y-101350000D01*
X166898000Y-101350000D01*
X166950326Y-101371674D01*
X166972000Y-101424000D01*
X166972000Y-101434245D01*
X166974089Y-101447433D01*
X166975000Y-101459011D01*
X166975000Y-101887500D01*
X167187711Y-101887500D01*
X167187712Y-101887499D01*
X167219385Y-101884529D01*
X167352754Y-101837861D01*
X167356685Y-101834960D01*
X167400628Y-101820500D01*
X167561747Y-101820500D01*
X167659920Y-101804951D01*
X167778251Y-101744658D01*
X167855885Y-101667024D01*
X167908211Y-101645350D01*
X168124239Y-101645350D01*
X168160872Y-101655054D01*
X168161120Y-101655195D01*
X168258802Y-101711592D01*
X168261262Y-101712251D01*
X168267605Y-101715865D01*
X168282342Y-101734845D01*
X168299336Y-101751835D01*
X168299339Y-101751842D01*
X168320464Y-101802841D01*
X168416715Y-101928279D01*
X168416720Y-101928284D01*
X168500345Y-101992451D01*
X168542159Y-102024536D01*
X168688238Y-102085044D01*
X168805639Y-102100500D01*
X169121104Y-102100499D01*
X169173429Y-102122173D01*
X169195103Y-102174499D01*
X169192165Y-102195144D01*
X169147900Y-102347506D01*
X169145000Y-102384358D01*
X169145000Y-102600000D01*
X172145000Y-102600000D01*
X172145000Y-102384358D01*
X172142099Y-102347506D01*
X172096281Y-102189800D01*
X172012682Y-102048443D01*
X171896557Y-101932318D01*
X171781330Y-101864172D01*
X171747325Y-101818879D01*
X171745000Y-101800477D01*
X171745000Y-100699522D01*
X171766674Y-100647196D01*
X171781331Y-100635827D01*
X171896556Y-100567682D01*
X172012682Y-100451556D01*
X172096281Y-100310199D01*
X172142099Y-100152493D01*
X172145000Y-100115641D01*
X172145000Y-99900000D01*
X169145000Y-99900000D01*
X169145000Y-100115641D01*
X169147900Y-100152493D01*
X169192165Y-100304855D01*
X169185950Y-100361150D01*
X169141748Y-100396562D01*
X169121103Y-100399500D01*
X168805640Y-100399500D01*
X168688240Y-100414955D01*
X168688236Y-100414956D01*
X168542159Y-100475463D01*
X168416722Y-100571713D01*
X168416717Y-100571718D01*
X168385707Y-100612131D01*
X168375451Y-100625499D01*
X168375298Y-100625698D01*
X168326249Y-100654017D01*
X168316590Y-100654650D01*
X167950829Y-100654650D01*
X167898503Y-100632976D01*
X167884895Y-100614246D01*
X167872158Y-100589249D01*
X167778249Y-100495340D01*
X167659920Y-100435049D01*
X167659920Y-100435048D01*
X167561747Y-100419500D01*
X167561746Y-100419500D01*
X167400628Y-100419500D01*
X167356685Y-100405040D01*
X167352754Y-100402138D01*
X167219385Y-100355470D01*
X167219386Y-100355470D01*
X167187712Y-100352500D01*
X166975000Y-100352500D01*
X166975000Y-100780987D01*
X166974730Y-100787304D01*
X166974503Y-100789947D01*
X166972000Y-100805754D01*
X166972000Y-100819165D01*
X166971730Y-100822317D01*
X166960044Y-100844863D01*
X166950326Y-100868326D01*
X166947216Y-100869613D01*
X166945668Y-100872602D01*
X166921460Y-100880282D01*
X166898000Y-100890000D01*
X166802000Y-100890000D01*
X166749674Y-100868326D01*
X166728000Y-100816000D01*
X166728000Y-100805753D01*
X166725911Y-100792563D01*
X166725000Y-100780987D01*
X166725000Y-100352500D01*
X166512287Y-100352500D01*
X166480614Y-100355470D01*
X166347245Y-100402138D01*
X166343315Y-100405040D01*
X166299372Y-100419500D01*
X166138253Y-100419500D01*
X166040079Y-100435048D01*
X166040079Y-100435049D01*
X165921750Y-100495340D01*
X165827841Y-100589249D01*
X165815105Y-100614246D01*
X165772037Y-100651028D01*
X165749171Y-100654650D01*
X165598424Y-100654650D01*
X165554078Y-100639890D01*
X165467488Y-100575070D01*
X165335339Y-100525782D01*
X165335336Y-100525781D01*
X165335335Y-100525781D01*
X165276915Y-100519500D01*
X164843084Y-100519500D01*
X164793449Y-100524836D01*
X164784665Y-100525781D01*
X164652511Y-100575071D01*
X164652510Y-100575071D01*
X164652509Y-100575072D01*
X164562664Y-100642328D01*
X164507786Y-100656335D01*
X164473971Y-100642328D01*
X164398619Y-100585920D01*
X164398618Y-100585919D01*
X164264450Y-100535878D01*
X164264447Y-100535877D01*
X164264446Y-100535877D01*
X164234789Y-100532688D01*
X164205133Y-100529500D01*
X164205132Y-100529500D01*
X163814868Y-100529500D01*
X163814867Y-100529500D01*
X163755554Y-100535877D01*
X163755549Y-100535878D01*
X163621381Y-100585919D01*
X163621376Y-100585922D01*
X163569346Y-100624872D01*
X163514469Y-100638879D01*
X163480654Y-100624872D01*
X163428623Y-100585922D01*
X163428618Y-100585919D01*
X163294450Y-100535878D01*
X163294447Y-100535877D01*
X163294446Y-100535877D01*
X163264789Y-100532688D01*
X163235133Y-100529500D01*
X163235132Y-100529500D01*
X162844868Y-100529500D01*
X162844867Y-100529500D01*
X162785554Y-100535877D01*
X162785549Y-100535878D01*
X162651381Y-100585919D01*
X162651380Y-100585920D01*
X162536737Y-100671742D01*
X162533001Y-100675479D01*
X162530948Y-100673427D01*
X162490380Y-100697489D01*
X162435515Y-100683480D01*
X162357488Y-100625070D01*
X162225339Y-100575782D01*
X162225336Y-100575781D01*
X162225335Y-100575781D01*
X162187545Y-100571718D01*
X162166916Y-100569500D01*
X161752922Y-100569500D01*
X161700596Y-100547826D01*
X161678922Y-100495500D01*
X161684082Y-100468352D01*
X161699578Y-100429057D01*
X161710000Y-100342278D01*
X161710000Y-100285000D01*
X161074000Y-100285000D01*
X161021674Y-100263326D01*
X161000000Y-100211000D01*
X161000000Y-100109000D01*
X161021674Y-100056674D01*
X161074000Y-100035000D01*
X161709999Y-100035000D01*
X161709999Y-99977722D01*
X161709998Y-99977720D01*
X161708270Y-99963322D01*
X161723551Y-99908785D01*
X161772920Y-99881028D01*
X161781742Y-99880500D01*
X161918991Y-99880500D01*
X161918993Y-99880500D01*
X162054328Y-99853580D01*
X162181811Y-99800775D01*
X162296542Y-99724114D01*
X162394114Y-99626542D01*
X162470775Y-99511811D01*
X162502857Y-99434358D01*
X169145000Y-99434358D01*
X169145000Y-99650000D01*
X170520000Y-99650000D01*
X170770000Y-99650000D01*
X172145000Y-99650000D01*
X172145000Y-99434358D01*
X172142099Y-99397506D01*
X172096281Y-99239800D01*
X172012682Y-99098443D01*
X171896556Y-98982317D01*
X171755199Y-98898718D01*
X171597491Y-98852900D01*
X171597494Y-98852900D01*
X171560641Y-98850000D01*
X170770000Y-98850000D01*
X170770000Y-99650000D01*
X170520000Y-99650000D01*
X170520000Y-98850000D01*
X169729359Y-98850000D01*
X169692506Y-98852900D01*
X169534800Y-98898718D01*
X169393443Y-98982317D01*
X169277317Y-99098443D01*
X169193718Y-99239800D01*
X169147900Y-99397506D01*
X169145000Y-99434358D01*
X162502857Y-99434358D01*
X162523580Y-99384328D01*
X162550500Y-99248993D01*
X162550500Y-99111007D01*
X162523580Y-98975672D01*
X162523578Y-98975667D01*
X162470776Y-98848191D01*
X162437773Y-98798799D01*
X162394114Y-98733458D01*
X162296542Y-98635886D01*
X162296538Y-98635883D01*
X162181810Y-98559224D01*
X162083019Y-98518304D01*
X162042971Y-98478256D01*
X162042971Y-98421618D01*
X162047254Y-98412935D01*
X162054724Y-98399997D01*
X162069799Y-98373886D01*
X162100499Y-98259311D01*
X162100500Y-98259311D01*
X162100500Y-98137678D01*
X162122174Y-98085352D01*
X162129775Y-98078723D01*
X162242922Y-97992922D01*
X162334361Y-97872342D01*
X162389877Y-97731564D01*
X162400500Y-97643102D01*
X162400500Y-97056898D01*
X162399491Y-97048499D01*
X162397686Y-97033467D01*
X162389877Y-96968436D01*
X162334361Y-96827658D01*
X162262312Y-96732648D01*
X162247965Y-96677859D01*
X162274807Y-96631675D01*
X162274491Y-96631359D01*
X162275686Y-96630163D01*
X162276233Y-96629223D01*
X162277922Y-96627926D01*
X162374099Y-96502587D01*
X162434556Y-96356630D01*
X162450000Y-96239321D01*
X162450000Y-96075000D01*
X161724000Y-96075000D01*
X161671674Y-96053326D01*
X161650000Y-96001000D01*
X161650000Y-95950000D01*
X161599000Y-95950000D01*
X161546674Y-95928326D01*
X161525000Y-95876000D01*
X161525000Y-95825000D01*
X161775000Y-95825000D01*
X162449999Y-95825000D01*
X162449999Y-95660678D01*
X162434556Y-95543371D01*
X162434555Y-95543367D01*
X162374099Y-95397412D01*
X162277924Y-95272075D01*
X162152587Y-95175900D01*
X162006630Y-95115443D01*
X161889321Y-95100000D01*
X161775000Y-95100000D01*
X161775000Y-95825000D01*
X161525000Y-95825000D01*
X161525000Y-95100000D01*
X161410678Y-95100000D01*
X161293371Y-95115443D01*
X161293367Y-95115444D01*
X161147412Y-95175900D01*
X161103379Y-95209688D01*
X161048671Y-95224346D01*
X161027173Y-95217184D01*
X161027051Y-95217496D01*
X160921571Y-95175900D01*
X160881564Y-95160123D01*
X160852076Y-95156582D01*
X160793104Y-95149500D01*
X160793102Y-95149500D01*
X160306898Y-95149500D01*
X160306896Y-95149500D01*
X160218436Y-95160123D01*
X160077658Y-95215638D01*
X159957078Y-95307077D01*
X159957077Y-95307078D01*
X159865639Y-95427657D01*
X159850584Y-95465833D01*
X159811224Y-95506559D01*
X159800897Y-95510162D01*
X159751489Y-95523400D01*
X159751490Y-95523401D01*
X159726115Y-95530200D01*
X159726108Y-95530203D01*
X159623389Y-95589508D01*
X159239508Y-95973389D01*
X159193573Y-96052952D01*
X159148640Y-96087431D01*
X159092487Y-96080038D01*
X159077161Y-96068278D01*
X159061111Y-96052228D01*
X158925191Y-95971845D01*
X158773551Y-95927789D01*
X158738110Y-95925000D01*
X158575000Y-95925000D01*
X158575000Y-97657245D01*
X158553326Y-97709571D01*
X158289508Y-97973389D01*
X158230201Y-98076112D01*
X158227680Y-98085523D01*
X158227679Y-98085527D01*
X158218534Y-98119654D01*
X158184055Y-98164587D01*
X158147057Y-98174500D01*
X158054997Y-98174500D01*
X157958284Y-98189818D01*
X157958278Y-98189819D01*
X157933593Y-98202397D01*
X157877131Y-98206840D01*
X157866407Y-98202397D01*
X157841721Y-98189819D01*
X157841716Y-98189818D01*
X157745003Y-98174500D01*
X157554997Y-98174500D01*
X157458284Y-98189818D01*
X157458278Y-98189819D01*
X157433593Y-98202397D01*
X157377131Y-98206840D01*
X157366407Y-98202397D01*
X157341721Y-98189819D01*
X157341716Y-98189818D01*
X157245003Y-98174500D01*
X157054997Y-98174500D01*
X156958284Y-98189818D01*
X156958278Y-98189819D01*
X156933593Y-98202397D01*
X156877131Y-98206840D01*
X156866407Y-98202397D01*
X156841721Y-98189819D01*
X156841716Y-98189818D01*
X156745003Y-98174500D01*
X156554997Y-98174500D01*
X156458284Y-98189818D01*
X156458278Y-98189819D01*
X156433593Y-98202397D01*
X156380482Y-98207842D01*
X156373160Y-98205840D01*
X156341715Y-98189818D01*
X156277193Y-98179598D01*
X156273271Y-98178526D01*
X156253863Y-98163475D01*
X156232921Y-98150642D01*
X156231915Y-98146455D01*
X156228515Y-98143818D01*
X156225433Y-98119453D01*
X156219700Y-98095569D01*
X156221311Y-98087993D01*
X156250499Y-97979059D01*
X156250500Y-97979059D01*
X156250500Y-97599728D01*
X156272174Y-97547402D01*
X156324500Y-97525728D01*
X156369551Y-97541022D01*
X156384765Y-97552697D01*
X156384766Y-97552697D01*
X156384767Y-97552698D01*
X156524764Y-97610687D01*
X156637280Y-97625500D01*
X156637282Y-97625500D01*
X157162718Y-97625500D01*
X157162720Y-97625500D01*
X157275236Y-97610687D01*
X157415233Y-97552698D01*
X157535451Y-97460451D01*
X157585224Y-97395585D01*
X157634272Y-97367267D01*
X157688979Y-97381926D01*
X157707626Y-97402965D01*
X157727228Y-97436111D01*
X157838888Y-97547771D01*
X157974808Y-97628154D01*
X158126448Y-97672210D01*
X158161890Y-97675000D01*
X158325000Y-97675000D01*
X158325000Y-95925000D01*
X158161890Y-95925000D01*
X158126448Y-95927789D01*
X157974808Y-95971845D01*
X157838888Y-96052228D01*
X157727230Y-96163886D01*
X157707626Y-96197035D01*
X157662334Y-96231040D01*
X157606261Y-96223060D01*
X157585225Y-96204416D01*
X157535451Y-96139549D01*
X157433014Y-96060946D01*
X157413981Y-96039242D01*
X157385413Y-95989759D01*
X157375500Y-95952761D01*
X157375500Y-95892140D01*
X157397174Y-95839814D01*
X157399739Y-95837247D01*
X157399744Y-95837244D01*
X157490989Y-95718331D01*
X157548348Y-95579854D01*
X157563000Y-95468561D01*
X157562999Y-94631440D01*
X157548348Y-94520146D01*
X157490989Y-94381669D01*
X157490988Y-94381668D01*
X157490988Y-94381667D01*
X157476962Y-94363388D01*
X170399500Y-94363388D01*
X170399500Y-94536611D01*
X170426597Y-94707698D01*
X170426600Y-94707711D01*
X170480125Y-94872442D01*
X170480127Y-94872446D01*
X170558767Y-95026787D01*
X170655641Y-95160123D01*
X170660586Y-95166928D01*
X170783072Y-95289414D01*
X170783075Y-95289416D01*
X170783076Y-95289417D01*
X170923212Y-95391232D01*
X171077553Y-95469872D01*
X171077557Y-95469874D01*
X171242288Y-95523399D01*
X171242294Y-95523400D01*
X171242299Y-95523402D01*
X171348073Y-95540155D01*
X171413388Y-95550500D01*
X171413389Y-95550500D01*
X171586612Y-95550500D01*
X171631647Y-95543367D01*
X171757701Y-95523402D01*
X171757708Y-95523399D01*
X171757711Y-95523399D01*
X171922442Y-95469874D01*
X171922442Y-95469873D01*
X171922445Y-95469873D01*
X172076788Y-95391232D01*
X172216928Y-95289414D01*
X172339414Y-95166928D01*
X172441232Y-95026788D01*
X172519873Y-94872445D01*
X172573402Y-94707701D01*
X172600500Y-94536611D01*
X172600500Y-94363389D01*
X172598379Y-94350000D01*
X172591467Y-94306359D01*
X172573402Y-94192299D01*
X172573400Y-94192294D01*
X172573399Y-94192288D01*
X172519874Y-94027557D01*
X172519872Y-94027553D01*
X172441232Y-93873212D01*
X172339417Y-93733076D01*
X172339416Y-93733075D01*
X172339414Y-93733072D01*
X172216928Y-93610586D01*
X172216925Y-93610583D01*
X172216923Y-93610582D01*
X172076787Y-93508767D01*
X171922446Y-93430127D01*
X171922442Y-93430125D01*
X171757711Y-93376600D01*
X171757698Y-93376597D01*
X171586612Y-93349500D01*
X171586611Y-93349500D01*
X171413389Y-93349500D01*
X171413388Y-93349500D01*
X171242301Y-93376597D01*
X171242288Y-93376600D01*
X171077557Y-93430125D01*
X171077553Y-93430127D01*
X170923212Y-93508767D01*
X170783076Y-93610582D01*
X170660582Y-93733076D01*
X170558767Y-93873212D01*
X170480127Y-94027553D01*
X170480125Y-94027557D01*
X170426600Y-94192288D01*
X170426597Y-94192301D01*
X170399500Y-94363388D01*
X157476962Y-94363388D01*
X157399746Y-94262758D01*
X157399741Y-94262753D01*
X157280830Y-94171510D01*
X157142356Y-94114152D01*
X157142352Y-94114151D01*
X157051288Y-94102163D01*
X157031061Y-94099500D01*
X157031059Y-94099500D01*
X156518940Y-94099500D01*
X156407648Y-94114151D01*
X156407644Y-94114152D01*
X156269169Y-94171510D01*
X156150258Y-94262753D01*
X156150253Y-94262758D01*
X156059010Y-94381669D01*
X156001652Y-94520143D01*
X156001651Y-94520147D01*
X155987000Y-94631440D01*
X155987000Y-95468559D01*
X156001651Y-95579851D01*
X156001652Y-95579855D01*
X156059010Y-95718330D01*
X156150253Y-95837241D01*
X156152826Y-95839814D01*
X156174500Y-95892140D01*
X156174500Y-96017897D01*
X156171978Y-96037050D01*
X156149499Y-96120940D01*
X156149499Y-96125500D01*
X156127825Y-96177826D01*
X156075499Y-96199500D01*
X156029057Y-96199500D01*
X155870943Y-96199500D01*
X155718215Y-96240423D01*
X155718214Y-96240423D01*
X155718212Y-96240424D01*
X155694598Y-96254058D01*
X155581283Y-96319480D01*
X155446826Y-96453938D01*
X155394500Y-96475612D01*
X155342174Y-96453938D01*
X155320500Y-96401612D01*
X155320500Y-96384867D01*
X155316751Y-96350000D01*
X155314123Y-96325554D01*
X155264079Y-96191380D01*
X155264076Y-96191377D01*
X155261544Y-96186737D01*
X155262935Y-96185977D01*
X155250500Y-96148611D01*
X155250500Y-95892140D01*
X155272174Y-95839814D01*
X155274739Y-95837247D01*
X155274744Y-95837244D01*
X155365989Y-95718331D01*
X155423348Y-95579854D01*
X155438000Y-95468561D01*
X155437999Y-94631440D01*
X155423348Y-94520146D01*
X155365989Y-94381669D01*
X155274744Y-94262756D01*
X155274741Y-94262753D01*
X155155830Y-94171510D01*
X155017356Y-94114152D01*
X155017352Y-94114151D01*
X154926288Y-94102163D01*
X154906061Y-94099500D01*
X154906059Y-94099500D01*
X154393936Y-94099500D01*
X154373708Y-94102163D01*
X154319001Y-94087502D01*
X154290686Y-94038451D01*
X154291474Y-94014365D01*
X154300500Y-93968993D01*
X154300500Y-93831007D01*
X154273580Y-93695672D01*
X154250254Y-93639358D01*
X154220776Y-93568191D01*
X154144116Y-93453461D01*
X154144114Y-93453458D01*
X154046542Y-93355886D01*
X153931811Y-93279225D01*
X153931810Y-93279224D01*
X153931808Y-93279223D01*
X153804332Y-93226421D01*
X153804322Y-93226418D01*
X153713694Y-93208391D01*
X153668993Y-93199500D01*
X153531007Y-93199500D01*
X153492642Y-93207131D01*
X153395677Y-93226418D01*
X153395667Y-93226421D01*
X153268193Y-93279222D01*
X153268190Y-93279224D01*
X153266106Y-93280617D01*
X153265277Y-93280781D01*
X153264989Y-93280936D01*
X153264942Y-93280848D01*
X153210556Y-93291661D01*
X153183894Y-93280617D01*
X153181811Y-93279225D01*
X153181809Y-93279224D01*
X153181806Y-93279222D01*
X153054332Y-93226421D01*
X153054322Y-93226418D01*
X152963694Y-93208391D01*
X152918993Y-93199500D01*
X152781007Y-93199500D01*
X152742642Y-93207131D01*
X152645677Y-93226418D01*
X152645667Y-93226421D01*
X152518191Y-93279223D01*
X152403461Y-93355883D01*
X152305883Y-93453461D01*
X152229223Y-93568191D01*
X152176421Y-93695667D01*
X152176418Y-93695677D01*
X152149500Y-93831008D01*
X152149500Y-93968992D01*
X152168219Y-94063101D01*
X152157170Y-94118649D01*
X152110077Y-94150115D01*
X152057972Y-94141232D01*
X152025191Y-94121845D01*
X151873551Y-94077789D01*
X151838110Y-94075000D01*
X151675000Y-94075000D01*
X151675000Y-95825000D01*
X151800794Y-95825000D01*
X151853120Y-95846674D01*
X151874794Y-95899000D01*
X151869635Y-95926147D01*
X151820421Y-96050944D01*
X151810000Y-96137721D01*
X151810000Y-96225000D01*
X152416000Y-96225000D01*
X152468326Y-96246674D01*
X152490000Y-96299000D01*
X152490000Y-96350000D01*
X152541000Y-96350000D01*
X152593326Y-96371674D01*
X152615000Y-96424000D01*
X152615000Y-98209999D01*
X152672278Y-98209999D01*
X152672279Y-98209998D01*
X152696946Y-98207037D01*
X152751482Y-98222318D01*
X152779240Y-98271687D01*
X152763959Y-98326223D01*
X152758096Y-98332833D01*
X152749211Y-98341718D01*
X152689817Y-98458285D01*
X152674500Y-98554995D01*
X152674500Y-98955862D01*
X152652826Y-99008188D01*
X152600500Y-99029862D01*
X152581348Y-99027341D01*
X152527714Y-99012970D01*
X152449289Y-99012970D01*
X152396963Y-98991296D01*
X151117946Y-97712279D01*
X151810001Y-97712279D01*
X151820419Y-97799048D01*
X151820420Y-97799052D01*
X151874877Y-97937147D01*
X151964571Y-98055427D01*
X151964572Y-98055428D01*
X152082852Y-98145122D01*
X152220944Y-98199578D01*
X152307721Y-98209999D01*
X152364999Y-98209998D01*
X152365000Y-98209998D01*
X152365000Y-97625000D01*
X151810001Y-97625000D01*
X151810001Y-97712279D01*
X151117946Y-97712279D01*
X150693388Y-97287721D01*
X151810000Y-97287721D01*
X151810000Y-97375000D01*
X152365000Y-97375000D01*
X152365000Y-96475000D01*
X151810001Y-96475000D01*
X151810001Y-96562279D01*
X151820419Y-96649048D01*
X151820420Y-96649052D01*
X151874877Y-96787147D01*
X151945507Y-96880287D01*
X151959854Y-96935077D01*
X151945507Y-96969713D01*
X151874877Y-97062852D01*
X151820421Y-97200944D01*
X151810000Y-97287721D01*
X150693388Y-97287721D01*
X150239437Y-96833770D01*
X150162776Y-96789511D01*
X150162775Y-96789509D01*
X150126482Y-96768557D01*
X150126484Y-96768557D01*
X150000502Y-96734800D01*
X150000500Y-96734800D01*
X137349963Y-96734800D01*
X137349961Y-96734800D01*
X137223979Y-96768557D01*
X137187686Y-96789510D01*
X137187687Y-96789511D01*
X137111024Y-96833771D01*
X136126667Y-97818127D01*
X136074341Y-97839801D01*
X136029995Y-97825041D01*
X136004830Y-97806203D01*
X135869987Y-97755910D01*
X135869984Y-97755909D01*
X135869983Y-97755909D01*
X135838881Y-97752565D01*
X135810374Y-97749500D01*
X134702073Y-97749500D01*
X134649747Y-97727826D01*
X134637987Y-97712500D01*
X134620280Y-97681831D01*
X134617020Y-97676184D01*
X134505216Y-97564380D01*
X134502637Y-97561801D01*
X134502626Y-97561791D01*
X134225340Y-97284505D01*
X134225338Y-97284502D01*
X134109315Y-97168479D01*
X134022504Y-97118360D01*
X134022502Y-97118359D01*
X133972388Y-97089424D01*
X133972381Y-97089421D01*
X133819659Y-97048499D01*
X133819657Y-97048499D01*
X133661543Y-97048499D01*
X133657013Y-97048499D01*
X133656997Y-97048500D01*
X129971942Y-97048500D01*
X129940600Y-97056898D01*
X129940599Y-97056897D01*
X129819220Y-97089421D01*
X129819214Y-97089424D01*
X129682283Y-97168480D01*
X128812819Y-98037944D01*
X128775614Y-98102387D01*
X128733762Y-98174874D01*
X128733760Y-98174879D01*
X128692838Y-98327601D01*
X128692838Y-98412051D01*
X128671164Y-98464377D01*
X128618838Y-98486051D01*
X128577726Y-98473580D01*
X128441304Y-98382427D01*
X128441305Y-98382427D01*
X128277524Y-98314587D01*
X128277514Y-98314584D01*
X128125539Y-98284355D01*
X128078447Y-98252889D01*
X128067398Y-98197340D01*
X128087648Y-98159453D01*
X128404929Y-97842172D01*
X128457255Y-97820499D01*
X128641444Y-97820499D01*
X128641444Y-97820498D01*
X128699262Y-97814284D01*
X128830068Y-97765495D01*
X128941831Y-97681831D01*
X129025495Y-97570068D01*
X129074284Y-97439262D01*
X129080500Y-97381443D01*
X129080499Y-96918558D01*
X129074284Y-96860738D01*
X129025495Y-96729932D01*
X128941831Y-96618169D01*
X128830068Y-96534505D01*
X128830067Y-96534504D01*
X128830068Y-96534504D01*
X128699263Y-96485716D01*
X128699260Y-96485715D01*
X128641444Y-96479500D01*
X128278556Y-96479500D01*
X128278555Y-96479501D01*
X128220737Y-96485716D01*
X128089932Y-96534504D01*
X128035322Y-96575383D01*
X127980444Y-96589388D01*
X127946264Y-96575106D01*
X127839673Y-96494276D01*
X127702858Y-96440325D01*
X127616885Y-96430000D01*
X127565000Y-96430000D01*
X127565000Y-97076000D01*
X127543326Y-97128326D01*
X127491000Y-97150000D01*
X127440000Y-97150000D01*
X127440000Y-97201000D01*
X127418326Y-97253326D01*
X127366000Y-97275000D01*
X126770000Y-97275000D01*
X126770000Y-97376885D01*
X126780325Y-97462858D01*
X126834276Y-97599673D01*
X126923140Y-97716858D01*
X126923141Y-97716859D01*
X127026893Y-97795536D01*
X127055491Y-97844423D01*
X127041144Y-97899213D01*
X126992257Y-97927811D01*
X126982180Y-97928500D01*
X126523904Y-97928500D01*
X126433541Y-97952713D01*
X126419560Y-97956459D01*
X126409326Y-97959201D01*
X126306604Y-98018508D01*
X125389508Y-98935604D01*
X125330201Y-99038327D01*
X125328228Y-99045688D01*
X125327951Y-99046728D01*
X125327680Y-99047738D01*
X125327679Y-99047737D01*
X125327679Y-99047740D01*
X125299500Y-99152903D01*
X125299500Y-102359311D01*
X125316803Y-102423885D01*
X125316803Y-102423886D01*
X125330199Y-102473882D01*
X125330203Y-102473891D01*
X125389508Y-102576610D01*
X125389509Y-102576611D01*
X125389511Y-102576614D01*
X125473386Y-102660489D01*
X125576113Y-102719799D01*
X125576115Y-102719799D01*
X125576116Y-102719800D01*
X125584184Y-102721961D01*
X125600326Y-102726286D01*
X125670173Y-102745002D01*
X125690690Y-102750500D01*
X125690691Y-102750500D01*
X125809309Y-102750500D01*
X125899673Y-102726286D01*
X125923887Y-102719799D01*
X125944765Y-102707745D01*
X125949724Y-102705767D01*
X125957122Y-102705864D01*
X125977142Y-102700500D01*
X126591106Y-102700500D01*
X126643432Y-102722174D01*
X126665106Y-102774500D01*
X126657672Y-102802197D01*
X126659415Y-102802919D01*
X126657556Y-102807405D01*
X126623800Y-102933383D01*
X126623800Y-103566616D01*
X126657556Y-103692594D01*
X126657557Y-103692596D01*
X126657558Y-103692598D01*
X126674499Y-103721941D01*
X126674500Y-103721942D01*
X126722770Y-103805551D01*
X126971372Y-104054152D01*
X127063598Y-104146378D01*
X127077499Y-104154404D01*
X127111978Y-104199337D01*
X127114500Y-104218490D01*
X127114500Y-104358488D01*
X127130281Y-104458127D01*
X127134500Y-104466408D01*
X127138941Y-104522871D01*
X127134500Y-104533592D01*
X127130281Y-104541872D01*
X127114500Y-104641511D01*
X127114500Y-104736068D01*
X127107107Y-104753915D01*
X127104586Y-104773068D01*
X127096652Y-104779155D01*
X127092826Y-104788394D01*
X127059653Y-104807546D01*
X126999318Y-104823713D01*
X126985337Y-104827459D01*
X126975103Y-104830201D01*
X126872377Y-104889510D01*
X125139508Y-106622381D01*
X125080202Y-106725102D01*
X125080201Y-106725104D01*
X125080201Y-106725105D01*
X125079023Y-106729501D01*
X125049500Y-106839683D01*
X120550500Y-106839683D01*
X120550500Y-99054999D01*
X121992231Y-99054999D01*
X121992232Y-99055000D01*
X122610758Y-99055000D01*
X122605444Y-99064204D01*
X122585000Y-99140504D01*
X122585000Y-99219496D01*
X122605444Y-99295796D01*
X122610758Y-99305000D01*
X121992231Y-99305000D01*
X122019584Y-99442513D01*
X122019587Y-99442524D01*
X122087427Y-99606305D01*
X122185923Y-99753716D01*
X122311283Y-99879076D01*
X122458695Y-99977572D01*
X122458694Y-99977572D01*
X122622475Y-100045412D01*
X122622486Y-100045415D01*
X122796359Y-100080000D01*
X123160000Y-100080000D01*
X123160000Y-99480000D01*
X123410000Y-99480000D01*
X123410000Y-100080000D01*
X123773641Y-100080000D01*
X123947513Y-100045415D01*
X123947524Y-100045412D01*
X124111305Y-99977572D01*
X124258716Y-99879076D01*
X124258718Y-99879075D01*
X124384075Y-99753718D01*
X124384076Y-99753716D01*
X124482572Y-99606305D01*
X124550412Y-99442524D01*
X124550415Y-99442513D01*
X124577768Y-99305000D01*
X123959242Y-99305000D01*
X123964556Y-99295796D01*
X123985000Y-99219496D01*
X123985000Y-99140504D01*
X123964556Y-99064204D01*
X123959242Y-99055000D01*
X124577768Y-99055000D01*
X124577768Y-99054999D01*
X124550415Y-98917486D01*
X124550412Y-98917475D01*
X124482572Y-98753694D01*
X124384076Y-98606283D01*
X124258716Y-98480923D01*
X124111304Y-98382427D01*
X124111305Y-98382427D01*
X123947524Y-98314587D01*
X123947513Y-98314584D01*
X123773641Y-98280000D01*
X123410000Y-98280000D01*
X123410000Y-98880000D01*
X123160000Y-98880000D01*
X123160000Y-98280000D01*
X122796359Y-98280000D01*
X122622486Y-98314584D01*
X122622475Y-98314587D01*
X122458694Y-98382427D01*
X122311283Y-98480923D01*
X122311282Y-98480925D01*
X122185925Y-98606282D01*
X122185923Y-98606283D01*
X122087427Y-98753694D01*
X122019587Y-98917475D01*
X122019584Y-98917486D01*
X121992231Y-99054999D01*
X120550500Y-99054999D01*
X120550500Y-96923114D01*
X126770000Y-96923114D01*
X126770000Y-97025000D01*
X127315000Y-97025000D01*
X127315000Y-96430000D01*
X127263115Y-96430000D01*
X127177141Y-96440325D01*
X127040326Y-96494276D01*
X126923141Y-96583140D01*
X126923140Y-96583141D01*
X126834276Y-96700326D01*
X126780325Y-96837141D01*
X126770000Y-96923114D01*
X120550500Y-96923114D01*
X120550500Y-95263110D01*
X150700000Y-95263110D01*
X150702789Y-95298551D01*
X150746845Y-95450191D01*
X150827228Y-95586111D01*
X150938888Y-95697771D01*
X151074808Y-95778154D01*
X151226448Y-95822210D01*
X151261890Y-95825000D01*
X151425000Y-95825000D01*
X151425000Y-95075000D01*
X150700000Y-95075000D01*
X150700000Y-95263110D01*
X120550500Y-95263110D01*
X120550500Y-94636889D01*
X150700000Y-94636889D01*
X150700000Y-94825000D01*
X151425000Y-94825000D01*
X151425000Y-94075000D01*
X151261890Y-94075000D01*
X151226448Y-94077789D01*
X151074808Y-94121845D01*
X150938888Y-94202228D01*
X150827228Y-94313888D01*
X150746845Y-94449808D01*
X150702789Y-94601448D01*
X150700000Y-94636889D01*
X120550500Y-94636889D01*
X120550500Y-94352636D01*
X120550689Y-94347357D01*
X120553329Y-94310438D01*
X120567420Y-94113416D01*
X120568922Y-94102968D01*
X120569676Y-94099501D01*
X120618220Y-93876350D01*
X120621187Y-93866246D01*
X120702232Y-93648955D01*
X120706610Y-93639367D01*
X120817757Y-93435819D01*
X120823461Y-93426945D01*
X120876657Y-93355883D01*
X120962433Y-93241299D01*
X120969339Y-93233328D01*
X121133328Y-93069339D01*
X121141301Y-93062432D01*
X121326945Y-92923461D01*
X121335819Y-92917757D01*
X121539367Y-92806610D01*
X121548955Y-92802232D01*
X121766246Y-92721187D01*
X121776350Y-92718220D01*
X122002971Y-92668921D01*
X122013416Y-92667420D01*
X122247357Y-92650688D01*
X122252636Y-92650500D01*
X122297595Y-92650500D01*
X177052405Y-92650500D01*
X177097364Y-92650500D01*
X177102642Y-92650688D01*
G37*
%TD.AperFunction*%
%TD*%
M02*
