%TF.GenerationSoftware,KiCad,Pcbnew,9.0.7*%
%TF.CreationDate,2026-01-26T21:42:47-05:00*%
%TF.ProjectId,STM32BLEHardware,53544d33-3242-44c4-9548-617264776172,rev?*%
%TF.SameCoordinates,Original*%
%TF.FileFunction,Soldermask,Top*%
%TF.FilePolarity,Negative*%
%FSLAX46Y46*%
G04 Gerber Fmt 4.6, Leading zero omitted, Abs format (unit mm)*
G04 Created by KiCad (PCBNEW 9.0.7) date 2026-01-26 21:42:47*
%MOMM*%
%LPD*%
G01*
G04 APERTURE LIST*
G04 Aperture macros list*
%AMRoundRect*
0 Rectangle with rounded corners*
0 $1 Rounding radius*
0 $2 $3 $4 $5 $6 $7 $8 $9 X,Y pos of 4 corners*
0 Add a 4 corners polygon primitive as box body*
4,1,4,$2,$3,$4,$5,$6,$7,$8,$9,$2,$3,0*
0 Add four circle primitives for the rounded corners*
1,1,$1+$1,$2,$3*
1,1,$1+$1,$4,$5*
1,1,$1+$1,$6,$7*
1,1,$1+$1,$8,$9*
0 Add four rect primitives between the rounded corners*
20,1,$1+$1,$2,$3,$4,$5,0*
20,1,$1+$1,$4,$5,$6,$7,0*
20,1,$1+$1,$6,$7,$8,$9,0*
20,1,$1+$1,$8,$9,$2,$3,0*%
G04 Aperture macros list end*
%ADD10RoundRect,0.135000X-0.185000X0.135000X-0.185000X-0.135000X0.185000X-0.135000X0.185000X0.135000X0*%
%ADD11RoundRect,0.062500X0.062500X-0.375000X0.062500X0.375000X-0.062500X0.375000X-0.062500X-0.375000X0*%
%ADD12RoundRect,0.062500X0.375000X-0.062500X0.375000X0.062500X-0.375000X0.062500X-0.375000X-0.062500X0*%
%ADD13R,5.600000X5.600000*%
%ADD14RoundRect,0.135000X-0.135000X-0.185000X0.135000X-0.185000X0.135000X0.185000X-0.135000X0.185000X0*%
%ADD15RoundRect,0.218750X0.218750X0.381250X-0.218750X0.381250X-0.218750X-0.381250X0.218750X-0.381250X0*%
%ADD16RoundRect,0.150000X-0.512500X-0.150000X0.512500X-0.150000X0.512500X0.150000X-0.512500X0.150000X0*%
%ADD17RoundRect,0.147500X0.147500X0.172500X-0.147500X0.172500X-0.147500X-0.172500X0.147500X-0.172500X0*%
%ADD18RoundRect,0.225000X-0.250000X0.225000X-0.250000X-0.225000X0.250000X-0.225000X0.250000X0.225000X0*%
%ADD19RoundRect,0.140000X0.140000X0.170000X-0.140000X0.170000X-0.140000X-0.170000X0.140000X-0.170000X0*%
%ADD20RoundRect,0.147500X-0.147500X-0.172500X0.147500X-0.172500X0.147500X0.172500X-0.147500X0.172500X0*%
%ADD21R,1.500000X1.500000*%
%ADD22RoundRect,0.200000X0.200000X-0.250000X0.200000X0.250000X-0.200000X0.250000X-0.200000X-0.250000X0*%
%ADD23RoundRect,0.140000X-0.170000X0.140000X-0.170000X-0.140000X0.170000X-0.140000X0.170000X0.140000X0*%
%ADD24C,2.000000*%
%ADD25C,0.700000*%
%ADD26C,4.400000*%
%ADD27RoundRect,0.147500X0.172500X-0.147500X0.172500X0.147500X-0.172500X0.147500X-0.172500X-0.147500X0*%
%ADD28RoundRect,0.068750X-0.068750X-0.281250X0.068750X-0.281250X0.068750X0.281250X-0.068750X0.281250X0*%
%ADD29RoundRect,0.068750X0.281250X-0.068750X0.281250X0.068750X-0.281250X0.068750X-0.281250X-0.068750X0*%
%ADD30RoundRect,0.135000X0.135000X0.185000X-0.135000X0.185000X-0.135000X-0.185000X0.135000X-0.185000X0*%
%ADD31RoundRect,0.200000X-0.200000X-0.450000X0.200000X-0.450000X0.200000X0.450000X-0.200000X0.450000X0*%
%ADD32O,0.800000X1.300000*%
%ADD33RoundRect,0.140000X-0.140000X-0.170000X0.140000X-0.170000X0.140000X0.170000X-0.140000X0.170000X0*%
%ADD34C,2.374900*%
%ADD35C,0.990600*%
%ADD36C,0.787400*%
%ADD37RoundRect,0.250000X-0.275000X-0.250000X0.275000X-0.250000X0.275000X0.250000X-0.275000X0.250000X0*%
%ADD38RoundRect,0.250000X-0.850000X-0.275000X0.850000X-0.275000X0.850000X0.275000X-0.850000X0.275000X0*%
%ADD39RoundRect,0.150000X-0.150000X-0.400000X0.150000X-0.400000X0.150000X0.400000X-0.150000X0.400000X0*%
%ADD40RoundRect,0.225000X0.225000X0.250000X-0.225000X0.250000X-0.225000X-0.250000X0.225000X-0.250000X0*%
%ADD41C,0.650000*%
%ADD42RoundRect,0.150000X-0.425000X0.150000X-0.425000X-0.150000X0.425000X-0.150000X0.425000X0.150000X0*%
%ADD43RoundRect,0.075000X-0.500000X0.075000X-0.500000X-0.075000X0.500000X-0.075000X0.500000X0.075000X0*%
%ADD44O,2.100000X1.000000*%
%ADD45O,1.800000X1.000000*%
%ADD46RoundRect,0.225000X-0.225000X-0.250000X0.225000X-0.250000X0.225000X0.250000X-0.225000X0.250000X0*%
G04 APERTURE END LIST*
%TO.C,J1*%
G36*
X169655000Y-100310000D02*
G01*
X171745000Y-100310000D01*
X171745000Y-102190000D01*
X169655000Y-102190000D01*
X169655000Y-100310000D01*
G37*
%TD*%
D10*
%TO.C,R5*%
X159300000Y-107200000D03*
X159300000Y-108220000D03*
%TD*%
D11*
%TO.C,U1*%
X153150000Y-105837500D03*
X153650000Y-105837500D03*
X154150000Y-105837500D03*
X154650000Y-105837500D03*
X155150000Y-105837500D03*
X155650000Y-105837500D03*
X156150000Y-105837500D03*
X156650000Y-105837500D03*
X157150000Y-105837500D03*
X157650000Y-105837500D03*
X158150000Y-105837500D03*
X158650000Y-105837500D03*
D12*
X159337500Y-105150000D03*
X159337500Y-104650000D03*
X159337500Y-104150000D03*
X159337500Y-103650000D03*
X159337500Y-103150000D03*
X159337500Y-102650000D03*
X159337500Y-102150000D03*
X159337500Y-101650000D03*
X159337500Y-101150000D03*
X159337500Y-100650000D03*
X159337500Y-100150000D03*
X159337500Y-99650000D03*
D11*
X158650000Y-98962500D03*
X158150000Y-98962500D03*
X157650000Y-98962500D03*
X157150000Y-98962500D03*
X156650000Y-98962500D03*
X156150000Y-98962500D03*
X155650000Y-98962500D03*
X155150000Y-98962500D03*
X154650000Y-98962500D03*
X154150000Y-98962500D03*
X153650000Y-98962500D03*
X153150000Y-98962500D03*
D12*
X152462500Y-99650000D03*
X152462500Y-100150000D03*
X152462500Y-100650000D03*
X152462500Y-101150000D03*
X152462500Y-101650000D03*
X152462500Y-102150000D03*
X152462500Y-102650000D03*
X152462500Y-103150000D03*
X152462500Y-103650000D03*
X152462500Y-104150000D03*
X152462500Y-104650000D03*
X152462500Y-105150000D03*
D13*
X155900000Y-102400000D03*
%TD*%
D14*
%TO.C,R2*%
X173030000Y-107400000D03*
X174050000Y-107400000D03*
%TD*%
D15*
%TO.C,L1*%
X156775000Y-95050000D03*
X154650000Y-95050000D03*
%TD*%
D16*
%TO.C,U3*%
X132175000Y-105850000D03*
X132175000Y-106800000D03*
X132175000Y-107750000D03*
X134450000Y-107750000D03*
X134450000Y-105850000D03*
%TD*%
D17*
%TO.C,L3*%
X164010000Y-101200000D03*
X163040000Y-101200000D03*
%TD*%
D18*
%TO.C,C1*%
X148550000Y-105250000D03*
X148550000Y-106800000D03*
%TD*%
D19*
%TO.C,C4*%
X153450000Y-97500000D03*
X152490000Y-97500000D03*
%TD*%
D20*
%TO.C,D1*%
X150130000Y-104050000D03*
X151100000Y-104050000D03*
%TD*%
D21*
%TO.C,SW1*%
X163600000Y-107350000D03*
X171400000Y-107350000D03*
%TD*%
D22*
%TO.C,Y1*%
X161650000Y-97350000D03*
X161650000Y-95950000D03*
X160550000Y-95950000D03*
X160550000Y-97350000D03*
%TD*%
D19*
%TO.C,C15*%
X142100000Y-107700000D03*
X141140000Y-107700000D03*
%TD*%
D23*
%TO.C,C5*%
X149950000Y-105330000D03*
X149950000Y-106290000D03*
%TD*%
%TO.C,C14*%
X165060000Y-101150000D03*
X165060000Y-102110000D03*
%TD*%
D18*
%TO.C,C18*%
X136250000Y-105875000D03*
X136250000Y-107425000D03*
%TD*%
D24*
%TO.C,FID3*%
X171500000Y-115950000D03*
%TD*%
D23*
%TO.C,C13*%
X161950000Y-101200000D03*
X161950000Y-102160000D03*
%TD*%
D24*
%TO.C,FID2*%
X171500000Y-94450000D03*
%TD*%
D25*
%TO.C,H3*%
X121900000Y-114900000D03*
X122383274Y-113733274D03*
X122383274Y-116066726D03*
X123550000Y-113250000D03*
D26*
X123550000Y-114900000D03*
D25*
X123550000Y-116550000D03*
X124716726Y-113733274D03*
X124716726Y-116066726D03*
X125200000Y-114900000D03*
%TD*%
D14*
%TO.C,R3*%
X126750000Y-109550000D03*
X127770000Y-109550000D03*
%TD*%
D23*
%TO.C,C9*%
X161000000Y-99200000D03*
X161000000Y-100160000D03*
%TD*%
D27*
%TO.C,L2*%
X154650000Y-97550000D03*
X154650000Y-96580000D03*
%TD*%
D19*
%TO.C,C19*%
X151000000Y-101150000D03*
X150040000Y-101150000D03*
%TD*%
D28*
%TO.C,FLT1*%
X166240000Y-101120000D03*
D29*
X166850000Y-100890000D03*
D28*
X167460000Y-101120000D03*
D29*
X166850000Y-101350000D03*
%TD*%
D19*
%TO.C,C8*%
X153450000Y-96350000D03*
X152490000Y-96350000D03*
%TD*%
D30*
%TO.C,R4*%
X128460000Y-97150000D03*
X127440000Y-97150000D03*
%TD*%
D31*
%TO.C,J4*%
X157225000Y-113250000D03*
D32*
X158475000Y-113250000D03*
X159725000Y-113250000D03*
X160975000Y-113250000D03*
%TD*%
D33*
%TO.C,C12*%
X154320000Y-107350000D03*
X155280000Y-107350000D03*
%TD*%
D19*
%TO.C,C11*%
X153180000Y-107350000D03*
X152220000Y-107350000D03*
%TD*%
D10*
%TO.C,R1*%
X176300000Y-107400000D03*
X176300000Y-108420000D03*
%TD*%
D16*
%TO.C,U2*%
X132975000Y-98400000D03*
X132975000Y-99350000D03*
X132975000Y-100300000D03*
X135250000Y-100300000D03*
X135250000Y-99350000D03*
X135250000Y-98400000D03*
%TD*%
D24*
%TO.C,FID1*%
X128150000Y-115650000D03*
%TD*%
D34*
%TO.C,J2*%
X144375000Y-100490000D03*
D35*
X141835000Y-100490000D03*
D34*
X139295000Y-100490000D03*
X144375000Y-103665000D03*
X139295000Y-103665000D03*
D35*
X142851000Y-105570000D03*
X140819000Y-105570000D03*
D36*
X141200000Y-101760000D03*
X142470000Y-101760000D03*
X141200000Y-103030000D03*
X142470000Y-103030000D03*
X141200000Y-104300000D03*
X142470000Y-104300000D03*
%TD*%
D37*
%TO.C,J1*%
X169120000Y-101250000D03*
D38*
X170645000Y-99775000D03*
X170645000Y-102725000D03*
%TD*%
D25*
%TO.C,H4*%
X174166726Y-114783274D03*
X174650000Y-113616548D03*
X174650000Y-115950000D03*
X175816726Y-113133274D03*
D26*
X175816726Y-114783274D03*
D25*
X175816726Y-116433274D03*
X176983452Y-113616548D03*
X176983452Y-115950000D03*
X177466726Y-114783274D03*
%TD*%
D39*
%TO.C,Y2*%
X152700000Y-109700000D03*
X154100000Y-109700000D03*
%TD*%
D18*
%TO.C,C17*%
X130200000Y-105900000D03*
X130200000Y-107450000D03*
%TD*%
D23*
%TO.C,C16*%
X175150000Y-107400000D03*
X175150000Y-108360000D03*
%TD*%
%TO.C,C2*%
X151100000Y-105300000D03*
X151100000Y-106260000D03*
%TD*%
D25*
%TO.C,H2*%
X174233274Y-95683274D03*
X174716548Y-94516548D03*
X174716548Y-96850000D03*
X175883274Y-94033274D03*
D26*
X175883274Y-95683274D03*
D25*
X175883274Y-97333274D03*
X177050000Y-94516548D03*
X177050000Y-96850000D03*
X177533274Y-95683274D03*
%TD*%
D23*
%TO.C,C3*%
X160700000Y-101950000D03*
X160700000Y-102910000D03*
%TD*%
D30*
%TO.C,R7*%
X148850000Y-103850000D03*
X147830000Y-103850000D03*
%TD*%
D25*
%TO.C,H1*%
X122250000Y-95500000D03*
X122733274Y-94333274D03*
X122733274Y-96666726D03*
X123900000Y-93850000D03*
D26*
X123900000Y-95500000D03*
D25*
X123900000Y-97150000D03*
X125066726Y-94333274D03*
X125066726Y-96666726D03*
X125550000Y-95500000D03*
%TD*%
D40*
%TO.C,C7*%
X153100000Y-94950000D03*
X151550000Y-94950000D03*
%TD*%
D41*
%TO.C,J3*%
X126965000Y-100610000D03*
X126965000Y-106390000D03*
D42*
X128040000Y-100300000D03*
X128040000Y-101100000D03*
D43*
X128040000Y-102250000D03*
X128040000Y-103250000D03*
X128040000Y-103750000D03*
X128040000Y-104750000D03*
D42*
X128040000Y-105900000D03*
X128040000Y-106700000D03*
X128040000Y-106700000D03*
X128040000Y-105900000D03*
D43*
X128040000Y-105250000D03*
X128040000Y-104250000D03*
X128040000Y-102750000D03*
X128040000Y-101750000D03*
D42*
X128040000Y-101100000D03*
X128040000Y-100300000D03*
D44*
X127465000Y-99180000D03*
D45*
X123285000Y-99180000D03*
D44*
X127465000Y-107820000D03*
D45*
X123285000Y-107820000D03*
%TD*%
D10*
%TO.C,R6*%
X160400000Y-107200000D03*
X160400000Y-108220000D03*
%TD*%
D23*
%TO.C,C6*%
X158100000Y-107200000D03*
X158100000Y-108160000D03*
%TD*%
D46*
%TO.C,C10*%
X156900000Y-96800000D03*
X158450000Y-96800000D03*
%TD*%
M02*
